<?xml version="1.0" encoding="UTF-8"?>
<svg id="_레이어_2" data-name="레이어_2" xmlns="http://www.w3.org/2000/svg" xmlns:xlink="http://www.w3.org/1999/xlink" viewBox="0 0 1005.12 369.84">
  <defs>
    <style>
      .cls-1 {
        filter: url(#drop-shadow-16);
      }

      .cls-1, .cls-2, .cls-3, .cls-4, .cls-5, .cls-6, .cls-7, .cls-8, .cls-9 {
        fill: #fff;
      }

      .cls-10 {
        filter: url(#drop-shadow-2);
      }

      .cls-10, .cls-11, .cls-12, .cls-13, .cls-14, .cls-15, .cls-16, .cls-17, .cls-18 {
        fill: #138981;
      }

      .cls-11 {
        filter: url(#drop-shadow-12);
      }

      .cls-3 {
        filter: url(#drop-shadow-3);
      }

      .cls-12 {
        filter: url(#drop-shadow-13);
      }

      .cls-13 {
        filter: url(#drop-shadow-15);
      }

      .cls-4 {
        filter: url(#drop-shadow-1);
      }

      .cls-14 {
        filter: url(#drop-shadow-4);
      }

      .cls-5 {
        filter: url(#drop-shadow-8);
      }

      .cls-15 {
        filter: url(#drop-shadow-10);
      }

      .cls-6 {
        filter: url(#drop-shadow-6);
      }

      .cls-7 {
        filter: url(#drop-shadow-9);
      }

      .cls-8 {
        filter: url(#drop-shadow-14);
      }

      .cls-17 {
        filter: url(#drop-shadow-7);
      }

      .cls-9 {
        filter: url(#drop-shadow-11);
      }

      .cls-18 {
        filter: url(#drop-shadow-5);
      }
    </style>
    <filter id="drop-shadow-1" x="0" y="0" width="236.4" height="61.44" filterUnits="userSpaceOnUse">
      <feOffset dx="0" dy="1.5"/>
      <feGaussianBlur result="blur" stdDeviation="1.5"/>
      <feFlood flood-color="#00433c" flood-opacity=".3"/>
      <feComposite in2="blur" operator="in"/>
      <feComposite in="SourceGraphic"/>
    </filter>
    <filter id="drop-shadow-2" x="256.32" y="0" width="236.4" height="61.44" filterUnits="userSpaceOnUse">
      <feOffset dx="0" dy="1.5"/>
      <feGaussianBlur result="blur-2" stdDeviation="1.5"/>
      <feFlood flood-color="#00433c" flood-opacity=".3"/>
      <feComposite in2="blur-2" operator="in"/>
      <feComposite in="SourceGraphic"/>
    </filter>
    <filter id="drop-shadow-3" x="512.64" y="0" width="236.16" height="61.44" filterUnits="userSpaceOnUse">
      <feOffset dx="0" dy="1.5"/>
      <feGaussianBlur result="blur-3" stdDeviation="1.5"/>
      <feFlood flood-color="#00433c" flood-opacity=".3"/>
      <feComposite in2="blur-3" operator="in"/>
      <feComposite in="SourceGraphic"/>
    </filter>
    <filter id="drop-shadow-4" x="768.72" y="0" width="236.4" height="61.44" filterUnits="userSpaceOnUse">
      <feOffset dx="0" dy="1.5"/>
      <feGaussianBlur result="blur-4" stdDeviation="1.5"/>
      <feFlood flood-color="#00433c" flood-opacity=".3"/>
      <feComposite in2="blur-4" operator="in"/>
      <feComposite in="SourceGraphic"/>
    </filter>
    <filter id="drop-shadow-5" x="0" y="102.72" width="236.4" height="61.44" filterUnits="userSpaceOnUse">
      <feOffset dx="0" dy="1.5"/>
      <feGaussianBlur result="blur-5" stdDeviation="1.5"/>
      <feFlood flood-color="#00433c" flood-opacity=".3"/>
      <feComposite in2="blur-5" operator="in"/>
      <feComposite in="SourceGraphic"/>
    </filter>
    <filter id="drop-shadow-6" x="256.32" y="102.72" width="236.4" height="61.44" filterUnits="userSpaceOnUse">
      <feOffset dx="0" dy="1.5"/>
      <feGaussianBlur result="blur-6" stdDeviation="1.5"/>
      <feFlood flood-color="#00433c" flood-opacity=".3"/>
      <feComposite in2="blur-6" operator="in"/>
      <feComposite in="SourceGraphic"/>
    </filter>
    <filter id="drop-shadow-7" x="512.64" y="102.72" width="236.16" height="61.44" filterUnits="userSpaceOnUse">
      <feOffset dx="0" dy="1.5"/>
      <feGaussianBlur result="blur-7" stdDeviation="1.5"/>
      <feFlood flood-color="#00433c" flood-opacity=".3"/>
      <feComposite in2="blur-7" operator="in"/>
      <feComposite in="SourceGraphic"/>
    </filter>
    <filter id="drop-shadow-8" x="768.72" y="102.72" width="236.4" height="61.44" filterUnits="userSpaceOnUse">
      <feOffset dx="0" dy="1.5"/>
      <feGaussianBlur result="blur-8" stdDeviation="1.5"/>
      <feFlood flood-color="#00433c" flood-opacity=".3"/>
      <feComposite in2="blur-8" operator="in"/>
      <feComposite in="SourceGraphic"/>
    </filter>
    <filter id="drop-shadow-9" x="0" y="205.68" width="236.4" height="61.44" filterUnits="userSpaceOnUse">
      <feOffset dx="0" dy="1.5"/>
      <feGaussianBlur result="blur-9" stdDeviation="1.5"/>
      <feFlood flood-color="#00433c" flood-opacity=".3"/>
      <feComposite in2="blur-9" operator="in"/>
      <feComposite in="SourceGraphic"/>
    </filter>
    <filter id="drop-shadow-10" x="256.32" y="205.68" width="236.4" height="61.44" filterUnits="userSpaceOnUse">
      <feOffset dx="0" dy="1.5"/>
      <feGaussianBlur result="blur-10" stdDeviation="1.5"/>
      <feFlood flood-color="#00433c" flood-opacity=".3"/>
      <feComposite in2="blur-10" operator="in"/>
      <feComposite in="SourceGraphic"/>
    </filter>
    <filter id="drop-shadow-11" x="512.64" y="205.68" width="236.16" height="61.44" filterUnits="userSpaceOnUse">
      <feOffset dx="0" dy="1.5"/>
      <feGaussianBlur result="blur-11" stdDeviation="1.5"/>
      <feFlood flood-color="#00433c" flood-opacity=".3"/>
      <feComposite in2="blur-11" operator="in"/>
      <feComposite in="SourceGraphic"/>
    </filter>
    <filter id="drop-shadow-12" x="768.72" y="205.68" width="236.4" height="61.44" filterUnits="userSpaceOnUse">
      <feOffset dx="0" dy="1.5"/>
      <feGaussianBlur result="blur-12" stdDeviation="1.5"/>
      <feFlood flood-color="#00433c" flood-opacity=".3"/>
      <feComposite in2="blur-12" operator="in"/>
      <feComposite in="SourceGraphic"/>
    </filter>
    <filter id="drop-shadow-13" x="0" y="308.4" width="236.4" height="61.44" filterUnits="userSpaceOnUse">
      <feOffset dx="0" dy="1.5"/>
      <feGaussianBlur result="blur-13" stdDeviation="1.5"/>
      <feFlood flood-color="#00433c" flood-opacity=".3"/>
      <feComposite in2="blur-13" operator="in"/>
      <feComposite in="SourceGraphic"/>
    </filter>
    <filter id="drop-shadow-14" x="256.32" y="308.4" width="236.4" height="61.44" filterUnits="userSpaceOnUse">
      <feOffset dx="0" dy="1.5"/>
      <feGaussianBlur result="blur-14" stdDeviation="1.5"/>
      <feFlood flood-color="#00433c" flood-opacity=".3"/>
      <feComposite in2="blur-14" operator="in"/>
      <feComposite in="SourceGraphic"/>
    </filter>
    <filter id="drop-shadow-15" x="512.64" y="308.4" width="236.16" height="61.44" filterUnits="userSpaceOnUse">
      <feOffset dx="0" dy="1.5"/>
      <feGaussianBlur result="blur-15" stdDeviation="1.5"/>
      <feFlood flood-color="#00433c" flood-opacity=".3"/>
      <feComposite in2="blur-15" operator="in"/>
      <feComposite in="SourceGraphic"/>
    </filter>
    <filter id="drop-shadow-16" x="768.72" y="308.4" width="236.4" height="61.44" filterUnits="userSpaceOnUse">
      <feOffset dx="0" dy="1.5"/>
      <feGaussianBlur result="blur-16" stdDeviation="1.5"/>
      <feFlood flood-color="#00433c" flood-opacity=".3"/>
      <feComposite in2="blur-16" operator="in"/>
      <feComposite in="SourceGraphic"/>
    </filter>
  </defs>
  <g id="_레이어_1-2" data-name="레이어_1">
    <g>
      <g>
        <g>
          <rect class="cls-4" x="4.72" y="3.04" width="226.98" height="52.08" rx="15.56" ry="15.56"/>
          <g>
            <path class="cls-16" d="M82.84,33.18v3.45h-1.87v-3.45h-7.69v-1.3l7.08-9.05h2.05l-6.79,8.76h5.39v-3.04h1.83v3.04h2.62v1.6h-2.62Z"/>
            <path class="cls-16" d="M91.37,34.61c.6-.1,1.11-.24,1.55-.42v1.64c-.43.18-.97.33-1.61.43-.64.11-1.29.16-1.94.16h-3.29v-13.73h6.23v1.66h-4.52v10.42h1.78c.6,0,1.21-.05,1.8-.15ZM99.54,37.3h-1.7v-7.34h-2.25v7.08h-1.66v-14.81h1.66v5.98h2.25v-6.06h1.7v15.15Z"/>
            <path class="cls-16" d="M115.66,31.44h-14.4v-1.52h6.31v-1.58h-5.48v-1.48h2.5v-3.08h-2.35v-1.48h12.45v1.48h-2.37v3.08h2.5v1.48h-5.48v1.58h6.31v1.52ZM114.67,32.86v4.46h-1.79v-2.94h-10.75v-1.52h12.55ZM110.55,26.86v-3.08h-4.16v3.08h4.16Z"/>
            <path class="cls-16" d="M123.43,23.99h-6v-1.48h7.75v4.95h-5.96v2.05h3.21c.93,0,1.8-.05,2.59-.14.8-.09,1.4-.22,1.82-.37v1.42c-.41.18-1.02.33-1.82.43-.81.11-1.71.16-2.71.16h-4.85v-4.97h5.96v-2.05ZM130.49,32.43v4.89h-1.81v-3.31h-10.63v-1.58h12.45ZM130.49,31.62h-1.76v-2.92h-2.56v-1.6h2.56v-1.62h-2.56v-1.6h2.56v-1.74h1.76v9.47Z"/>
            <path class="cls-16" d="M142.96,22.23v14.81h-1.64v-4.08h-2.25c-.22,1.24-.59,2.15-1.1,2.75-.51.6-1.17.9-1.97.9-1.1,0-1.93-.57-2.49-1.71-.55-1.14-.83-2.92-.83-5.36s.28-4.22.83-5.36c.55-1.14,1.38-1.71,2.49-1.71,1.51,0,2.51,1.04,2.98,3.12h2.35v-3.37h1.64ZM137.28,33.61c.28-.87.41-2.22.41-4.06s-.14-3.2-.41-4.06c-.28-.87-.7-1.3-1.28-1.3s-.98.44-1.25,1.31-.4,2.23-.4,4.05.13,3.18.4,4.05.69,1.31,1.25,1.31,1.01-.43,1.28-1.3ZM141.32,27.32h-2.09c.08.64.12,1.39.12,2.23,0,.59-.02,1.16-.06,1.7h2.03v-3.93ZM146.41,37.3h-1.68v-15.15h1.68v15.15Z"/>
            <path class="cls-16" d="M148.62,29.92v-7.52h1.74v2.11h4.97v-2.11h1.74v7.52h-8.44ZM159.73,31.96c1.13.49,1.7,1.27,1.7,2.32s-.57,1.82-1.7,2.31c-1.13.49-2.63.73-4.5.73s-3.37-.24-4.5-.73-1.7-1.26-1.7-2.31.57-1.82,1.7-2.32,2.63-.74,4.5-.74,3.37.25,4.5.74ZM155.33,26.04h-4.97v2.33h4.97v-2.33ZM158.33,35.42c.8-.26,1.2-.63,1.2-1.13s-.4-.89-1.19-1.14c-.8-.25-1.83-.37-3.11-.37s-2.33.12-3.13.37c-.8.25-1.19.63-1.19,1.14s.4.88,1.2,1.13c.8.26,1.84.38,3.12.38s2.29-.13,3.1-.38ZM163.22,27.08h-1.99v3.69h-1.78v-8.62h1.78v3.14h1.99v1.79Z"/>
          </g>
        </g>
        <g>
          <rect class="cls-10" x="260.93" y="3.04" width="226.98" height="52.08" rx="15.56" ry="15.56"/>
          <g>
            <path class="cls-2" d="M315.12,36.59h-14.4v-1.76h5.31v-6.69h1.83v6.69h7.26v1.76ZM301.59,24.4v-1.74h12.58v10h-1.83v-8.27h-10.75Z"/>
            <path class="cls-2" d="M326.93,30.97v1.72c-.99.38-2.53.57-4.64.57h-.14v4.04h-1.78v-4.04h-4.04v-1.7h5.96c2.16,0,3.7-.2,4.64-.59ZM319.07,29.71c-.65-.33-1.16-.79-1.52-1.38-.36-.59-.54-1.27-.54-2.03s.18-1.42.54-2.01c.36-.59.87-1.06,1.52-1.39.65-.33,1.39-.5,2.22-.5s1.56.17,2.21.5c.64.34,1.15.8,1.51,1.39s.54,1.26.54,2.01-.18,1.44-.54,2.03-.86,1.05-1.51,1.38c-.64.33-1.38.49-2.21.49s-1.57-.16-2.22-.49ZM319.44,24.6c-.47.45-.71,1.01-.71,1.7s.24,1.25.71,1.7c.47.45,1.09.67,1.85.67s1.38-.22,1.85-.67c.47-.45.71-1.01.71-1.7s-.24-1.25-.71-1.7c-.47-.45-1.09-.67-1.85-.67s-1.38.22-1.85.67ZM329.87,37.3h-1.76v-15.15h1.76v15.15Z"/>
            <path class="cls-2" d="M335.11,29.78c-.82.54-1.75.87-2.79.99v-1.72c1.18-.17,2.13-.7,2.85-1.58.72-.88,1.12-2,1.21-3.35h-3.89v-1.62h9.33v1.62h-3.65c-.01.62-.12,1.3-.34,2.03l4.44,3.1-.95,1.4-4.22-3c-.51.88-1.18,1.59-2,2.13ZM345.47,31.99v5.33h-1.81v-3.71h-10.59v-1.62h12.41ZM345.47,31.18h-1.79v-9.03h1.79v9.03Z"/>
            <path class="cls-2" d="M360.53,33.18v3.45h-1.87v-3.45h-7.69v-1.3l7.08-9.05h2.05l-6.79,8.76h5.39v-3.04h1.83v3.04h2.62v1.6h-2.62Z"/>
            <path class="cls-2" d="M369.06,34.61c.6-.1,1.11-.24,1.55-.42v1.64c-.43.18-.97.33-1.61.43-.64.11-1.29.16-1.94.16h-3.29v-13.73h6.23v1.66h-4.52v10.42h1.78c.6,0,1.21-.05,1.8-.15ZM377.23,37.3h-1.7v-7.34h-2.25v7.08h-1.66v-14.81h1.66v5.98h2.25v-6.06h1.7v15.15Z"/>
            <path class="cls-2" d="M397.25,31.44h-14.4v-1.52h6.31v-1.58h-5.48v-1.48h2.51v-3.08h-2.35v-1.48h12.45v1.48h-2.37v3.08h2.51v1.48h-5.48v1.58h6.31v1.52ZM396.27,32.86v4.46h-1.79v-2.94h-10.75v-1.52h12.55ZM392.14,26.86v-3.08h-4.16v3.08h4.16Z"/>
            <path class="cls-2" d="M405.03,23.99h-6v-1.48h7.75v4.95h-5.96v2.05h3.22c.93,0,1.8-.05,2.59-.14.8-.09,1.4-.22,1.82-.37v1.42c-.41.18-1.02.33-1.82.43-.81.11-1.71.16-2.71.16h-4.85v-4.97h5.96v-2.05ZM412.09,32.43v4.89h-1.81v-3.31h-10.63v-1.58h12.45ZM412.09,31.62h-1.76v-2.92h-2.56v-1.6h2.56v-1.62h-2.56v-1.6h2.56v-1.74h1.76v9.47Z"/>
            <path class="cls-2" d="M428.46,22.23v14.81h-1.64v-4.08h-2.25c-.22,1.24-.59,2.15-1.1,2.75-.51.6-1.17.9-1.97.9-1.1,0-1.93-.57-2.49-1.71-.55-1.14-.83-2.92-.83-5.36s.28-4.22.83-5.36c.55-1.14,1.38-1.71,2.49-1.71,1.51,0,2.5,1.04,2.98,3.12h2.35v-3.37h1.64ZM422.78,33.61c.28-.87.41-2.22.41-4.06s-.14-3.2-.41-4.06c-.28-.87-.7-1.3-1.28-1.3s-.98.44-1.25,1.31c-.27.87-.4,2.23-.4,4.05s.13,3.18.4,4.05c.27.87.69,1.31,1.25,1.31s1.01-.43,1.28-1.3ZM426.82,27.32h-2.09c.08.64.12,1.39.12,2.23,0,.59-.02,1.16-.06,1.7h2.03v-3.93ZM431.91,37.3h-1.68v-15.15h1.68v15.15Z"/>
            <path class="cls-2" d="M434.12,29.92v-7.52h1.74v2.11h4.97v-2.11h1.74v7.52h-8.44ZM445.23,31.96c1.13.49,1.7,1.27,1.7,2.32s-.57,1.82-1.7,2.31c-1.13.49-2.63.73-4.5.73s-3.37-.24-4.5-.73c-1.13-.49-1.7-1.26-1.7-2.31s.56-1.82,1.7-2.32c1.13-.49,2.63-.74,4.5-.74s3.37.25,4.5.74ZM440.83,26.04h-4.97v2.33h4.97v-2.33ZM443.83,35.42c.8-.26,1.2-.63,1.2-1.13s-.4-.89-1.19-1.14c-.8-.25-1.83-.37-3.11-.37s-2.33.12-3.13.37c-.8.25-1.19.63-1.19,1.14s.4.88,1.2,1.13c.8.26,1.84.38,3.12.38s2.29-.13,3.1-.38ZM448.72,27.08h-1.99v3.69h-1.78v-8.62h1.78v3.14h1.99v1.79Z"/>
          </g>
        </g>
        <g>
          <rect class="cls-3" x="517.14" y="3.04" width="226.98" height="52.08" rx="15.56" ry="15.56"/>
          <g>
            <path class="cls-16" d="M582.2,29.91c-.8.52-1.68.83-2.65.94v-1.62c1.05-.17,1.92-.63,2.59-1.38.68-.75,1.09-1.67,1.25-2.76h-3.71v-1.56h3.77v-1.66h1.79v1.66h3.71v1.56h-3.73c-.11.66-.21,1.12-.32,1.4l4.3,2.86-.83,1.38-4.24-2.82c-.5.82-1.15,1.48-1.94,2ZM591.31,32.3c1.14.45,1.72,1.18,1.72,2.18s-.57,1.72-1.72,2.17c-1.14.45-2.67.67-4.58.67s-3.43-.22-4.57-.67c-1.14-.45-1.71-1.17-1.71-2.17s.57-1.73,1.71-2.18c1.14-.45,2.66-.68,4.57-.68s3.43.23,4.58.68ZM589.93,35.51c.8-.22,1.2-.56,1.2-1.04s-.4-.82-1.2-1.05c-.8-.22-1.87-.33-3.2-.33s-2.37.11-3.18.33c-.8.22-1.2.57-1.2,1.05s.4.8,1.2,1.03c.8.22,1.86.34,3.18.34s2.39-.11,3.2-.33ZM591.09,22.15h1.78v9.01h-1.78v-3.75h-2.68v-1.68h2.68v-3.59Z"/>
            <path class="cls-16" d="M601.43,23.97h-6v-1.46h7.75v4.67h-5.96v1.83h3.22c.95,0,1.81-.04,2.6-.13s1.39-.21,1.81-.37v1.4c-.41.17-1.02.31-1.83.41-.82.11-1.72.16-2.7.16h-4.85v-4.69h5.96v-1.83ZM608.45,31.82v5.31h-12.29v-5.31h12.29ZM606.67,35.6v-2.27h-8.74v2.27h8.74ZM608.49,31.01h-1.76v-2.66h-2.56v-1.56h2.56v-1.54h-2.56v-1.56h2.56v-1.54h1.76v8.86Z"/>
            <path class="cls-16" d="M616.77,21.36l-5.86,16.73h-1.5l5.86-16.73h1.5Z"/>
            <path class="cls-16" d="M628.74,33.49v4.16h-1.81v-4.16h-6.29v-1.72h14.4v1.72h-6.29ZM621.62,30.2v-7.79h1.76v2.05h8.92v-2.05h1.76v7.79h-12.43ZM632.3,26.12h-8.92v2.43h8.92v-2.43Z"/>
            <path class="cls-16" d="M644.23,34.06v1.66c-.91.46-2.41.69-4.52.69h-3.53v-1.66h1.24v-10.42h-1.14v-1.66h7.42v1.66h-1.14v10.22c.6-.08,1.16-.24,1.68-.49ZM640.94,34.72v-10.38h-1.91v10.42h.39c.43,0,.94-.01,1.52-.04ZM650.17,37.3h-1.66v-7.34h-2.03v7.08h-1.64v-14.81h1.64v5.98h2.03v-6.06h1.66v15.15Z"/>
            <path class="cls-16" d="M652.38,29.92v-7.52h1.74v2.11h4.97v-2.11h1.74v7.52h-8.44ZM663.48,31.96c1.13.49,1.7,1.27,1.7,2.32s-.57,1.82-1.7,2.31c-1.13.49-2.63.73-4.5.73s-3.37-.24-4.5-.73c-1.13-.49-1.7-1.26-1.7-2.31s.56-1.82,1.7-2.32c1.13-.49,2.63-.74,4.5-.74s3.37.25,4.5.74ZM659.08,26.04h-4.97v2.33h4.97v-2.33ZM662.08,35.42c.8-.26,1.2-.63,1.2-1.13s-.4-.89-1.19-1.14c-.8-.25-1.83-.37-3.11-.37s-2.33.12-3.13.37c-.8.25-1.19.63-1.19,1.14s.4.88,1.2,1.13c.8.26,1.84.38,3.12.38s2.29-.13,3.1-.38ZM666.97,27.08h-1.99v3.69h-1.78v-8.62h1.78v3.14h1.99v1.79Z"/>
            <path class="cls-16" d="M673.29,29.11l4.66,6.08-1.4,1.1-3.83-5.09c-.5,1.57-1.17,2.79-2,3.68-.84.89-1.79,1.4-2.87,1.53v-1.87c.82-.16,1.53-.68,2.14-1.58.61-.89,1.08-2.08,1.42-3.56s.52-3.15.54-5h-3.77v-1.72h9.19v1.72h-3.65c-.03,1.78-.17,3.35-.43,4.71ZM681.02,37.3h-1.79v-15.15h1.79v15.15Z"/>
          </g>
        </g>
        <g>
          <rect class="cls-14" x="773.35" y="3.04" width="226.98" height="52.08" rx="15.56" ry="15.56"/>
          <g>
            <path class="cls-2" d="M825.64,30.02h-14.4v-1.54h5.35v-2.9h1.8v2.9h7.26v1.54ZM823.02,32.1c1.18.48,1.77,1.23,1.77,2.24s-.59,1.76-1.76,2.25c-1.17.49-2.7.73-4.6.73s-3.41-.24-4.59-.73c-1.18-.49-1.77-1.24-1.77-2.25s.59-1.78,1.76-2.25c1.17-.47,2.7-.71,4.6-.71s3.41.24,4.59.72ZM812.18,23.87v-1.56h12.43v5.13h-1.8v-3.57h-10.63ZM821.62,35.46c.86-.26,1.29-.63,1.29-1.11s-.43-.84-1.3-1.09c-.87-.26-1.93-.38-3.18-.38s-2.34.12-3.2.36c-.85.24-1.28.62-1.28,1.11s.43.86,1.29,1.11,1.92.38,3.19.38,2.32-.13,3.19-.38Z"/>
            <path class="cls-2" d="M830.01,29.78c-.82.54-1.75.87-2.79.99v-1.72c1.18-.17,2.13-.7,2.85-1.58.72-.88,1.12-2,1.21-3.35h-3.89v-1.62h9.33v1.62h-3.65c-.01.62-.12,1.3-.34,2.03l4.44,3.1-.95,1.4-4.22-3c-.51.88-1.18,1.59-2,2.13ZM840.37,31.99v5.33h-1.81v-3.71h-10.59v-1.62h12.41ZM840.37,31.18h-1.79v-9.03h1.79v9.03Z"/>
            <path class="cls-2" d="M848.05,29.13l4.58,6.06-1.4,1.1-3.75-5.05c-.51,1.55-1.18,2.77-1.99,3.65-.82.88-1.76,1.39-2.82,1.52v-1.87c.82-.16,1.52-.68,2.11-1.58.59-.89,1.05-2.08,1.38-3.55.33-1.47.51-3.14.53-5.01h-3.69v-1.72h9.05v1.72h-3.57c-.04,1.8-.18,3.38-.43,4.73ZM855.58,30.02v7.28h-1.78v-15.15h1.78v6.08h1.99v1.8h-1.99Z"/>
            <path class="cls-2" d="M870.19,24.26c.78,1.18,1.17,2.95,1.17,5.29s-.39,4.1-1.17,5.29c-.78,1.18-1.84,1.78-3.19,1.78s-2.41-.59-3.2-1.78-1.18-2.95-1.18-5.29.39-4.1,1.18-5.29,1.85-1.78,3.2-1.78,2.4.59,3.19,1.78ZM865.09,25.51c-.47.88-.71,2.22-.71,4.03s.24,3.16.71,4.03c.47.88,1.11,1.31,1.91,1.31s1.4-.44,1.87-1.32c.47-.88.71-2.22.71-4.02s-.24-3.14-.71-4.02-1.1-1.32-1.87-1.32-1.44.44-1.91,1.31ZM873.73,37.3v-15.15h1.79v15.15h-1.79Z"/>
            <path class="cls-2" d="M885.01,24.46v1.68h-7.69v-1.68h2.96v-2.35h1.78v2.35h2.96ZM882.99,27.82c.51.36.9.89,1.19,1.59.29.7.43,1.54.43,2.52s-.14,1.83-.43,2.52c-.29.7-.69,1.23-1.19,1.59-.51.36-1.09.54-1.75.54-1,0-1.81-.4-2.43-1.21-.62-.81-.93-1.96-.93-3.44s.31-2.63.93-3.44c.62-.81,1.43-1.21,2.43-1.21.66,0,1.24.18,1.75.54ZM882.5,34.15c.32-.53.48-1.27.48-2.22s-.16-1.69-.48-2.23c-.32-.54-.74-.81-1.25-.81s-.93.27-1.25.81c-.32.54-.48,1.28-.48,2.23s.16,1.69.48,2.22.74.8,1.25.8.93-.27,1.25-.8ZM891.54,37.3h-1.66v-7.34h-2.21v7.08h-1.64v-14.81h1.64v5.98h2.21v-6.06h1.66v15.15Z"/>
            <path class="cls-2" d="M909.23,32.89c1,.41,1.5,1.04,1.5,1.86,0,.92-.58,1.58-1.74,1.98s-2.7.6-4.64.6-3.46-.2-4.63-.6c-1.16-.4-1.75-1.06-1.75-1.98,0-.83.5-1.45,1.51-1.86,1.01-.41,2.33-.65,3.97-.7v-1.4h-6.31v-1.48h14.4v1.48h-6.29v1.4c1.64.05,2.97.29,3.96.7ZM901.18,27.82c-1.1.32-2.25.5-3.44.52v-1.46c1.26-.03,2.45-.25,3.57-.68,1.12-.43,1.84-1.02,2.17-1.77h-5.46v-1.44h5.46v-1.46h1.79v1.46h5.44v1.44h-5.29c-.05.29-.17.57-.35.85l5.98,1.68-.41,1.42-6.73-1.91c-.72.58-1.63,1.03-2.73,1.35ZM907.6,33.88c-.85-.18-1.93-.27-3.23-.27s-2.38.09-3.24.27c-.85.18-1.28.47-1.28.88s.43.7,1.28.89c.85.18,1.93.28,3.24.28s2.38-.09,3.23-.28c.85-.18,1.28-.48,1.28-.89s-.43-.7-1.28-.88Z"/>
            <path class="cls-2" d="M927.18,29.96h-14.4v-1.42h6.33v-1.36h-5.31v-4.87h12.37v1.42h-10.59v2.03h10.75v1.42h-5.46v1.36h6.31v1.42ZM926.46,35.84v1.28h-12.68v-3.59h10.71v-1.16h-10.75v-1.26h12.49v3.55h-10.71v1.18h10.95Z"/>
            <path class="cls-2" d="M932.81,29.92v-7.52h1.74v2.11h4.97v-2.11h1.74v7.52h-8.44ZM943.91,31.96c1.13.49,1.7,1.27,1.7,2.32s-.57,1.82-1.7,2.31c-1.13.49-2.63.73-4.5.73s-3.37-.24-4.5-.73c-1.13-.49-1.7-1.26-1.7-2.31s.56-1.82,1.7-2.32c1.13-.49,2.63-.74,4.5-.74s3.37.25,4.5.74ZM939.51,26.04h-4.97v2.33h4.97v-2.33ZM942.51,35.42c.8-.26,1.2-.63,1.2-1.13s-.4-.89-1.19-1.14c-.8-.25-1.83-.37-3.11-.37s-2.33.12-3.13.37c-.8.25-1.19.63-1.19,1.14s.4.88,1.2,1.13c.8.26,1.84.38,3.12.38s2.29-.13,3.1-.38ZM947.4,27.08h-1.99v3.69h-1.78v-8.62h1.78v3.14h1.99v1.79Z"/>
            <path class="cls-2" d="M953.72,29.11l4.66,6.08-1.4,1.1-3.83-5.09c-.5,1.57-1.17,2.79-2,3.68-.84.89-1.79,1.4-2.87,1.53v-1.87c.82-.16,1.53-.68,2.14-1.58.61-.89,1.08-2.08,1.42-3.56s.52-3.15.54-5h-3.77v-1.72h9.19v1.72h-3.65c-.03,1.78-.17,3.35-.43,4.71ZM961.45,37.3h-1.79v-15.15h1.79v15.15Z"/>
          </g>
        </g>
      </g>
      <g>
        <g>
          <rect class="cls-18" x="4.72" y="105.88" width="226.98" height="52.08" rx="15.56" ry="15.56"/>
          <g>
            <path class="cls-2" d="M36,132.63c-.82.54-1.75.87-2.79.99v-1.72c1.18-.17,2.13-.7,2.85-1.58.72-.88,1.12-2,1.21-3.35h-3.89v-1.62h9.33v1.62h-3.65c-.01.62-.13,1.3-.34,2.03l4.44,3.1-.95,1.4-4.22-3c-.51.88-1.18,1.59-2,2.13ZM46.36,134.84v5.33h-1.81v-3.71h-10.59v-1.62h12.41ZM46.36,134.03h-1.79v-9.03h1.79v9.03Z"/>
            <path class="cls-2" d="M51.49,132.09c-.83.54-1.77.86-2.82.97v-1.66c1.13-.16,2.05-.64,2.76-1.45.71-.81,1.12-1.81,1.22-3.01h-3.79v-1.6h9.19v1.6h-3.61c-.01.54-.1,1.08-.26,1.62l4.32,2.78-.87,1.4-4.14-2.76c-.51.87-1.18,1.57-2.01,2.11ZM60.07,134.6c1.13.51,1.7,1.31,1.7,2.39s-.57,1.89-1.7,2.41c-1.13.51-2.63.77-4.5.77s-3.37-.26-4.5-.77c-1.13-.51-1.7-1.31-1.7-2.41s.57-1.87,1.7-2.39c1.13-.51,2.63-.77,4.5-.77s3.37.26,4.5.77ZM58.67,138.21c.8-.28,1.2-.68,1.2-1.22s-.4-.94-1.19-1.21c-.8-.27-1.83-.4-3.11-.4s-2.31.14-3.11.4c-.8.27-1.19.67-1.19,1.21s.4.95,1.19,1.22c.8.28,1.83.41,3.11.41s2.29-.14,3.1-.41ZM63.57,129.61h-1.99v3.75h-1.78v-8.36h1.78v2.84h1.99v1.78Z"/>
            <path class="cls-2" d="M73.73,137.43c.6-.1,1.11-.24,1.55-.42v1.66c-.42.2-.95.35-1.59.44-.64.1-1.29.15-1.96.15h-3.29v-13.77h1.74v12.09h1.76c.6,0,1.21-.05,1.8-.15ZM81.91,140.14h-1.7v-7.34h-2.25v7.08h-1.66v-14.81h1.66v5.98h2.25v-6.06h1.7v15.15Z"/>
            <path class="cls-2" d="M90.55,132.09c-.83.54-1.77.86-2.82.97v-1.66c1.13-.16,2.05-.64,2.76-1.45.71-.81,1.12-1.81,1.22-3.01h-3.79v-1.6h9.19v1.6h-3.61c-.01.54-.1,1.08-.26,1.62l4.32,2.78-.87,1.4-4.14-2.76c-.51.87-1.18,1.57-2.01,2.11ZM99.13,134.6c1.13.51,1.7,1.31,1.7,2.39s-.57,1.89-1.7,2.41c-1.13.51-2.63.77-4.5.77s-3.37-.26-4.5-.77c-1.13-.51-1.7-1.31-1.7-2.41s.57-1.87,1.7-2.39c1.13-.51,2.63-.77,4.5-.77s3.37.26,4.5.77ZM97.73,138.21c.8-.28,1.2-.68,1.2-1.22s-.4-.94-1.19-1.21c-.8-.27-1.83-.4-3.11-.4s-2.31.14-3.11.4c-.8.27-1.19.67-1.19,1.21s.4.95,1.19,1.22c.8.28,1.83.41,3.11.41s2.29-.14,3.1-.41ZM102.62,129.61h-1.99v3.75h-1.78v-8.36h1.78v2.84h1.99v1.78Z"/>
            <path class="cls-2" d="M109.21,127.03c.57,1.14.85,2.92.85,5.36s-.28,4.22-.85,5.36c-.57,1.14-1.41,1.71-2.52,1.71s-1.94-.57-2.51-1.72-.85-2.93-.85-5.35.28-4.2.85-5.35,1.4-1.72,2.51-1.72,1.96.57,2.52,1.71ZM107.97,136.44c.28-.87.41-2.23.41-4.05s-.14-3.18-.41-4.05c-.28-.87-.7-1.31-1.28-1.31s-.99.44-1.26,1.31c-.28.87-.41,2.23-.41,4.05s.14,3.18.41,4.05c.28.87.7,1.31,1.26,1.31s1.01-.44,1.28-1.31ZM117.06,140.14h-1.7v-7.34h-2.25v7.08h-1.66v-14.81h1.66v5.98h2.25v-6.06h1.7v15.15Z"/>
            <path class="cls-2" d="M125.89,125.69c.69.37,1.22.9,1.6,1.57.37.67.56,1.43.56,2.29s-.19,1.62-.56,2.29c-.38.67-.91,1.19-1.6,1.57-.69.38-1.5.56-2.42.56s-1.73-.19-2.42-.56c-.69-.37-1.22-.9-1.6-1.57-.37-.67-.56-1.43-.56-2.29s.19-1.62.56-2.29c.38-.67.91-1.19,1.6-1.57.69-.38,1.5-.56,2.42-.56s1.73.19,2.42.56ZM132.64,138.27v1.7h-12.49v-4.99h1.81v3.29h10.67ZM121.45,127.48c-.51.51-.76,1.2-.76,2.07s.25,1.56.76,2.07c.51.51,1.18.77,2.02.77s1.52-.26,2.03-.77c.51-.51.77-1.2.77-2.07s-.26-1.56-.77-2.07c-.51-.51-1.19-.77-2.03-.77s-1.52.26-2.02.77ZM130.49,136.24v-11.24h1.8v11.24h-1.8Z"/>
            <path class="cls-2" d="M145.42,125.69c.69.37,1.22.9,1.6,1.57.37.67.56,1.43.56,2.29s-.19,1.62-.56,2.29c-.38.67-.91,1.19-1.6,1.57-.69.38-1.5.56-2.42.56s-1.73-.19-2.42-.56c-.69-.37-1.22-.9-1.6-1.57-.37-.67-.56-1.43-.56-2.29s.19-1.62.56-2.29c.38-.67.91-1.19,1.6-1.57.69-.38,1.5-.56,2.42-.56s1.73.19,2.42.56ZM152.17,138.27v1.7h-12.49v-4.99h1.81v3.29h10.67ZM140.98,127.48c-.51.51-.76,1.2-.76,2.07s.25,1.56.76,2.07c.51.51,1.18.77,2.02.77s1.52-.26,2.03-.77c.51-.51.77-1.2.77-2.07s-.26-1.56-.77-2.07c-.51-.51-1.19-.77-2.03-.77s-1.52.26-2.02.77ZM150.02,136.24v-11.24h1.8v11.24h-1.8Z"/>
            <path class="cls-2" d="M156.91,132.52c-.83.6-1.75.96-2.76,1.09v-1.74c.88-.16,1.65-.56,2.32-1.2.66-.64,1.18-1.45,1.54-2.42.36-.97.55-2.01.56-3.15l1.8.12c0,1.25-.21,2.43-.63,3.53l4.54,3.27-1.01,1.36-4.28-3.16c-.55.92-1.24,1.68-2.07,2.28ZM167.44,134.84v5.33h-1.81v-3.71h-10.59v-1.62h12.41ZM167.44,134.03h-1.8v-9.03h1.8v9.03Z"/>
            <path class="cls-2" d="M179.81,125.52v4.1c0,1.93-.26,3.62-.77,5.07s-1.22,2.56-2.13,3.34c-.91.78-1.95,1.17-3.12,1.17v-1.76c.87-.03,1.63-.36,2.28-1,.65-.64,1.15-1.54,1.5-2.69.35-1.16.52-2.51.52-4.04v-2.5h-4.3v-1.7h6.02ZM187.36,140.14h-1.72v-7.34h-2.35v7.08h-1.7v-14.81h1.7v5.98h2.35v-6.06h1.72v15.15Z"/>
            <path class="cls-2" d="M191.83,133c-.81.62-1.71,1-2.71,1.14v-1.76c.85-.16,1.6-.58,2.25-1.27.64-.69,1.14-1.56,1.48-2.61.34-1.05.52-2.18.53-3.39l1.79.12c0,1.38-.2,2.64-.61,3.77l4.44,3.75-1.12,1.3-4-3.45c-.55.99-1.23,1.79-2.04,2.41ZM202.98,139.96h-12.62v-4.87h1.81v3.18h10.81v1.7ZM197.52,129.49v-1.7h3.39v-2.8h1.78v11.26h-1.78v-6.77h-3.39Z"/>
          </g>
        </g>
        <g>
          <rect class="cls-6" x="260.93" y="105.88" width="226.98" height="52.08" rx="15.56" ry="15.56"/>
          <g>
            <path class="cls-16" d="M336.99,132.09c-.83.54-1.77.86-2.82.97v-1.66c1.13-.16,2.05-.64,2.76-1.45.71-.81,1.12-1.81,1.22-3.01h-3.79v-1.6h9.19v1.6h-3.61c-.01.54-.1,1.08-.26,1.62l4.32,2.78-.87,1.4-4.14-2.76c-.51.87-1.18,1.57-2.01,2.11ZM345.57,134.6c1.13.51,1.7,1.31,1.7,2.39s-.57,1.89-1.7,2.41c-1.13.51-2.63.77-4.5.77s-3.37-.26-4.5-.77c-1.13-.51-1.7-1.31-1.7-2.41s.56-1.87,1.7-2.39c1.13-.51,2.63-.77,4.5-.77s3.37.26,4.5.77ZM344.17,138.21c.8-.28,1.2-.68,1.2-1.22s-.4-.94-1.19-1.21c-.8-.27-1.83-.4-3.11-.4s-2.31.14-3.11.4c-.8.27-1.19.67-1.19,1.21s.4.95,1.19,1.22c.8.28,1.83.41,3.11.41s2.29-.14,3.1-.41ZM349.06,129.61h-1.99v3.75h-1.78v-8.36h1.78v2.84h1.99v1.78Z"/>
            <path class="cls-16" d="M355.65,127.03c.56,1.14.85,2.92.85,5.36s-.28,4.22-.85,5.36c-.57,1.14-1.41,1.71-2.52,1.71s-1.94-.57-2.51-1.72-.85-2.93-.85-5.35.28-4.2.85-5.35,1.4-1.72,2.51-1.72,1.96.57,2.52,1.71ZM354.41,136.44c.28-.87.41-2.23.41-4.05s-.14-3.18-.41-4.05c-.28-.87-.7-1.31-1.28-1.31s-.99.44-1.26,1.31c-.28.87-.41,2.23-.41,4.05s.14,3.18.41,4.05c.28.87.7,1.31,1.26,1.31s1.01-.44,1.28-1.31ZM363.5,140.14h-1.7v-7.34h-2.25v7.08h-1.66v-14.81h1.66v5.98h2.25v-6.06h1.7v15.15Z"/>
            <path class="cls-16" d="M372.33,125.69c.69.37,1.22.9,1.6,1.57.38.67.56,1.43.56,2.29s-.19,1.62-.56,2.29c-.37.67-.91,1.19-1.6,1.57-.69.38-1.5.56-2.42.56s-1.73-.19-2.42-.56c-.69-.37-1.22-.9-1.6-1.57-.37-.67-.56-1.43-.56-2.29s.19-1.62.56-2.29c.38-.67.91-1.19,1.6-1.57.69-.38,1.5-.56,2.42-.56s1.73.19,2.42.56ZM379.09,138.27v1.7h-12.49v-4.99h1.81v3.29h10.67ZM367.89,127.48c-.51.51-.76,1.2-.76,2.07s.25,1.56.76,2.07c.51.51,1.18.77,2.02.77s1.52-.26,2.03-.77c.51-.51.77-1.2.77-2.07s-.26-1.56-.77-2.07c-.51-.51-1.19-.77-2.03-.77s-1.52.26-2.02.77ZM376.94,136.24v-11.24h1.79v11.24h-1.79Z"/>
            <path class="cls-16" d="M391.86,125.69c.69.37,1.22.9,1.6,1.57.38.67.56,1.43.56,2.29s-.19,1.62-.56,2.29c-.37.67-.91,1.19-1.6,1.57-.69.38-1.5.56-2.42.56s-1.73-.19-2.42-.56c-.69-.37-1.22-.9-1.6-1.57-.37-.67-.56-1.43-.56-2.29s.19-1.62.56-2.29c.38-.67.91-1.19,1.6-1.57.69-.38,1.5-.56,2.42-.56s1.73.19,2.42.56ZM398.61,138.27v1.7h-12.49v-4.99h1.81v3.29h10.67ZM387.42,127.48c-.51.51-.76,1.2-.76,2.07s.25,1.56.76,2.07c.51.51,1.18.77,2.02.77s1.52-.26,2.03-.77c.51-.51.77-1.2.77-2.07s-.26-1.56-.77-2.07c-.51-.51-1.19-.77-2.03-.77s-1.52.26-2.02.77ZM396.47,136.24v-11.24h1.79v11.24h-1.79Z"/>
            <path class="cls-16" d="M400.37,132.57v-1.58h6.04c2.21,0,3.75-.19,4.62-.57v1.56c-.43.2-1.07.35-1.91.44-.84.1-1.79.15-2.84.15h-.22v3.18h-1.78v-3.18h-3.91ZM401.42,126.83v-1.56h8.11v4.81h-1.78v-3.25h-6.33ZM414.24,139.96h-12.64v-5.09h1.78v3.47h10.87v1.62ZM412.21,124.99h1.78v11.82h-1.78v-1.22h-4.3v-1.52h4.3v-9.07Z"/>
          </g>
        </g>
        <g>
          <rect class="cls-17" x="517.14" y="105.88" width="226.98" height="52.08" rx="15.56" ry="15.56"/>
          <g>
            <path class="cls-2" d="M550.24,132.09c-.83.54-1.77.86-2.82.97v-1.66c1.13-.16,2.05-.64,2.76-1.45.71-.81,1.12-1.81,1.22-3.01h-3.79v-1.6h9.19v1.6h-3.61c-.01.54-.1,1.08-.26,1.62l4.32,2.78-.87,1.4-4.14-2.76c-.51.87-1.18,1.57-2.01,2.11ZM558.82,134.6c1.13.51,1.7,1.31,1.7,2.39s-.57,1.89-1.7,2.41c-1.13.51-2.63.77-4.5.77s-3.37-.26-4.5-.77c-1.13-.51-1.7-1.31-1.7-2.41s.56-1.87,1.7-2.39c1.13-.51,2.63-.77,4.5-.77s3.37.26,4.5.77ZM557.42,138.21c.8-.28,1.2-.68,1.2-1.22s-.4-.94-1.19-1.21c-.8-.27-1.83-.4-3.11-.4s-2.31.14-3.11.4c-.8.27-1.19.67-1.19,1.21s.4.95,1.19,1.22c.8.28,1.83.41,3.11.41s2.29-.14,3.1-.41ZM562.31,129.61h-1.99v3.75h-1.78v-8.36h1.78v2.84h1.99v1.78Z"/>
            <path class="cls-2" d="M568.9,127.03c.56,1.14.85,2.92.85,5.36s-.28,4.22-.85,5.36c-.57,1.14-1.41,1.71-2.52,1.71s-1.94-.57-2.51-1.72-.85-2.93-.85-5.35.28-4.2.85-5.35,1.4-1.72,2.51-1.72,1.96.57,2.52,1.71ZM567.66,136.44c.28-.87.41-2.23.41-4.05s-.14-3.18-.41-4.05c-.28-.87-.7-1.31-1.28-1.31s-.99.44-1.26,1.31c-.28.87-.41,2.23-.41,4.05s.14,3.18.41,4.05c.28.87.7,1.31,1.26,1.31s1.01-.44,1.28-1.31ZM576.75,140.14h-1.7v-7.34h-2.25v7.08h-1.66v-14.81h1.66v5.98h2.25v-6.06h1.7v15.15Z"/>
            <path class="cls-2" d="M585.58,125.69c.69.37,1.22.9,1.6,1.57.38.67.56,1.43.56,2.29s-.19,1.62-.56,2.29c-.37.67-.91,1.19-1.6,1.57-.69.38-1.5.56-2.42.56s-1.73-.19-2.42-.56c-.69-.37-1.22-.9-1.6-1.57-.37-.67-.56-1.43-.56-2.29s.19-1.62.56-2.29c.38-.67.91-1.19,1.6-1.57.69-.38,1.5-.56,2.42-.56s1.73.19,2.42.56ZM592.33,138.27v1.7h-12.49v-4.99h1.81v3.29h10.67ZM581.14,127.48c-.51.51-.76,1.2-.76,2.07s.25,1.56.76,2.07c.51.51,1.18.77,2.02.77s1.52-.26,2.03-.77c.51-.51.77-1.2.77-2.07s-.26-1.56-.77-2.07c-.51-.51-1.19-.77-2.03-.77s-1.52.26-2.02.77ZM590.18,136.24v-11.24h1.79v11.24h-1.79Z"/>
            <path class="cls-2" d="M597.95,127.81v-1.48h3.96v-1.62h1.81v1.62h4v1.48h-9.78ZM599.78,133.68c-.81-.53-1.21-1.25-1.21-2.16,0-.59.19-1.11.56-1.56.38-.45.89-.79,1.54-1.03s1.38-.35,2.18-.35,1.51.12,2.16.35,1.17.58,1.55,1.03c.38.45.57.97.57,1.56s-.19,1.13-.56,1.58c-.37.45-.89.79-1.54,1.03-.65.24-1.38.35-2.18.35-1.24,0-2.26-.27-3.07-.8ZM611.09,135.45v4.71h-1.81v-3.14h-10.44v-1.58h12.25ZM600.97,130.43c-.47.28-.71.65-.71,1.09s.24.82.71,1.11c.47.3,1.1.44,1.87.44s1.38-.15,1.85-.44c.47-.3.71-.67.71-1.11s-.23-.81-.7-1.09c-.47-.28-1.09-.42-1.86-.42s-1.4.14-1.87.42ZM611.09,130.59v4.06h-1.78v-9.67h1.78v3.79h1.99v1.81h-1.99Z"/>
            <path class="cls-2" d="M619.35,137.45c.6-.1,1.11-.24,1.55-.42v1.64c-.43.18-.97.33-1.61.43-.64.11-1.29.16-1.94.16h-3.29v-13.73h6.23v1.66h-4.52v10.42h1.78c.6,0,1.21-.05,1.8-.15ZM627.52,140.14h-1.7v-7.34h-2.25v7.08h-1.66v-14.81h1.66v5.98h2.25v-6.06h1.7v15.15Z"/>
            <path class="cls-2" d="M636.12,132.83c-.83.62-1.75,1-2.76,1.13v-1.76c.88-.16,1.65-.58,2.32-1.25.66-.68,1.17-1.53,1.53-2.54.36-1.02.54-2.12.55-3.3l1.79.12c0,1.29-.2,2.51-.61,3.67l4.58,3.55-1.07,1.36-4.24-3.39c-.57.99-1.26,1.79-2.09,2.42ZM647.01,139.96h-12.64v-4.87h1.79v3.18h10.85v1.7ZM644.86,136.24v-11.24h1.79v11.24h-1.79Z"/>
            <path class="cls-2" d="M663.17,139.43h-14.4v-1.76h5.31v-6.69h1.83v6.69h7.26v1.76ZM649.63,127.24v-1.74h12.58v10h-1.83v-8.27h-10.75Z"/>
            <path class="cls-2" d="M676.91,139.07c-.83.12-1.75.19-2.76.19h-5.86v-1.76h5.96c.99,0,1.89-.06,2.7-.18.82-.12,1.46-.29,1.93-.51v1.74c-.49.22-1.14.4-1.97.52ZM675.54,125.89c.68.4,1.21.97,1.59,1.7.38.73.57,1.56.57,2.48s-.19,1.77-.57,2.5c-.38.73-.91,1.3-1.59,1.7-.68.4-1.44.6-2.3.6s-1.62-.2-2.31-.6c-.68-.4-1.22-.97-1.6-1.7-.38-.73-.57-1.56-.57-2.5s.19-1.75.57-2.48.91-1.3,1.6-1.7c.68-.4,1.45-.6,2.31-.6s1.62.2,2.3.6ZM671.26,127.84c-.51.59-.76,1.33-.76,2.22s.25,1.63.76,2.22,1.17.88,1.98.88,1.48-.29,1.98-.88.76-1.32.76-2.22-.25-1.63-.76-2.22c-.51-.58-1.17-.88-1.98-.88s-1.48.29-1.98.88ZM680.07,140.14v-15.15h1.76v15.15h-1.76Z"/>
            <path class="cls-2" d="M692.03,136.35v4.14h-1.81v-4.14h-6.29v-1.78h14.4v1.78h-6.29ZM684.9,132.8v-7.4h12.43v7.4h-12.43ZM686.68,127.12v3.96h8.88v-3.96h-8.88Z"/>
            <path class="cls-2" d="M705.1,131.98l4.58,6.06-1.4,1.1-3.75-5.05c-.51,1.55-1.18,2.77-1.99,3.65-.82.88-1.76,1.39-2.82,1.52v-1.87c.82-.16,1.52-.68,2.11-1.58.59-.89,1.05-2.08,1.38-3.55.33-1.47.51-3.14.53-5.01h-3.69v-1.72h9.05v1.72h-3.57c-.04,1.8-.18,3.38-.43,4.73ZM712.64,132.86v7.28h-1.78v-15.15h1.78v6.08h1.99v1.8h-1.99Z"/>
          </g>
        </g>
        <g>
          <rect class="cls-5" x="773.35" y="105.88" width="226.98" height="52.08" rx="15.56" ry="15.56"/>
          <g>
            <path class="cls-16" d="M808.06,132.86h-14.4v-1.54h5.35v-2.9h1.8v2.9h7.26v1.54ZM805.45,134.94c1.18.48,1.77,1.23,1.77,2.24s-.59,1.76-1.76,2.25c-1.17.49-2.7.73-4.6.73s-3.41-.24-4.59-.73c-1.18-.49-1.77-1.24-1.77-2.25s.59-1.78,1.76-2.25c1.17-.47,2.7-.71,4.6-.71s3.41.24,4.59.72ZM794.61,126.71v-1.56h12.43v5.13h-1.8v-3.57h-10.63ZM804.05,138.3c.86-.26,1.29-.63,1.29-1.11s-.43-.84-1.3-1.09c-.87-.26-1.93-.38-3.18-.38s-2.34.12-3.2.36c-.85.24-1.28.62-1.28,1.11s.43.86,1.29,1.11,1.92.38,3.19.38,2.32-.13,3.19-.38Z"/>
            <path class="cls-16" d="M812.43,132.63c-.82.54-1.75.87-2.79.99v-1.72c1.18-.17,2.13-.7,2.85-1.58.72-.88,1.12-2,1.21-3.35h-3.89v-1.62h9.33v1.62h-3.65c-.01.62-.12,1.3-.34,2.03l4.44,3.1-.95,1.4-4.22-3c-.51.88-1.18,1.59-2,2.13ZM822.8,134.84v5.33h-1.81v-3.71h-10.59v-1.62h12.41ZM822.8,134.03h-1.79v-9.03h1.79v9.03Z"/>
            <path class="cls-16" d="M830.47,131.98l4.58,6.06-1.4,1.1-3.75-5.05c-.51,1.55-1.18,2.77-1.99,3.65-.82.88-1.76,1.39-2.82,1.52v-1.87c.82-.16,1.52-.68,2.11-1.58.59-.89,1.05-2.08,1.38-3.55.33-1.47.51-3.14.53-5.01h-3.69v-1.72h9.05v1.72h-3.57c-.04,1.8-.18,3.38-.43,4.73ZM838.01,132.86v7.28h-1.78v-15.15h1.78v6.08h1.99v1.8h-1.99Z"/>
            <path class="cls-16" d="M850.17,137.45c.6-.1,1.11-.24,1.55-.42v1.64c-.43.18-.97.33-1.61.43-.64.11-1.29.16-1.94.16h-3.29v-13.73h6.23v1.66h-4.52v10.42h1.78c.6,0,1.21-.05,1.8-.15ZM858.34,140.14h-1.7v-7.34h-2.25v7.08h-1.66v-14.81h1.66v5.98h2.25v-6.06h1.7v15.15Z"/>
            <path class="cls-16" d="M862.92,132c-.83.57-1.77.93-2.82,1.08v-1.7c.88-.16,1.64-.53,2.29-1.11.64-.58,1.14-1.32,1.48-2.22.34-.89.52-1.87.53-2.94l1.79.12c0,1.08-.17,2.11-.51,3.1l4.42,3.02-.91,1.36-4.22-2.92c-.54.91-1.22,1.65-2.05,2.22ZM871.66,134.6c1.13.51,1.7,1.31,1.7,2.39s-.57,1.89-1.7,2.41c-1.13.51-2.63.77-4.5.77s-3.37-.26-4.5-.77c-1.13-.51-1.7-1.31-1.7-2.41s.56-1.87,1.7-2.39c1.13-.51,2.63-.77,4.5-.77s3.37.26,4.5.77ZM870.26,138.21c.8-.28,1.2-.68,1.2-1.22s-.4-.94-1.19-1.21c-.8-.27-1.83-.4-3.11-.4s-2.31.14-3.11.4c-.8.27-1.19.67-1.19,1.21s.4.95,1.19,1.22c.8.28,1.83.41,3.11.41s2.29-.14,3.1-.41ZM875.15,129.61h-1.99v3.75h-1.78v-8.36h1.78v2.84h1.99v1.78Z"/>
            <path class="cls-16" d="M881.71,133.03c-.68-.36-1.2-.86-1.57-1.51-.37-.64-.55-1.37-.55-2.17s.18-1.53.55-2.17c.37-.64.89-1.15,1.57-1.51.68-.36,1.46-.54,2.36-.54s1.68.18,2.36.54c.68.36,1.2.86,1.57,1.51s.55,1.37.55,2.17-.18,1.53-.55,2.17c-.37.64-.89,1.15-1.57,1.51s-1.46.54-2.36.54-1.68-.18-2.36-.54ZM892.69,134.84v5.33h-1.81v-3.71h-10.26v-1.62h12.07ZM882.11,127.41c-.5.48-.75,1.13-.75,1.94s.25,1.46.75,1.94c.5.48,1.15.72,1.95.72s1.45-.24,1.95-.72c.5-.48.75-1.13.75-1.94s-.25-1.46-.75-1.94c-.5-.48-1.15-.72-1.95-.72s-1.45.24-1.95.72ZM892.69,130.06v3.96h-1.78v-9.03h1.78v3.29h1.99v1.78h-1.99Z"/>
            <path class="cls-16" d="M898.01,132.15c-.82.57-1.74.92-2.76,1.07v-1.7c.87-.17,1.62-.56,2.26-1.16.64-.6,1.13-1.36,1.47-2.27s.52-1.9.53-2.98l1.79.12c0,1.18-.18,2.27-.53,3.25l4.34,3.12-1.01,1.3-4.06-2.94c-.54.89-1.22,1.62-2.03,2.19ZM907.22,134.72c1.14.5,1.72,1.28,1.72,2.35s-.57,1.85-1.72,2.35-2.66.75-4.56.75-3.39-.25-4.53-.75c-1.14-.5-1.71-1.28-1.71-2.35s.57-1.85,1.71-2.35c1.14-.5,2.65-.75,4.53-.75s3.41.25,4.56.75ZM905.82,138.24c.81-.27,1.22-.66,1.22-1.17s-.41-.9-1.22-1.17c-.82-.27-1.87-.4-3.16-.4s-2.33.13-3.14.4c-.8.27-1.2.66-1.2,1.17s.4.9,1.2,1.17c.8.27,1.85.4,3.14.4s2.34-.13,3.16-.4ZM903.65,129.04v-1.68h3.39v-2.37h1.78v8.5h-1.78v-4.46h-3.39Z"/>
            <path class="cls-16" d="M915.39,133.55v-8.21h8.6v8.21h-8.6ZM928.6,138.27v1.7h-12.64v-4.95h1.79v3.25h10.85ZM922.23,126.95h-5.07v4.99h5.07v-4.99ZM926.45,136.24v-11.24h1.79v11.24h-1.79Z"/>
            <path class="cls-16" d="M930.36,133.45v-1.5h6.04c2.2,0,3.73-.2,4.62-.61v1.52c-.85.39-2.5.59-4.93.59v2.7h-1.78v-2.7h-3.95ZM932.39,130.15c-.79-.52-1.18-1.25-1.18-2.2s.39-1.66,1.18-2.18c.79-.52,1.83-.78,3.12-.78s2.32.26,3.1.78c.78.52,1.16,1.25,1.16,2.18s-.39,1.68-1.16,2.2c-.78.52-1.81.78-3.1.78s-2.33-.26-3.12-.78ZM944.33,139.96h-12.66v-4.64h1.79v3.04h10.87v1.6ZM933.65,126.83c-.47.26-.7.64-.7,1.12s.23.88.7,1.14c.47.26,1.09.39,1.86.39s1.37-.13,1.83-.39c.46-.26.69-.64.69-1.14s-.23-.86-.69-1.12-1.07-.39-1.83-.39-1.4.13-1.86.39ZM942.2,124.99h1.78v11.84h-1.78v-.95h-4.32v-1.38h4.32v-9.51Z"/>
            <path class="cls-16" d="M949.89,133.4v-1.5h14.4v1.5h-14.4ZM961.66,125.6c1.17.49,1.76,1.22,1.76,2.21s-.59,1.72-1.76,2.21c-1.17.49-2.7.73-4.58.73s-3.41-.24-4.59-.73c-1.18-.49-1.77-1.22-1.77-2.21s.59-1.72,1.77-2.21c1.18-.49,2.71-.73,4.59-.73s3.41.24,4.58.73ZM961.71,135.3c1.15.43,1.73,1.13,1.73,2.1s-.58,1.7-1.74,2.13-2.7.65-4.62.65-3.44-.22-4.61-.65c-1.16-.43-1.75-1.14-1.75-2.13s.58-1.67,1.74-2.1c1.16-.43,2.7-.64,4.62-.64s3.47.21,4.63.64ZM953.87,136.41c-.84.2-1.26.53-1.26.99s.42.8,1.26,1.01c.84.21,1.91.32,3.22.32s2.37-.1,3.21-.32c.83-.21,1.25-.55,1.25-1.01s-.42-.79-1.25-.99c-.84-.2-1.9-.3-3.21-.3s-2.37.1-3.22.3ZM953.88,126.71c-.84.25-1.25.62-1.25,1.1s.41.85,1.24,1.1,1.9.36,3.22.36,2.39-.12,3.22-.36c.83-.24,1.24-.61,1.24-1.1s-.42-.85-1.25-1.1c-.84-.25-1.9-.37-3.21-.37s-2.37.12-3.21.37Z"/>
            <path class="cls-16" d="M971.24,137.45c.6-.1,1.11-.24,1.55-.42v1.64c-.43.18-.97.33-1.61.43-.64.11-1.29.16-1.94.16h-3.29v-13.73h6.23v1.66h-4.52v10.42h1.78c.6,0,1.21-.05,1.8-.15ZM979.42,140.14h-1.7v-7.34h-2.25v7.08h-1.66v-14.81h1.66v5.98h2.25v-6.06h1.7v15.15Z"/>
          </g>
        </g>
      </g>
      <g>
        <g>
          <rect class="cls-7" x="4.72" y="208.72" width="226.98" height="52.08" rx="15.56" ry="15.56"/>
          <g>
            <path class="cls-16" d="M52.47,229.94c.77,1.18,1.15,2.95,1.15,5.29s-.38,4.1-1.15,5.29c-.77,1.18-1.82,1.78-3.15,1.78s-2.36-.59-3.14-1.78c-.78-1.18-1.16-2.95-1.16-5.29s.39-4.1,1.16-5.29c.78-1.18,1.82-1.78,3.14-1.78s2.38.59,3.15,1.78ZM51.16,239.26c.46-.87.69-2.22.69-4.03s-.23-3.16-.69-4.03c-.46-.87-1.07-1.31-1.83-1.31s-1.39.44-1.85,1.31c-.46.88-.69,2.22-.69,4.03s.23,3.16.69,4.03c.46.88,1.08,1.31,1.85,1.31s1.37-.44,1.83-1.31ZM57.67,235.7v7.28h-1.78v-15.15h1.78v6.08h1.99v1.8h-1.99Z"/>
            <path class="cls-16" d="M74.59,236.26h-14.4v-1.5h6.31v-1.5h-5.29v-5.27h12.37v1.5h-10.59v2.27h10.75v1.5h-5.46v1.5h6.31v1.5ZM72.02,238.11c1.16.43,1.75,1.14,1.75,2.13s-.58,1.7-1.75,2.14-2.71.66-4.63.66-3.46-.22-4.63-.66c-1.16-.44-1.75-1.15-1.75-2.14s.58-1.7,1.75-2.13c1.16-.43,2.71-.65,4.63-.65s3.46.22,4.63.65ZM70.62,241.27c.85-.21,1.27-.55,1.27-1.03s-.43-.8-1.28-1.01c-.86-.21-1.93-.32-3.22-.32s-2.36.11-3.22.32c-.85.21-1.28.55-1.28,1.01s.42.82,1.27,1.03c.85.21,1.92.32,3.23.32s2.38-.1,3.23-.32Z"/>
            <path class="cls-16" d="M75.78,230.65v-1.48h3.96v-1.62h1.81v1.62h4v1.48h-9.78ZM77.6,236.52c-.81-.53-1.21-1.25-1.21-2.16,0-.59.19-1.11.56-1.56.37-.45.89-.79,1.54-1.03.65-.24,1.38-.35,2.18-.35s1.51.12,2.16.35,1.17.58,1.55,1.03c.38.45.57.97.57,1.56s-.19,1.13-.56,1.58c-.38.45-.89.79-1.54,1.03s-1.38.35-2.18.35c-1.24,0-2.26-.27-3.07-.8ZM88.91,238.29v4.71h-1.81v-3.14h-10.44v-1.58h12.25ZM78.79,233.27c-.47.28-.71.65-.71,1.09s.24.82.71,1.11c.47.3,1.1.44,1.87.44s1.38-.15,1.85-.44c.47-.3.71-.67.71-1.11s-.23-.81-.7-1.09c-.47-.28-1.09-.42-1.86-.42s-1.4.14-1.87.42ZM88.91,233.44v4.06h-1.78v-9.67h1.78v3.79h1.99v1.81h-1.99Z"/>
            <path class="cls-16" d="M97.17,240.29c.6-.1,1.11-.24,1.55-.42v1.64c-.43.18-.97.33-1.61.43-.64.11-1.29.16-1.94.16h-3.29v-13.73h6.23v1.66h-4.52v10.42h1.78c.6,0,1.21-.05,1.8-.15ZM105.34,242.98h-1.7v-7.34h-2.25v7.08h-1.66v-14.81h1.66v5.98h2.25v-6.06h1.7v15.15Z"/>
            <path class="cls-16" d="M113.94,235.68c-.83.62-1.75,1-2.76,1.13v-1.76c.88-.16,1.65-.58,2.32-1.25s1.17-1.53,1.53-2.54.54-2.12.55-3.3l1.8.12c0,1.29-.2,2.51-.61,3.67l4.58,3.55-1.07,1.36-4.24-3.39c-.57.99-1.26,1.79-2.09,2.42ZM124.83,242.81h-12.64v-4.87h1.79v3.18h10.85v1.7ZM122.68,239.08v-11.24h1.79v11.24h-1.79Z"/>
            <path class="cls-16" d="M140.99,242.27h-14.4v-1.76h5.31v-6.69h1.83v6.69h7.26v1.76ZM127.46,230.08v-1.74h12.58v10h-1.83v-8.27h-10.75Z"/>
            <path class="cls-16" d="M154.74,241.91c-.83.12-1.75.19-2.76.19h-5.86v-1.76h5.96c.99,0,1.89-.06,2.7-.18.82-.12,1.46-.29,1.93-.51v1.74c-.49.22-1.14.4-1.97.52ZM153.37,228.73c.68.4,1.21.97,1.59,1.7.38.73.57,1.56.57,2.48s-.19,1.77-.57,2.5c-.38.73-.91,1.3-1.59,1.7-.68.4-1.44.6-2.3.6s-1.62-.2-2.31-.6c-.68-.4-1.22-.97-1.6-1.7-.38-.73-.57-1.56-.57-2.5s.19-1.75.57-2.48.91-1.3,1.6-1.7c.68-.4,1.45-.6,2.31-.6s1.62.2,2.3.6ZM149.08,230.68c-.51.59-.76,1.33-.76,2.22s.25,1.63.76,2.22,1.17.88,1.98.88,1.48-.29,1.98-.88.76-1.32.76-2.22-.25-1.63-.76-2.22c-.51-.58-1.17-.88-1.98-.88s-1.48.29-1.98.88ZM157.89,242.98v-15.15h1.76v15.15h-1.76Z"/>
            <path class="cls-16" d="M169.85,239.2v4.14h-1.81v-4.14h-6.29v-1.78h14.4v1.78h-6.29ZM162.72,235.65v-7.4h12.43v7.4h-12.43ZM164.5,229.96v3.96h8.88v-3.96h-8.88Z"/>
            <path class="cls-16" d="M182.92,234.82l4.58,6.06-1.4,1.1-3.75-5.05c-.51,1.55-1.18,2.77-1.99,3.65-.82.88-1.76,1.39-2.82,1.52v-1.87c.82-.16,1.52-.68,2.11-1.58.59-.89,1.05-2.08,1.38-3.55.33-1.47.51-3.14.53-5.01h-3.69v-1.72h9.05v1.72h-3.57c-.04,1.8-.18,3.38-.43,4.73ZM190.46,235.7v7.28h-1.78v-15.15h1.78v6.08h1.99v1.8h-1.99Z"/>
          </g>
        </g>
        <g>
          <rect class="cls-15" x="260.93" y="208.72" width="226.98" height="52.08" rx="15.56" ry="15.56"/>
          <g>
            <path class="cls-2" d="M308.71,233.84c-.71.97-1.7,1.69-2.98,2.17s-2.75.72-4.44.72v-1.68c2.05-.01,3.68-.41,4.88-1.19,1.2-.78,1.81-1.9,1.81-3.34v-.69h-6.69v-1.64h8.48v2.07c0,1.42-.35,2.61-1.06,3.58ZM314.64,241.11v1.7h-12.64v-4.87h1.79v3.18h10.85ZM312.49,239.08v-11.24h1.79v11.24h-1.79Z"/>
            <path class="cls-2" d="M330.8,235.29h-14.4v-1.56h14.4v1.56ZM317.38,229.57v-1.58h12.39v4.87h-1.81v-3.29h-10.57ZM329.81,236.39v6.41h-12.43v-6.41h1.76v1.72h8.94v-1.72h1.74ZM328.08,239.51h-8.94v1.87h8.94v-1.87Z"/>
            <path class="cls-2" d="M346.42,237.2h-14.4v-1.54h6.31v-1.52h-5.29v-6.23h1.76v1.68h8.86v-1.68h1.76v6.23h-5.31v1.52h6.31v1.54ZM345.43,238.56v4.44h-1.79v-2.92h-10.75v-1.52h12.55ZM343.66,232.71v-1.72h-8.86v1.72h8.86Z"/>
            <path class="cls-2" d="M353.42,234.8l4.66,6.08-1.4,1.1-3.83-5.09c-.5,1.57-1.17,2.79-2,3.68-.84.89-1.79,1.4-2.87,1.53v-1.87c.82-.16,1.53-.68,2.14-1.58.61-.89,1.08-2.08,1.42-3.56s.52-3.15.54-5h-3.77v-1.72h9.19v1.72h-3.65c-.03,1.78-.17,3.35-.43,4.71ZM361.16,242.98h-1.79v-15.15h1.79v15.15Z"/>
            <path class="cls-2" d="M370.15,235.68c-.83.62-1.75,1-2.76,1.13v-1.76c.88-.16,1.65-.58,2.32-1.25.66-.68,1.17-1.53,1.53-2.54.36-1.02.54-2.12.55-3.3l1.79.12c0,1.29-.2,2.51-.61,3.67l4.58,3.55-1.07,1.36-4.24-3.39c-.57.99-1.26,1.79-2.09,2.42ZM381.04,242.81h-12.64v-4.87h1.79v3.18h10.85v1.7ZM378.89,239.08v-11.24h1.79v11.24h-1.79Z"/>
            <path class="cls-2" d="M397.19,242.27h-14.4v-1.76h5.31v-6.69h1.83v6.69h7.26v1.76ZM383.66,230.08v-1.74h12.58v10h-1.83v-8.27h-10.75Z"/>
            <path class="cls-2" d="M410.94,241.91c-.83.12-1.75.19-2.76.19h-5.86v-1.76h5.96c.99,0,1.89-.06,2.7-.18.82-.12,1.46-.29,1.93-.51v1.74c-.49.22-1.14.4-1.97.52ZM409.57,228.73c.68.4,1.21.97,1.59,1.7.38.73.57,1.56.57,2.48s-.19,1.77-.57,2.5c-.38.73-.91,1.3-1.59,1.7-.68.4-1.44.6-2.3.6s-1.62-.2-2.31-.6c-.68-.4-1.22-.97-1.6-1.7-.38-.73-.57-1.56-.57-2.5s.19-1.75.57-2.48.91-1.3,1.6-1.7c.68-.4,1.45-.6,2.31-.6s1.62.2,2.3.6ZM405.29,230.68c-.51.59-.76,1.33-.76,2.22s.25,1.63.76,2.22,1.17.88,1.98.88,1.48-.29,1.98-.88.76-1.32.76-2.22-.25-1.63-.76-2.22c-.51-.58-1.17-.88-1.98-.88s-1.48.29-1.98.88ZM414.1,242.98v-15.15h1.76v15.15h-1.76Z"/>
            <path class="cls-2" d="M426.05,239.2v4.14h-1.81v-4.14h-6.29v-1.78h14.4v1.78h-6.29ZM418.93,235.65v-7.4h12.43v7.4h-12.43ZM420.71,229.96v3.96h8.88v-3.96h-8.88Z"/>
            <path class="cls-2" d="M439.13,234.82l4.58,6.06-1.4,1.1-3.75-5.05c-.51,1.55-1.18,2.77-1.99,3.65-.82.88-1.76,1.39-2.82,1.52v-1.87c.82-.16,1.52-.68,2.11-1.58.59-.89,1.05-2.08,1.38-3.55.33-1.47.51-3.14.53-5.01h-3.69v-1.72h9.05v1.72h-3.57c-.04,1.8-.18,3.38-.43,4.73ZM446.67,235.7v7.28h-1.78v-15.15h1.78v6.08h1.99v1.8h-1.99Z"/>
          </g>
        </g>
        <g>
          <rect class="cls-9" x="517.14" y="208.72" width="226.98" height="52.08" rx="15.56" ry="15.56"/>
          <g>
            <path class="cls-16" d="M573.34,242.27h-14.4v-1.76h6.31v-3.83h-5.37v-8.52h1.81v6.75h10.77v1.77h-5.42v3.83h6.29v1.76Z"/>
            <path class="cls-16" d="M581.67,228.53c.69.37,1.22.9,1.6,1.57.38.67.56,1.43.56,2.29s-.19,1.62-.56,2.29c-.37.67-.91,1.19-1.6,1.57-.69.38-1.5.56-2.42.56s-1.73-.19-2.42-.56c-.69-.37-1.22-.9-1.6-1.57-.37-.67-.56-1.43-.56-2.29s.19-1.62.56-2.29c.38-.67.91-1.19,1.6-1.57.69-.38,1.5-.56,2.42-.56s1.73.19,2.42.56ZM588.43,241.11v1.7h-12.49v-4.99h1.81v3.29h10.67ZM577.23,230.32c-.51.51-.76,1.2-.76,2.07s.25,1.56.76,2.07c.51.51,1.18.77,2.02.77s1.52-.26,2.03-.77c.51-.51.77-1.2.77-2.07s-.26-1.56-.77-2.07c-.51-.51-1.19-.77-2.03-.77s-1.52.26-2.02.77ZM586.28,239.08v-11.24h1.79v11.24h-1.79Z"/>
            <path class="cls-16" d="M590.14,230.65v-1.48h3.96v-1.62h1.81v1.62h4v1.48h-9.78ZM591.97,236.52c-.81-.53-1.21-1.25-1.21-2.16,0-.59.19-1.11.56-1.56.38-.45.89-.79,1.54-1.03s1.38-.35,2.18-.35,1.51.12,2.16.35,1.17.58,1.55,1.03c.38.45.57.97.57,1.56s-.19,1.13-.56,1.58c-.37.45-.89.79-1.54,1.03-.65.24-1.38.35-2.18.35-1.24,0-2.26-.27-3.07-.8ZM603.28,238.29v4.71h-1.81v-3.14h-10.44v-1.58h12.25ZM593.16,233.27c-.47.28-.71.65-.71,1.09s.24.82.71,1.11c.47.3,1.1.44,1.87.44s1.38-.15,1.85-.44c.47-.3.71-.67.71-1.11s-.23-.81-.7-1.09c-.47-.28-1.09-.42-1.86-.42s-1.4.14-1.87.42ZM603.28,233.44v4.06h-1.78v-9.67h1.78v3.79h1.99v1.81h-1.99Z"/>
            <path class="cls-16" d="M611.53,240.29c.6-.1,1.11-.24,1.55-.42v1.64c-.43.18-.97.33-1.61.43-.64.11-1.29.16-1.94.16h-3.29v-13.73h6.23v1.66h-4.52v10.42h1.78c.6,0,1.21-.05,1.8-.15ZM619.71,242.98h-1.7v-7.34h-2.25v7.08h-1.66v-14.81h1.66v5.98h2.25v-6.06h1.7v15.15Z"/>
            <path class="cls-16" d="M628.31,235.68c-.83.62-1.75,1-2.76,1.13v-1.76c.88-.16,1.65-.58,2.32-1.25.66-.68,1.17-1.53,1.53-2.54.36-1.02.54-2.12.55-3.3l1.79.12c0,1.29-.2,2.51-.61,3.67l4.58,3.55-1.07,1.36-4.24-3.39c-.57.99-1.26,1.79-2.09,2.42ZM639.2,242.81h-12.64v-4.87h1.79v3.18h10.85v1.7ZM637.05,239.08v-11.24h1.79v11.24h-1.79Z"/>
            <path class="cls-16" d="M655.35,242.27h-14.4v-1.76h5.31v-6.69h1.83v6.69h7.26v1.76ZM641.82,230.08v-1.74h12.58v10h-1.83v-8.27h-10.75Z"/>
            <path class="cls-16" d="M665.2,241.91c-.83.12-1.75.19-2.76.19h-5.86v-1.76h5.96c.99,0,1.89-.06,2.7-.18.82-.12,1.46-.29,1.93-.51v1.74c-.49.22-1.14.4-1.97.52ZM663.83,228.73c.68.4,1.21.97,1.59,1.7.38.73.57,1.56.57,2.48s-.19,1.77-.57,2.5c-.38.73-.91,1.3-1.59,1.7-.68.4-1.44.6-2.3.6s-1.62-.2-2.31-.6c-.68-.4-1.22-.97-1.6-1.7-.38-.73-.57-1.56-.57-2.5s.19-1.75.57-2.48.91-1.3,1.6-1.7c.68-.4,1.45-.6,2.31-.6s1.62.2,2.3.6ZM659.55,230.68c-.51.59-.76,1.33-.76,2.22s.25,1.63.76,2.22,1.17.88,1.98.88,1.48-.29,1.98-.88.76-1.32.76-2.22-.25-1.63-.76-2.22c-.51-.58-1.17-.88-1.98-.88s-1.48.29-1.98.88ZM668.35,242.98v-15.15h1.76v15.15h-1.76Z"/>
            <path class="cls-16" d="M680.31,239.2v4.14h-1.81v-4.14h-6.29v-1.78h14.4v1.78h-6.29ZM673.19,235.65v-7.4h12.43v7.4h-12.43ZM674.96,229.96v3.96h8.88v-3.96h-8.88Z"/>
            <path class="cls-16" d="M693.39,234.82l4.58,6.06-1.4,1.1-3.75-5.05c-.51,1.55-1.18,2.77-1.99,3.65-.82.88-1.76,1.39-2.82,1.52v-1.87c.82-.16,1.52-.68,2.11-1.58.59-.89,1.05-2.08,1.38-3.55.33-1.47.51-3.14.53-5.01h-3.69v-1.72h9.05v1.72h-3.57c-.04,1.8-.18,3.38-.43,4.73ZM700.92,235.7v7.28h-1.78v-15.15h1.78v6.08h1.99v1.8h-1.99Z"/>
          </g>
        </g>
        <g>
          <rect class="cls-11" x="773.35" y="208.72" width="226.98" height="52.08" rx="15.56" ry="15.56"/>
          <g>
            <path class="cls-2" d="M854.57,235.49v-1.6c2.06-.01,3.67-.32,4.8-.93,1.14-.6,1.71-1.53,1.71-2.78v-.41h-6.51v-1.58h8.32v1.68c0,3.75-2.77,5.62-8.32,5.62ZM867.3,236.36v6.45h-12.13v-6.45h1.79v1.58h8.56v-1.58h1.78ZM865.52,239.45h-8.56v1.81h8.56v-1.81ZM867.3,232.53v3.18h-1.78v-7.87h1.78v2.92h1.99v1.78h-1.99Z"/>
            <path class="cls-2" d="M872.92,234.25c-.82.45-1.73.74-2.74.86v-1.6c1.13-.16,2.05-.57,2.75-1.24.7-.67,1.13-1.52,1.27-2.54h-3.85v-1.54h9.33v1.54h-3.67c-.04.47-.14.95-.32,1.44l4.44,2.37-.75,1.4-4.48-2.43c-.51.71-1.18,1.29-1.99,1.75ZM883.67,242.81h-12.62v-3.96h10.51v-1.34h-10.53v-1.42h12.31v3.98h-10.51v1.32h10.85v1.42ZM881.54,235.27v-7.44h1.79v7.44h-1.79Z"/>
            <path class="cls-2" d="M899.81,227.91v14.81h-1.64v-4.08h-2.25c-.22,1.24-.59,2.15-1.1,2.75-.51.6-1.17.9-1.97.9-1.1,0-1.93-.57-2.49-1.71-.55-1.14-.83-2.92-.83-5.36s.28-4.22.83-5.36c.55-1.14,1.38-1.71,2.49-1.71,1.51,0,2.5,1.04,2.98,3.12h2.35v-3.37h1.64ZM894.12,239.29c.28-.87.41-2.22.41-4.06s-.14-3.2-.41-4.06c-.28-.87-.7-1.3-1.28-1.3s-.98.44-1.25,1.31c-.27.87-.4,2.23-.4,4.05s.13,3.18.4,4.05c.27.87.69,1.31,1.25,1.31s1.01-.43,1.28-1.3ZM898.17,233h-2.09c.08.64.12,1.39.12,2.23,0,.59-.02,1.16-.06,1.7h2.03v-3.93ZM903.26,242.98h-1.68v-15.15h1.68v15.15Z"/>
            <path class="cls-2" d="M905.47,235.61v-7.52h1.74v2.11h4.97v-2.11h1.74v7.52h-8.44ZM916.57,237.65c1.13.49,1.7,1.27,1.7,2.32s-.57,1.82-1.7,2.31c-1.13.49-2.63.73-4.5.73s-3.37-.24-4.5-.73c-1.13-.49-1.7-1.26-1.7-2.31s.56-1.82,1.7-2.32c1.13-.49,2.63-.74,4.5-.74s3.37.25,4.5.74ZM912.17,231.72h-4.97v2.33h4.97v-2.33ZM915.17,241.1c.8-.26,1.2-.63,1.2-1.13s-.4-.89-1.19-1.14c-.8-.25-1.83-.37-3.11-.37s-2.33.12-3.13.37c-.8.25-1.19.63-1.19,1.14s.4.88,1.2,1.13c.8.26,1.84.38,3.12.38s2.29-.13,3.1-.38ZM920.06,232.77h-1.99v3.69h-1.78v-8.62h1.78v3.14h1.99v1.79Z"/>
          </g>
        </g>
      </g>
      <g>
        <g>
          <rect class="cls-12" x="4.72" y="311.57" width="226.98" height="52.08" rx="15.56" ry="15.56"/>
          <g>
            <path class="cls-2" d="M93.09,337.66l4.58,6.06-1.4,1.1-3.75-5.05c-.51,1.55-1.18,2.77-1.99,3.65-.82.88-1.76,1.39-2.82,1.52v-1.87c.81-.16,1.52-.68,2.11-1.58.59-.89,1.05-2.08,1.38-3.55.33-1.47.51-3.14.53-5.01h-3.69v-1.72h9.05v1.72h-3.57c-.04,1.8-.18,3.38-.43,4.73ZM100.63,338.55v7.28h-1.78v-15.15h1.78v6.08h1.99v1.8h-1.99Z"/>
            <path class="cls-2" d="M105.95,337.01c-.83.5-1.75.82-2.76.95v-1.66c.88-.16,1.64-.5,2.29-1.02.64-.52,1.14-1.17,1.49-1.94.35-.78.53-1.62.54-2.54l1.78.12c0,.99-.17,1.91-.51,2.78l4.46,2.62-.87,1.4-4.38-2.62c-.53.78-1.2,1.41-2.03,1.91ZM116.59,344.27v1.38h-12.45v-3.98h10.34v-1.36h-10.38v-1.38h12.15v3.98h-10.32v1.36h10.65ZM118.24,334.78h-1.99v3.33h-1.78v-7.44h1.78v2.39h1.99v1.72Z"/>
            <path class="cls-2" d="M129.23,330.76v14.81h-1.64v-4.08h-2.25c-.22,1.24-.59,2.15-1.1,2.75-.51.6-1.17.9-1.97.9-1.1,0-1.93-.57-2.49-1.71-.55-1.14-.83-2.92-.83-5.36s.28-4.22.83-5.36c.55-1.14,1.38-1.71,2.49-1.71,1.51,0,2.51,1.04,2.98,3.12h2.35v-3.37h1.64ZM123.55,342.14c.28-.87.41-2.22.41-4.06s-.14-3.2-.41-4.06c-.28-.87-.7-1.3-1.28-1.3s-.98.44-1.25,1.31-.4,2.23-.4,4.05.13,3.18.4,4.05.69,1.31,1.25,1.31,1.01-.43,1.28-1.3ZM127.59,335.85h-2.09c.08.64.12,1.39.12,2.23,0,.59-.02,1.16-.06,1.7h2.03v-3.93ZM132.68,345.83h-1.68v-15.15h1.68v15.15Z"/>
            <path class="cls-2" d="M134.89,338.45v-7.52h1.74v2.11h4.97v-2.11h1.74v7.52h-8.44ZM146,340.49c1.13.49,1.7,1.27,1.7,2.32s-.57,1.82-1.7,2.31c-1.13.49-2.63.73-4.5.73s-3.37-.24-4.5-.73-1.7-1.26-1.7-2.31.57-1.82,1.7-2.32,2.63-.74,4.5-.74,3.37.25,4.5.74ZM141.6,334.56h-4.97v2.33h4.97v-2.33ZM144.6,343.94c.8-.26,1.2-.63,1.2-1.13s-.4-.89-1.19-1.14c-.8-.25-1.83-.37-3.11-.37s-2.33.12-3.13.37c-.8.25-1.19.63-1.19,1.14s.4.88,1.2,1.13c.8.26,1.84.38,3.12.38s2.29-.13,3.1-.38ZM149.49,335.61h-1.99v3.69h-1.78v-8.62h1.78v3.14h1.99v1.79Z"/>
          </g>
        </g>
        <g>
          <rect class="cls-8" x="260.93" y="311.57" width="226.98" height="52.08" rx="15.56" ry="15.56"/>
          <g>
            <path class="cls-16" d="M309.31,331.38c.69.37,1.22.9,1.6,1.57.38.67.56,1.43.56,2.29s-.19,1.62-.56,2.29c-.37.67-.91,1.19-1.6,1.57-.69.38-1.5.56-2.42.56s-1.73-.19-2.42-.56c-.69-.37-1.22-.9-1.6-1.57-.37-.67-.56-1.43-.56-2.29s.19-1.62.56-2.29c.38-.67.91-1.19,1.6-1.57.69-.38,1.5-.56,2.42-.56s1.73.19,2.42.56ZM316.06,343.95v1.7h-12.49v-4.99h1.81v3.29h10.67ZM304.87,333.16c-.51.51-.76,1.2-.76,2.07s.25,1.56.76,2.07c.51.51,1.18.77,2.02.77s1.52-.26,2.03-.77c.51-.51.77-1.2.77-2.07s-.26-1.56-.77-2.07c-.51-.51-1.19-.77-2.03-.77s-1.52.26-2.02.77ZM313.91,341.92v-11.24h1.79v11.24h-1.79Z"/>
            <path class="cls-16" d="M317.82,338.25v-1.58h6.04c2.21,0,3.75-.19,4.62-.57v1.56c-.43.2-1.07.35-1.91.44-.84.1-1.79.15-2.84.15h-.22v3.18h-1.78v-3.18h-3.91ZM318.86,332.51v-1.56h8.11v4.81h-1.78v-3.25h-6.33ZM331.69,345.65h-12.64v-5.09h1.78v3.47h10.87v1.62ZM329.65,330.68h1.78v11.82h-1.78v-1.22h-4.3v-1.52h4.3v-9.07Z"/>
            <path class="cls-16" d="M339.96,337.14c-1.45.97-3.48,1.45-6.07,1.45v-1.62c2.02-.01,3.6-.35,4.73-1.02s1.7-1.63,1.7-2.91v-.43h-6.43v-1.58h8.25v1.68c0,1.99-.73,3.46-2.18,4.43ZM345.5,340.27c1.16.51,1.75,1.31,1.75,2.4s-.58,1.89-1.74,2.41c-1.16.51-2.68.77-4.58.77s-3.4-.26-4.56-.77c-1.16-.51-1.74-1.31-1.74-2.41s.58-1.89,1.74-2.4c1.16-.51,2.68-.76,4.56-.76s3.4.25,4.57.76ZM344.11,343.89c.83-.28,1.24-.68,1.24-1.22s-.41-.94-1.23-1.21c-.82-.27-1.88-.4-3.19-.4s-2.34.14-3.17.4c-.82.27-1.23.67-1.23,1.21s.41.95,1.24,1.22c.83.28,1.88.41,3.16.41s2.35-.14,3.18-.41ZM342.28,337.44v-1.64h3v-1.91h-2.45v-1.64h2.45v-1.58h1.78v8.36h-1.78v-1.6h-3Z"/>
            <path class="cls-16" d="M357.54,336.7c-.36.59-.88,1.04-1.55,1.36-.67.32-1.45.48-2.35.48s-1.68-.16-2.35-.48c-.67-.32-1.19-.78-1.56-1.36-.37-.58-.55-1.26-.55-2.02s.18-1.44.55-2.02c.37-.59.89-1.04,1.56-1.36.67-.32,1.45-.48,2.35-.48s1.68.16,2.35.48c.67.32,1.19.78,1.55,1.36.36.58.54,1.26.54,2.02s-.18,1.44-.54,2.02ZM361.1,340.28c1.13.51,1.7,1.31,1.7,2.39s-.57,1.88-1.7,2.4c-1.13.52-2.62.78-4.48.78s-3.35-.26-4.48-.78c-1.13-.52-1.7-1.32-1.7-2.4s.57-1.87,1.7-2.39c1.13-.51,2.62-.77,4.48-.77s3.35.26,4.48.77ZM351.7,336.38c.48.41,1.13.61,1.94.61s1.47-.2,1.95-.61.73-.97.73-1.7-.24-1.29-.73-1.7c-.49-.41-1.14-.61-1.95-.61s-1.46.2-1.94.61c-.48.41-.72.97-.72,1.7s.24,1.29.72,1.7ZM359.71,343.89c.8-.28,1.19-.68,1.19-1.22s-.4-.94-1.19-1.21c-.8-.27-1.82-.4-3.09-.4s-2.29.14-3.09.4c-.8.27-1.19.67-1.19,1.21s.4.95,1.19,1.22c.8.28,1.82.41,3.09.41s2.29-.14,3.09-.41ZM360.92,333.58h-2.35l-.1-1.62h2.45v-1.28h1.76v8.36h-1.76v-1.7h-2.45l.1-1.62h2.35v-2.15Z"/>
            <path class="cls-16" d="M366.19,342.55c-.34-1.34-.51-2.77-.51-4.3s.17-2.98.52-4.33c.35-1.35.84-2.52,1.47-3.52h1.52c-.67,1.16-1.16,2.38-1.48,3.67-.32,1.29-.47,2.68-.47,4.18s.16,2.87.47,4.16c.32,1.29.81,2.52,1.48,3.69h-1.52c-.64-1.03-1.14-2.21-1.48-3.55Z"/>
            <path class="cls-16" d="M380.65,345.16h-9.51v-13.81h9.25v1.58h-7.42v4.44h6.61v1.56h-6.61v4.64h7.67v1.6Z"/>
            <path class="cls-16" d="M384.07,344.83c-.91-.32-1.63-.75-2.16-1.27l.67-1.44c.51.47,1.16.86,1.93,1.16.78.3,1.58.45,2.41.45,1.08,0,1.89-.2,2.44-.61s.82-.94.82-1.6c0-.49-.15-.88-.45-1.19-.3-.31-.68-.55-1.12-.71-.45-.16-1.06-.35-1.83-.54-.97-.25-1.76-.5-2.36-.75-.6-.25-1.11-.63-1.54-1.14s-.64-1.2-.64-2.07c0-.72.18-1.38.55-1.98.37-.6.93-1.07,1.68-1.42.75-.35,1.67-.52,2.76-.52.79,0,1.56.11,2.3.33.74.22,1.38.52,1.92.92l-.59,1.48c-.57-.38-1.16-.67-1.79-.86-.62-.19-1.24-.29-1.84-.29-1.05,0-1.84.21-2.38.63s-.8.97-.8,1.64c0,.49.15.88.45,1.19.3.31.68.55,1.13.72.45.17,1.07.35,1.84.55.99.25,1.78.5,2.37.74.59.24,1.1.62,1.52,1.12.42.51.63,1.19.63,2.04,0,.72-.19,1.38-.56,1.97-.37.59-.94,1.06-1.71,1.41-.76.35-1.7.52-2.8.52-.99,0-1.94-.16-2.85-.48Z"/>
            <path class="cls-16" d="M405.01,338.19v5.35c-.64.58-1.4,1.02-2.26,1.32-.86.3-1.76.45-2.69.45-1.33,0-2.52-.31-3.58-.92-1.06-.61-1.89-1.45-2.5-2.52-.6-1.07-.91-2.28-.91-3.62s.3-2.55.91-3.63c.6-1.08,1.44-1.92,2.5-2.52,1.07-.6,2.27-.91,3.61-.91,1.04,0,1.99.18,2.86.53.87.35,1.6.87,2.19,1.56l-1.16,1.18c-1-1.08-2.27-1.62-3.81-1.62-1,0-1.9.23-2.7.7-.8.47-1.43,1.11-1.87,1.93s-.67,1.75-.67,2.77.22,1.95.67,2.76c.45.82,1.07,1.46,1.86,1.92.8.47,1.69.7,2.69.7,1.25,0,2.3-.33,3.16-1.01v-4.44h1.7Z"/>
            <path class="cls-16" d="M417.38,337.14c-1.45.97-3.48,1.45-6.07,1.45v-1.62c2.02-.01,3.6-.35,4.73-1.02s1.7-1.63,1.7-2.91v-.43h-6.43v-1.58h8.25v1.68c0,1.99-.73,3.46-2.18,4.43ZM422.93,340.27c1.16.51,1.75,1.31,1.75,2.4s-.58,1.89-1.74,2.41c-1.16.51-2.68.77-4.58.77s-3.4-.26-4.56-.77c-1.16-.51-1.74-1.31-1.74-2.41s.58-1.89,1.74-2.4c1.16-.51,2.68-.76,4.56-.76s3.4.25,4.57.76ZM421.54,343.89c.83-.28,1.24-.68,1.24-1.22s-.41-.94-1.23-1.21c-.82-.27-1.88-.4-3.19-.4s-2.34.14-3.17.4c-.82.27-1.23.67-1.23,1.21s.41.95,1.24,1.22c.83.28,1.88.41,3.16.41s2.35-.14,3.18-.41ZM419.7,337.44v-1.64h3v-1.91h-2.45v-1.64h2.45v-1.58h1.78v8.36h-1.78v-1.6h-3Z"/>
            <path class="cls-16" d="M434.96,336.7c-.36.59-.88,1.04-1.55,1.36-.67.32-1.45.48-2.35.48s-1.68-.16-2.35-.48c-.67-.32-1.19-.78-1.56-1.36-.37-.58-.55-1.26-.55-2.02s.18-1.44.55-2.02c.37-.59.89-1.04,1.56-1.36.67-.32,1.45-.48,2.35-.48s1.68.16,2.35.48c.67.32,1.19.78,1.55,1.36.36.58.54,1.26.54,2.02s-.18,1.44-.54,2.02ZM438.52,340.28c1.13.51,1.7,1.31,1.7,2.39s-.57,1.88-1.7,2.4c-1.13.52-2.62.78-4.48.78s-3.35-.26-4.48-.78c-1.13-.52-1.7-1.32-1.7-2.4s.57-1.87,1.7-2.39c1.13-.51,2.62-.77,4.48-.77s3.35.26,4.48.77ZM429.12,336.38c.48.41,1.13.61,1.94.61s1.47-.2,1.95-.61.73-.97.73-1.7-.24-1.29-.73-1.7c-.49-.41-1.14-.61-1.95-.61s-1.46.2-1.94.61c-.48.41-.72.97-.72,1.7s.24,1.29.72,1.7ZM437.13,343.89c.8-.28,1.19-.68,1.19-1.22s-.4-.94-1.19-1.21c-.8-.27-1.82-.4-3.09-.4s-2.29.14-3.09.4c-.8.27-1.19.67-1.19,1.21s.4.95,1.19,1.22c.8.28,1.82.41,3.09.41s2.29-.14,3.09-.41ZM438.34,333.58h-2.35l-.1-1.62h2.45v-1.28h1.76v8.36h-1.76v-1.7h-2.45l.1-1.62h2.35v-2.15Z"/>
            <path class="cls-16" d="M443.52,342.43c.31-1.29.46-2.68.46-4.18s-.15-2.89-.46-4.18c-.31-1.29-.8-2.51-1.47-3.67h1.5c.64,1,1.14,2.17,1.48,3.52.34,1.35.51,2.79.51,4.33s-.17,2.96-.51,4.3-.83,2.52-1.48,3.55h-1.5c.67-1.16,1.16-2.38,1.47-3.67Z"/>
          </g>
        </g>
        <g>
          <rect class="cls-13" x="517.14" y="311.57" width="226.98" height="52.08" rx="15.56" ry="15.56"/>
          <g>
            <path class="cls-2" d="M603.02,337.82c-.82.51-1.74.83-2.78.95v-1.68c1.14-.16,2.07-.63,2.77-1.43.7-.8,1.11-1.8,1.21-3.03h-3.81v-1.6h9.19v1.6h-3.59c-.04.64-.15,1.21-.32,1.7l4.4,2.9-.89,1.4-4.2-2.84c-.51.84-1.18,1.52-1.99,2.03ZM611.96,340.4c1.14.5,1.72,1.28,1.72,2.35s-.57,1.85-1.72,2.35-2.66.75-4.56.75-3.39-.25-4.53-.75c-1.14-.5-1.71-1.28-1.71-2.35s.57-1.85,1.71-2.35c1.14-.5,2.65-.75,4.53-.75s3.41.25,4.56.75ZM610.56,343.92c.81-.27,1.22-.66,1.22-1.17s-.41-.9-1.22-1.17c-.82-.27-1.87-.4-3.16-.4s-2.33.13-3.14.4c-.8.27-1.2.66-1.2,1.17s.4.9,1.2,1.17c.8.27,1.85.4,3.14.4s2.34-.13,3.16-.4ZM611.78,330.68h1.78v8.5h-1.78v-4.08h-2.72v-1.62h2.72v-2.8Z"/>
            <path class="cls-2" d="M629.97,345.12h-14.4v-1.76h6.29v-3.31h-5.35v-8.94h1.76v2.64h9v-2.64h1.76v8.94h-5.37v3.31h6.31v1.76ZM627.27,338.37v-2.94h-9v2.94h9Z"/>
            <path class="cls-2" d="M645.59,345.12h-14.4v-1.76h6.29v-3.31h-5.35v-8.94h1.76v2.64h9v-2.64h1.76v8.94h-5.37v3.31h6.31v1.76ZM642.89,338.37v-2.94h-9v2.94h9Z"/>
            <path class="cls-2" d="M655.26,337.52c-.37.67-.89,1.19-1.58,1.57-.68.38-1.48.56-2.39.56s-1.7-.19-2.39-.56c-.68-.37-1.21-.9-1.58-1.57-.37-.67-.55-1.43-.55-2.29s.18-1.62.55-2.29c.37-.67.89-1.19,1.58-1.57.68-.38,1.48-.56,2.39-.56s1.7.19,2.39.56c.68.37,1.21.9,1.58,1.57.37.67.55,1.43.55,2.29s-.18,1.62-.55,2.29ZM660.29,343.95v1.7h-12.33v-4.99h1.8v3.29h10.53ZM649.31,337.3c.49.51,1.15.77,1.98.77s1.49-.26,1.99-.77c.5-.51.75-1.2.75-2.07s-.25-1.56-.75-2.07c-.5-.51-1.16-.77-1.99-.77s-1.49.26-1.98.77c-.49.51-.74,1.2-.74,2.07s.25,1.56.74,2.07ZM661.9,336.02h-1.99v5.9h-1.78v-11.24h1.78v3.55h1.99v1.8Z"/>
          </g>
        </g>
        <g>
          <rect class="cls-1" x="773.35" y="311.57" width="226.98" height="52.08" rx="15.56" ry="15.56"/>
          <g>
            <path class="cls-16" d="M864.54,331.21v3.69c0,2.01-.32,3.77-.95,5.28-.63,1.51-1.54,2.67-2.72,3.49s-2.58,1.23-4.2,1.23v-1.78c1.28,0,2.37-.33,3.28-1s1.61-1.61,2.08-2.84c.47-1.23.71-2.68.71-4.35v-2.03h-6.08v-1.7h7.87ZM869.25,338.55v7.28h-1.78v-15.15h1.78v6.08h1.99v1.8h-1.99Z"/>
            <path class="cls-16" d="M874.85,337.82c-.82.51-1.74.83-2.78.95v-1.68c1.14-.16,2.07-.63,2.77-1.43.7-.8,1.11-1.8,1.21-3.03h-3.81v-1.6h9.19v1.6h-3.59c-.04.64-.15,1.21-.32,1.7l4.4,2.9-.89,1.4-4.2-2.84c-.51.84-1.18,1.52-1.99,2.03ZM883.79,340.4c1.14.5,1.72,1.28,1.72,2.35s-.57,1.85-1.72,2.35-2.66.75-4.56.75-3.39-.25-4.53-.75c-1.14-.5-1.71-1.28-1.71-2.35s.57-1.85,1.71-2.35c1.14-.5,2.65-.75,4.53-.75s3.41.25,4.56.75ZM882.39,343.92c.81-.27,1.22-.66,1.22-1.17s-.41-.9-1.22-1.17c-.82-.27-1.87-.4-3.16-.4s-2.33.13-3.14.4c-.8.27-1.2.66-1.2,1.17s.4.9,1.2,1.17c.8.27,1.85.4,3.14.4s2.34-.13,3.16-.4ZM883.61,330.68h1.78v8.5h-1.78v-4.08h-2.72v-1.62h2.72v-2.8Z"/>
            <path class="cls-16" d="M901.8,339.97h-14.4v-1.52h6.31v-1.58h-5.48v-1.48h2.51v-3.08h-2.35v-1.48h12.45v1.48h-2.37v3.08h2.51v1.48h-5.48v1.58h6.31v1.52ZM900.81,341.39v4.46h-1.79v-2.94h-10.75v-1.52h12.55ZM896.69,335.39v-3.08h-4.16v3.08h4.16Z"/>
            <path class="cls-16" d="M909.57,332.51h-6v-1.48h7.75v4.95h-5.96v2.05h3.22c.93,0,1.8-.05,2.59-.14.8-.09,1.4-.22,1.82-.37v1.42c-.41.18-1.02.33-1.82.43-.81.11-1.71.16-2.71.16h-4.85v-4.97h5.96v-2.05ZM916.63,340.95v4.89h-1.81v-3.31h-10.63v-1.58h12.45ZM916.63,340.15h-1.76v-2.92h-2.56v-1.6h2.56v-1.62h-2.56v-1.6h2.56v-1.74h1.76v9.47Z"/>
          </g>
        </g>
      </g>
    </g>
  </g>
</svg>