<?xml version="1.0" encoding="UTF-8"?>
<svg id="_레이어_2" data-name="레이어_2" xmlns="http://www.w3.org/2000/svg" xmlns:xlink="http://www.w3.org/1999/xlink" viewBox="0 0 1019.48 230.4">
  <defs>
    <style>
      .cls-1 {
        fill: #1fa69c;
      }

      .cls-2 {
        fill: #43a8a0;
      }

      .cls-3 {
        fill: #333;
      }

      .cls-4 {
        fill: #fff;
      }

      .cls-5 {
        filter: url(#drop-shadow-1);
      }

      .cls-6 {
        fill: #138981;
      }
    </style>
    <filter id="drop-shadow-1" x="437.28" y="6.23" width="145.92" height="38.88" filterUnits="userSpaceOnUse">
      <feOffset dx="0" dy="2"/>
      <feGaussianBlur result="blur" stdDeviation="2"/>
      <feFlood flood-color="#00433c" flood-opacity=".3"/>
      <feComposite in2="blur" operator="in"/>
      <feComposite in="SourceGraphic"/>
    </filter>
  </defs>
  <g id="_레이어_1-2" data-name="레이어_1">
    <g>
      <rect class="cls-1" x="380.39" y="0" width="258.69" height="48.75" rx="24.38" ry="24.38"/>
      <g class="cls-5">
        <path class="cls-4" d="M457.5,30.74v6.33h-3.63v-6.33h-10.4v-3.5h24.43v3.5h-10.4ZM450.4,23.91c-1.84.73-3.89,1.16-6.13,1.27v-3.47c2.24-.16,4.2-.72,5.85-1.68,1.66-.97,2.78-2.19,3.38-3.68h-8.67v-3.47h8.97v-2.63h3.7v2.63h9.03v3.47h-8.93c-.11.53-.3,1.12-.57,1.77l10.2,3.67-1.13,3.27-11.17-4.1c-1.18,1.24-2.69,2.23-4.53,2.97Z"/>
        <path class="cls-4" d="M484.51,25.48c-1.37.84-2.88,1.33-4.55,1.47v-3.33c1.75-.24,3.18-1,4.28-2.27s1.77-2.87,2.02-4.8h-6.07v-3.2h6.03v-2.93h3.67v2.93h5.97v3.2h-5.97c-.11,1.02-.27,1.9-.47,2.63l6.97,4.8-1.8,2.83-6.7-4.67c-.89,1.38-2.02,2.49-3.38,3.33ZM503.13,36.28h-21.57v-7.5h3.67v4.13h17.9v3.37ZM499.1,10.88h3.6v19.07h-3.6v-9.1h-4.1v-3.5h4.1v-6.47Z"/>
        <path class="cls-4" d="M515,15.64v-2.8h4.8v-2.37h3.6v2.37h4.6v2.8h-13ZM525.83,24.94c-1.11.87-2.5,1.3-4.17,1.3s-3.09-.43-4.2-1.3c-1.11-.87-1.67-2.02-1.67-3.47s.55-2.59,1.67-3.45c1.11-.85,2.51-1.28,4.2-1.28s3.05.43,4.17,1.28c1.11.86,1.67,2.01,1.67,3.45s-.56,2.6-1.67,3.47ZM536.41,28.18c2.01.76,3.02,1.97,3.02,3.63s-1,2.91-3.02,3.67c-2.01.76-4.71,1.13-8.08,1.13s-6.07-.38-8.08-1.13-3.02-1.98-3.02-3.67,1.01-2.88,3.02-3.63,4.71-1.13,8.08-1.13,6.07.38,8.08,1.13ZM519.73,22.96c.49.39,1.13.58,1.93.58s1.41-.19,1.9-.58c.49-.39.73-.88.73-1.48s-.24-1.09-.73-1.47c-.49-.38-1.12-.57-1.9-.57s-1.45.19-1.93.57c-.49.38-.73.87-.73,1.47s.24,1.09.73,1.48ZM533.58,33.23c1.37-.32,2.05-.79,2.05-1.42s-.68-1.09-2.05-1.42c-1.37-.32-3.12-.48-5.25-.48s-3.89.16-5.27.48c-1.38.32-2.07.79-2.07,1.42s.69,1.09,2.07,1.42c1.38.32,3.13.48,5.27.48s3.88-.16,5.25-.48ZM529.43,25.81v-14.8h3.33v5.53h3.1v-5.67h3.33v15.83h-3.33v-6.77h-3.1v5.87h-3.33Z"/>
        <path class="cls-4" d="M561.4,22.14l7.43,10.7-2.93,2.2-5.77-8.5c-.93,2.64-2.12,4.71-3.57,6.18-1.44,1.48-3.1,2.26-4.97,2.35v-3.87c1.44-.22,2.7-1.22,3.77-2.98s1.88-4.1,2.43-7.02c.55-2.91.84-6.17.87-9.77l3.67.13c0,3.87-.31,7.39-.93,10.57ZM573.83,24.51v11.97h-3.6V10.88h3.6v9.97h3.2v3.67h-3.2Z"/>
      </g>
      <g>
        <rect class="cls-6" x="99.67" y="141.77" width="15.43" height="2.96" rx="1.08" ry="1.08"/>
        <path class="cls-6" d="M128.26,126.67h-38.03c-.61,0-1.08.5-1.08,1.11,0,.02,0,.03,0,.05v.72c0,.6.48,1.08,1.08,1.08h38.03c.6,0,1.08-.48,1.08-1.08v-.8c0-.6-.48-1.08-1.08-1.08Z"/>
        <path class="cls-6" d="M64.9,120.6c7.48,0,13.53-6.15,13.53-13.7s-6.05-13.66-13.53-13.66-13.57,6.11-13.57,13.66,6.09,13.7,13.57,13.7Z"/>
        <path class="cls-6" d="M128.26,119.12h-40.47c-.89,0-1.38,1-.87,1.72.16.22.31.44.45.67.2.32.55.53.93.53h39.96c.6,0,1.08-.48,1.08-1.08v-.76c0-.6-.48-1.08-1.08-1.08Z"/>
        <path class="cls-6" d="M128.26,134.22h-27.58c-.65,0-1.18.58-1.07,1.23.04.21.06.43.06.65h0c0,.6.48,1.08,1.08,1.08h27.51c.6,0,1.08-.48,1.08-1.08v-.8c0-.6-.48-1.08-1.08-1.08Z"/>
        <path class="cls-6" d="M128.26,111.53h-48.6c-.44,0-.84.27-1,.68-.1.26-.2.51-.31.76-.32.72.2,1.52.98,1.52h48.93c.6,0,1.08-.48,1.08-1.08v-.8c0-.6-.48-1.08-1.08-1.08Z"/>
        <path class="cls-6" d="M79.17,103.21c.14.58.25,1.18.32,1.78.07.54.52.94,1.07.94h52.76c.6,0,1.08.48,1.08,1.08v41.59c0,.6-.48,1.08-1.08,1.08h-37.16c-.55,0-1.01.41-1.07.95l-.22,1.92c-.07.64.43,1.2,1.07,1.2h41.38c.6,0,1.08-.48,1.08-1.08v-49.7c0-.6-.48-1.08-1.08-1.08h-57.09c-.69,0-1.22.64-1.05,1.31Z"/>
        <path class="cls-6" d="M41.97,194.31h45.82c.55,0,1.01-.41,1.07-.95l5.12-43.39c.08-.64-.43-1.21-1.07-1.21h-56.04c-.65,0-1.15.56-1.07,1.2l5.09,43.39c.06.54.52.95,1.07.95Z"/>
        <path class="cls-6" d="M98.48,145.25v-9.15c0-1.28-1.03-2.36-2.29-2.36h-62.58c-1.27,0-2.33,1.08-2.33,2.36v9.15c0,1.28,1.07,2.32,2.33,2.32h62.58c1.27,0,2.29-1.04,2.29-2.32Z"/>
        <path class="cls-6" d="M87.96,127.83c0-5.95-4.83-10.83-10.72-10.83h-1.09c-.29,0-.57.12-.77.33-2.67,2.73-6.38,4.46-10.48,4.46s-7.85-1.74-10.52-4.46c-.2-.21-.48-.33-.77-.33h-1.05c-5.89,0-10.72,4.87-10.72,10.83v3.64c0,.6.48,1.08,1.08,1.08h43.96c.6,0,1.08-.48,1.08-1.08v-3.64Z"/>
      </g>
      <g>
        <path class="cls-6" d="M300.7,159.44c0,7.66,6.17,13.89,13.8,13.89s13.75-6.23,13.75-13.89-6.17-13.94-13.75-13.94-13.8,6.23-13.8,13.94Z"/>
        <path class="cls-6" d="M277.04,143.97c8.44,0,15.27,6.94,15.27,15.47,0,3.11-.91,6.03-2.48,8.48,2.73.15,5.31,1.28,7.38,3.11l.05.05c1.36-1.23,2.98-2.14,4.75-2.71-1.77-2.5-2.83-5.62-2.83-8.94,0-8.53,6.88-15.47,15.32-15.47,1.77,0,3.44.31,5.06.87,11.58-10.06,13.19-28.9,13.19-28.95.3-3.22-2.07-6.08-5.26-6.38-3.19-.31-6.02,2.09-6.32,5.31,0,.05-1.82,21.45-15.72,24.2h-.86c-2.12,1.33-4.65,2.09-7.33,2.09s-5.16-.77-7.28-2.09h-.91c-13.9-2.76-15.72-24.15-15.72-24.2-.25-3.22-3.08-5.62-6.27-5.31-3.24.31-5.56,3.17-5.31,6.38.05.05,1.57,18.13,12.54,28.34.91-.15,1.82-.26,2.73-.26Z"/>
        <path class="cls-6" d="M297.26,139.52c7.63,0,13.8-6.28,13.8-13.94s-6.17-13.94-13.8-13.94-13.75,6.23-13.75,13.94,6.17,13.94,13.75,13.94Z"/>
        <path class="cls-6" d="M277.04,145.5c-7.63,0-13.8,6.23-13.8,13.94s6.17,13.89,13.8,13.89,13.75-6.23,13.75-13.89-6.17-13.94-13.75-13.94Z"/>
        <path class="cls-6" d="M351.91,173.33c7.63,0,13.8-6.23,13.8-13.89s-6.17-13.94-13.8-13.94-13.75,6.23-13.75,13.94,6.17,13.89,13.75,13.89Z"/>
        <path class="cls-6" d="M239.58,173.33c7.63,0,13.8-6.23,13.8-13.89s-6.17-13.94-13.8-13.94-13.75,6.23-13.75,13.94,6.17,13.89,13.75,13.89Z"/>
        <path class="cls-6" d="M326.48,169.4h-.35c-2.78,3.37-6.98,5.46-11.63,5.46s-8.65-1.99-11.43-5.16c-4.8,1.12-8.44,5.51-8.44,10.67v14.6h35.95v-14.6c0-3.11,1.16-6.03,3.08-8.22-1.92-1.68-4.45-2.76-7.18-2.76Z"/>
        <path class="cls-6" d="M251.56,169.4h-.3c-2.78,3.37-6.98,5.46-11.68,5.46s-8.59-1.99-11.43-5.16c-4.8,1.12-8.39,5.51-8.39,10.67v14.6h35.89v-14.6c0-3.11,1.16-6.03,3.08-8.22-1.92-1.68-4.45-2.76-7.18-2.76Z"/>
        <path class="cls-6" d="M363.89,169.4h-.3c-2.78,3.37-6.98,5.46-11.68,5.46s-8.59-1.99-11.43-5.16c-4.8,1.12-8.39,5.51-8.39,10.67v14.6h42.72v-14.6c0-6.03-4.9-10.98-10.92-10.98Z"/>
        <path class="cls-6" d="M289.02,169.4h-.3c-2.83,3.37-7.03,5.46-11.68,5.46s-8.65-1.99-11.43-5.16c-4.8,1.12-8.44,5.51-8.44,10.67v14.6h35.94v-14.6c0-3.11,1.16-6.03,3.08-8.22-1.92-1.68-4.45-2.76-7.18-2.76Z"/>
      </g>
      <g>
        <path class="cls-6" d="M563.32,143.91c9.24,0,16.78-7.56,16.78-16.89s-7.54-16.89-16.78-16.89-16.72,7.56-16.72,16.89,7.48,16.89,16.72,16.89Z"/>
        <path class="cls-6" d="M456.1,143.91c9.24,0,16.72-7.56,16.72-16.89s-7.48-16.89-16.72-16.89-16.72,7.56-16.72,16.89,7.48,16.89,16.72,16.89Z"/>
        <path class="cls-6" d="M525.98,191.42l27.09-2.81c2.95-.23,5.67-2.18,6.8-5.21l9.8-26.05c-3.17,10.13-5.1,17.69-8.73,27.71-1.93,5.44-7.42,5.38-11.79,5.9v3.15h35.59v-36.75c0-6.93-3.91-12.99-9.69-15.97-3.17,2.63-7.25,4.24-11.73,4.24-2.83,0-5.55-.63-7.99-1.83-3.8,3.32-6.18,8.19-6.18,13.57v8.82l-2.49,6.7-22.73,5.67c-10.54.92-8.56,13.8,2.04,12.88Z"/>
        <path class="cls-6" d="M470.26,190.96c-4.31-.52-9.86-.46-11.79-5.9-3.57-10.02-5.55-17.57-8.73-27.71l9.8,26.05c1.13,3.03,3.85,4.98,6.8,5.21l27.15,2.81c10.54.92,12.58-11.96,1.98-12.88l-22.73-5.67-2.49-6.7v-8.82c0-5.38-2.38-10.25-6.18-13.57-2.38,1.2-5.1,1.83-7.99,1.83-4.48,0-8.56-1.6-11.73-4.24-5.72,2.98-9.69,9.04-9.69,15.97v36.75h35.59v-3.15Z"/>
      </g>
      <g>
        <path class="cls-6" d="M693.97,102.72c-3.35,0-6.12,2.76-6.12,6.18v31.67h12.21v-31.67c0-3.42-2.74-6.18-6.09-6.18Z"/>
        <path class="cls-6" d="M724.91,173.99c-1.5-.39-2.96,1.32-4.66.33-.91-.53-1.11-1.41-1.27-2.27l-5.41,20.36,6.51-2.04,4.62,5.03,3.58-13.45-1.79-6.68c-.46-.56-.91-1.09-1.6-1.28Z"/>
        <path class="cls-6" d="M714.88,167.51c.65,1.18,2.67.49,4.04,1.87s.68,3.42,1.82,4.08c1.17.69,2.57-.92,4.43-.43,1.86.53,2.28,2.6,3.61,2.6s1.76-2.07,3.61-2.6c1.89-.49,3.29,1.12,4.43.43,1.17-.66.49-2.7,1.86-4.08s3.35-.69,4.04-1.87c.65-1.15-.91-2.57-.42-4.44.49-1.91,2.57-2.3,2.57-3.65s-2.08-1.78-2.57-3.68c-.49-1.87,1.07-3.29.42-4.44-.68-1.18-2.67-.49-4.04-1.87-1.37-1.38-.68-3.42-1.86-4.08-1.14-.69-2.54.92-4.43.43-1.86-.53-2.28-2.6-3.61-2.6s-1.76,2.07-3.61,2.6c-1.86.49-3.26-1.12-4.43-.43-1.14.66-.46,2.7-1.82,4.08-1.37,1.38-3.39.69-4.04,1.87-.68,1.15.91,2.57.39,4.44-.49,1.91-2.57,2.34-2.57,3.68s2.08,1.74,2.57,3.65c.52,1.87-1.07,3.29-.39,4.44ZM728.78,148.2c6.12,0,11.1,5,11.1,11.22s-4.98,11.18-11.1,11.18-11.07-5-11.07-11.18,4.95-11.22,11.07-11.22Z"/>
        <path class="cls-6" d="M737.32,174.32c-1.66.99-3.13-.72-4.66-.33-1.53.43-1.92,2.63-3.88,2.63-.36,0-.68-.07-.94-.2l5.05,18.98,4.62-5.03,6.48,2.04-5.37-20.36c-.2.86-.39,1.74-1.3,2.27Z"/>
        <path class="cls-6" d="M750.41,102.12h-55.46c3.35,0,6.09,2.8,6.09,6.18v64.3h16.77l.62-2.27c-.07-.1-.13-.16-.23-.26-1.11-1.12-3.22-.36-4.17-2.07-.98-1.68.72-3.16.29-4.7-.39-1.51-2.61-1.94-2.61-3.88s2.21-2.4,2.61-3.91c.42-1.55-1.27-3.03-.29-4.7.94-1.71,3.06-.95,4.17-2.07,1.14-1.15.39-3.26,2.05-4.24,1.69-.99,3.16.72,4.66.33,1.53-.43,1.95-2.63,3.88-2.63s2.34,2.2,3.88,2.63c1.53.39,3-1.32,4.66-.33,1.69.99.94,3.09,2.05,4.24,1.11,1.12,3.22.36,4.2,2.07.98,1.68-.72,3.16-.33,4.7.42,1.51,2.61,1.94,2.61,3.91s-2.18,2.37-2.61,3.88c-.39,1.55,1.3,3.03.33,4.7-.98,1.71-3.09.95-4.2,2.07-.07.1-.13.16-.2.26l.59,2.27h16.77v-64.3c0-3.39-2.74-6.18-6.12-6.18ZM737.8,136.36c0,.49-.42.95-.94.95h-30.25c-.52,0-.94-.46-.94-.95v-.03c0-.49.42-.95.94-.95h30.25c.52,0,.94.46.94.95v.03ZM750.96,131.33h-44.35c-.52,0-.94-.43-.94-.95s.42-.95.94-.95h44.35c.52,0,.94.43.94.95s-.42.95-.94.95ZM750.96,125.38h-44.35c-.52,0-.94-.43-.94-.95s.42-.95.94-.95h44.35c.52,0,.94.43.94.95s-.42.95-.94.95ZM750.96,119.39h-44.35c-.52,0-.94-.43-.94-.95s.42-.95.94-.95h44.35c.52,0,.94.43.94.95s-.42.95-.94.95ZM750.96,113.44h-44.35c-.52,0-.94-.43-.94-.95s.42-.95.94-.95h44.35c.52,0,.94.43.94.95s-.42.95-.94.95Z"/>
      </g>
      <g>
        <polygon class="cls-6" points="971.92 189.78 958.66 191.15 971.92 191.15 971.92 189.78"/>
        <polygon class="cls-6" points="910.61 191.15 897.31 189.78 897.31 191.15 910.61 191.15"/>
        <path class="cls-6" d="M913.82,116.63c6.14,0,11.07-5.04,11.07-11.18s-4.93-11.12-11.07-11.12-11.01,4.98-11.01,11.12,4.93,11.18,11.01,11.18Z"/>
        <path class="cls-6" d="M953.23,164.37c6.08,0,11.01-4.98,11.01-11.12s-4.93-11.12-11.01-11.12-11.01,4.98-11.01,11.12,4.93,11.12,11.01,11.12Z"/>
        <path class="cls-6" d="M933.55,119.53c-6.08,0-11.07,4.98-11.07,11.12s4.99,11.12,11.07,11.12,11.01-4.98,11.01-11.12-4.93-11.12-11.01-11.12Z"/>
        <path class="cls-6" d="M913.82,142.12c-6.08,0-11.01,4.98-11.01,11.12s4.93,11.12,11.01,11.12,11.07-4.98,11.07-11.12-4.93-11.12-11.07-11.12Z"/>
        <path class="cls-6" d="M906.94,130.65c0,1.97-.46,3.88-1.26,5.5,2.87.46,5.28,2.03,6.88,4.29.4-.06.86-.06,1.26-.06.46,0,.92,0,1.32.06,1.61-2.26,4.02-3.82,6.88-4.29-.8-1.62-1.26-3.53-1.26-5.5,0-6.49,4.82-11.88,11.01-12.75-1.26-2.95-4.07-5.04-7.34-5.27-2.29,3.42-6.19,5.74-10.61,5.74s-8.26-2.32-10.55-5.74c-2.14.15-4.08,1.11-5.52,2.58.59,1.16,1.06,2.38,1.41,3.66,4.55,1.97,7.78,6.49,7.78,11.78Z"/>
        <path class="cls-6" d="M977.81,140.36c-5.11-3.56-8.47-9.5-8.47-16.22,0-1.4.15-2.77.43-4.09-4.54,1.37-7.88,5.58-7.88,10.61,0,6.14,4.93,11.12,11.01,11.12,1.6,0,3.11-.36,4.48-.98.14-.15.29-.29.43-.43Z"/>
        <path class="cls-6" d="M963.78,112.63c-2.29,3.42-6.14,5.74-10.55,5.74s-8.32-2.32-10.61-5.74c-3.27.23-6.08,2.32-7.28,5.27,6.19.87,10.96,6.26,10.96,12.75,0,1.97-.46,3.88-1.26,5.5,2.87.46,5.33,2.03,6.88,4.29.46-.06.86-.06,1.32-.06.4,0,.86,0,1.26.06,1.61-2.26,4.07-3.82,6.88-4.29-.75-1.62-1.2-3.53-1.2-5.5,0-6.19,4.34-11.32,10.11-12.55.12-.37.26-.73.4-1.1-1.37-2.47-3.92-4.17-6.9-4.37Z"/>
        <path class="cls-6" d="M953.23,116.63c6.08,0,11.01-5.04,11.01-11.18s-4.93-11.12-11.01-11.12-11.01,4.98-11.01,11.12,4.93,11.18,11.01,11.18Z"/>
        <path class="cls-6" d="M971.92,154.84c0-4.18,1.29-8.21,3.58-11.62-.84.18-1.71.29-2.6.29-4.42,0-8.32-2.26-10.61-5.68-2.29.12-4.42,1.27-5.85,2.95,5.45,1.45,9.52,6.49,9.52,12.46,0,1.97-.46,3.82-1.2,5.5,2.95.46,5.52,2.23,7.1,4.7l.06-.16v-8.45Z"/>
        <path class="cls-6" d="M933.55,143.51c-4.42,0-8.32-2.26-10.61-5.68-2.35.12-4.42,1.27-5.91,2.95,5.51,1.45,9.58,6.49,9.58,12.46,0,1.97-.46,3.82-1.26,5.5,3.79.58,6.94,3.24,8.2,6.78,1.26-3.53,4.36-6.2,8.15-6.78-.8-1.68-1.2-3.53-1.2-5.5,0-5.97,4.02-11.01,9.52-12.46-1.43-1.68-3.56-2.84-5.91-2.95-2.29,3.42-6.14,5.68-10.55,5.68Z"/>
        <path class="cls-6" d="M891.41,140.36c.39.4.75.82,1.11,1.25.54.08,1.07.17,1.63.17,6.08,0,11.07-4.98,11.07-11.12,0-4.12-2.27-7.68-5.59-9.6.16,1.01.26,2.03.26,3.09,0,6.72-3.36,12.67-8.47,16.22Z"/>
        <path class="cls-6" d="M920.66,173.69c5.4.54,8.24,3.7,9.01,7.02h2.74v-11.7c0-4.58-3.56-8.28-7.97-8.57-2.29,3.42-6.19,5.68-10.61,5.68s-8.26-2.26-10.55-5.68c-2.36.15-4.45,1.3-5.9,3.01l1.82,4.89,21.47,5.35Z"/>
        <path class="cls-6" d="M948.57,173.69l21.47-5.35,1.01-2.72c-1.23-2.9-3.98-4.97-7.27-5.18-2.29,3.42-6.14,5.68-10.55,5.68s-8.32-2.26-10.61-5.68c-4.42.29-7.97,4-7.97,8.57v11.7h4.94c.77-3.32,3.6-6.48,8.98-7.02Z"/>
        <path class="cls-6" d="M897.31,161.03c1.42-1.18,3.15-1.99,5.04-2.28-.8-1.68-1.26-3.53-1.26-5.5,0-5.97,4.07-11.01,9.58-12.46-1.49-1.68-3.56-2.84-5.91-2.95-2.29,3.42-6.19,5.68-10.61,5.68-.08,0-.16-.01-.24-.02,2.18,3.35,3.4,7.27,3.4,11.34v6.19Z"/>
        <path class="cls-6" d="M951.07,189.31l27.42-2.84c2.98-.23,5.74-2.2,6.88-5.27l9.92-26.36c-3.21,10.25-5.16,17.9-8.83,28.04-1.95,5.5-7.51,5.45-11.93,5.97v2.31h36.02v-36.31c0-7.01-3.96-13.15-9.81-16.16-3.21,2.66-7.34,4.29-11.87,4.29-2.87,0-5.62-.64-8.09-1.85-3.84,3.36-6.25,8.28-6.25,13.73v8.92l-2.52,6.78-23,5.74c-10.67.93-8.66,13.96,2.07,13.04Z"/>
        <path class="cls-6" d="M894.69,188.85c-4.36-.52-9.98-.46-11.93-5.97-3.61-10.14-5.62-17.79-8.83-28.04l9.92,26.36c1.15,3.07,3.9,5.04,6.88,5.27l27.47,2.84c10.67.93,12.73-12.11,2.01-13.04l-23-5.74-2.52-6.78v-8.92c0-5.45-2.41-10.37-6.25-13.73-2.41,1.22-5.16,1.85-8.09,1.85-4.53,0-8.66-1.62-11.87-4.29-5.79,3.01-9.81,9.15-9.81,16.16v36.31h36.02v-2.31Z"/>
        <ellipse class="cls-6" cx="880.35" cy="124.13" rx="16.92" ry="17.09"/>
        <path class="cls-6" d="M988.87,141.22c9.35,0,16.98-7.65,16.98-17.09s-7.63-17.09-16.98-17.09-16.92,7.65-16.92,17.09,7.57,17.09,16.92,17.09Z"/>
      </g>
      <g>
        <g>
          <path class="cls-3" d="M26.22,224.6h-.25v3.87h-1.8v-3.87h-3.2v-1.67h5.27c1.71,0,2.93-.16,3.67-.48v1.67c-.77.32-1.99.48-3.68.48ZM23.35,221.7c-.56-.26-.99-.62-1.3-1.09-.31-.47-.47-1.01-.47-1.62s.16-1.17.47-1.64c.31-.47.74-.84,1.3-1.09.56-.26,1.19-.38,1.9-.38s1.34.13,1.9.38c.56.26.99.62,1.3,1.09.31.47.47,1.02.47,1.64s-.16,1.15-.47,1.62c-.31.47-.75.84-1.3,1.09-.56.26-1.19.38-1.9.38s-1.34-.13-1.9-.38ZM23.84,217.82c-.36.29-.54.68-.54,1.16s.18.84.54,1.13c.36.29.83.43,1.41.43s1.04-.14,1.4-.43.53-.67.53-1.13-.18-.86-.53-1.16c-.36-.29-.82-.44-1.4-.44s-1.05.15-1.41.44ZM32.6,228.47h-1.82v-1.23h-3.45v-1.63h3.45v-9.93h1.82v12.8Z"/>
          <path class="cls-3" d="M46.39,227.92h-12.22v-1.77h12.22v1.77ZM34.92,222.45v-1.77h8.85v-2.85h-8.85v-1.77h10.67v9.03h-1.82v-2.65h-8.85Z"/>
          <path class="cls-3" d="M59.59,222.73h-12.22v-1.47h3.13v-1.35h1.78v1.35h2.38v-1.35h1.78v1.35h3.13v1.47ZM50.83,219.72c-1.03.37-2.04.56-3.04.58v-1.55c.79-.03,1.56-.19,2.33-.48.76-.28,1.41-.68,1.94-1.19.53-.51.87-1.09,1-1.75l1.82.33c-.08.41-.24.84-.48,1.28l4.92,1.93-.62,1.43-5.27-2.15c-.7.67-1.56,1.18-2.59,1.55ZM58.8,223.48v4.88h-10.63v-4.88h1.78v1h7.08v-1h1.77ZM57.04,225.87h-7.08v1.1h7.08v-1.1Z"/>
          <path class="cls-3" d="M64.37,221.7v-5.78h7.37v5.78h-7.37ZM67.66,227.96c-.93.27-1.91.41-2.96.41v-1.57c1.02,0,1.96-.17,2.8-.5.84-.33,1.41-.79,1.7-1.37h-4.38v-1.53h4.42v-1.12h1.83v1.12h4.43v1.53h-4.35c-.03.17-.09.36-.18.57l4.88,1.5-.5,1.53-5.4-1.78c-.6.53-1.36.94-2.29,1.21ZM66.17,217.47v2.67h3.78v-2.67h-3.78ZM73.6,222.6v-6.93h1.8v6.93h-1.8Z"/>
          <path class="cls-3" d="M84.3,221.22l2.87,5.62-1.48.78-1.93-3.82c-.66,2.4-1.76,3.72-3.32,3.97v-1.92c1.6-.46,2.41-3.76,2.43-9.9l1.7.07c0,2.01-.09,3.74-.27,5.2ZM89.12,215.73v12.52h-1.7v-6.58h-1.68v-1.8h1.68v-4.13h1.7ZM92.24,228.47h-1.7v-12.8h1.7v12.8Z"/>
          <path class="cls-3" d="M94.22,227.77v-11.7h7.02v11.7h-7.02ZM99.44,217.83h-3.42v8.17h3.42v-8.17ZM103.3,228.47v-12.8h1.8v12.8h-1.8Z"/>
          <path class="cls-3" d="M113.89,225.86c.57-.11,1.04-.25,1.41-.43v1.73c-.36.19-.83.34-1.42.44s-1.19.16-1.8.16h-4.8v-11.78h1.85v10.03h3.02c.59,0,1.17-.05,1.74-.16ZM117.95,222.48v5.98h-1.8v-12.8h1.8v4.98h1.6v1.83h-1.6Z"/>
          <path class="cls-3" d="M130.48,221.47c-.31.57-.76,1.02-1.34,1.33-.58.32-1.26.48-2.03.48s-1.44-.16-2.02-.48c-.58-.32-1.02-.76-1.33-1.33s-.47-1.23-.47-1.96.16-1.39.47-1.96c.31-.57.76-1.02,1.33-1.33.58-.32,1.25-.48,2.02-.48s1.44.16,2.03.48c.58.32,1.03.76,1.34,1.33.31.57.47,1.23.47,1.96s-.16,1.39-.47,1.96ZM135.1,228.37h-10.63v-4.3h1.82v2.6h8.82v1.7ZM125.63,221.12c.38.39.87.58,1.48.58s1.1-.19,1.48-.58.56-.92.56-1.6-.19-1.21-.56-1.59-.86-.57-1.48-.57-1.12.19-1.49.57-.56.91-.56,1.59.19,1.21.57,1.6ZM133.1,218.63h-1.77l-.12-1.68h1.88v-1.28h1.78v9.5h-1.78v-3.08h-1.9l.12-1.68h1.78v-1.77Z"/>
          <path class="cls-3" d="M143.5,225.47v3.3h-1.85v-3.3h-5.18v-1.77h12.22v1.77h-5.18ZM139.91,221.68c-1.01.54-2.06.82-3.16.83v-1.8c.83,0,1.64-.23,2.42-.68.78-.45,1.43-1.07,1.97-1.87.53-.79.88-1.67,1.03-2.64l1.85.3c-.13.78-.37,1.51-.7,2.18l5.18,2.9-.87,1.58-5.18-3.03c-.69.93-1.54,1.67-2.54,2.22Z"/>
        </g>
        <path class="cls-2" d="M166.83,210.29H2.83c-1.57,0-2.83-1.27-2.83-2.83s1.27-2.83,2.83-2.83h164c1.57,0,2.83,1.27,2.83,2.83s-1.27,2.83-2.83,2.83Z"/>
      </g>
      <g>
        <g>
          <path class="cls-3" d="M260.49,222.93h-12.22v-1.5h5.22v-1.75h1.8v1.75h5.2v1.5ZM251.81,219.87c-1.01.41-2.05.62-3.12.64v-1.57c.79-.03,1.56-.21,2.33-.52.76-.31,1.41-.74,1.94-1.27.53-.54.87-1.15,1-1.83l1.82.33c-.1.48-.27.92-.5,1.33l4.97,2.1-.65,1.45-5.25-2.3c-.68.68-1.52,1.22-2.53,1.62ZM258.35,224.31c.99.38,1.48,1,1.48,1.84s-.5,1.46-1.48,1.84c-.99.38-2.31.57-3.97.57s-2.98-.19-3.97-.57c-.99-.38-1.48-1-1.48-1.84s.49-1.46,1.47-1.84,2.31-.57,3.98-.57,2.98.19,3.97.57ZM256.94,226.88c.66-.16.98-.4.98-.73s-.33-.58-.98-.73c-.66-.16-1.51-.23-2.55-.23s-1.9.08-2.56.23c-.66.16-.99.4-.99.73s.33.58.99.73,1.51.23,2.56.23,1.89-.08,2.55-.23Z"/>
          <path class="cls-3" d="M268.5,223.64c-.62.07-1.31.11-2.05.11h-4.53v-7.92h1.83v6.33h2.78c1.54,0,2.69-.13,3.43-.4v1.57c-.36.13-.84.24-1.47.31ZM273.3,228.37h-10.78v-3.72h1.83v2.03h8.95v1.68ZM267.2,220.95v-1.52h4.1v-1.13h-4.1v-1.5h4.1v-1.13h1.78v9.53h-1.78v-4.25h-4.1Z"/>
          <path class="cls-3" d="M283.54,225.55v1.7c-.38.17-.89.29-1.53.38s-1.35.13-2.14.13h-5.2v-1.68h3.33v-1.58c-.84-.12-1.51-.41-1.98-.85s-.72-1.02-.72-1.72c0-.83.33-1.49.98-1.96.66-.47,1.53-.71,2.63-.71s1.98.24,2.63.71.98,1.12.98,1.96c0,.7-.24,1.27-.72,1.73-.48.45-1.15.73-2.01.84v1.58c1.74,0,2.99-.18,3.73-.53ZM274.74,218.63v-1.63h3.23v-1.45h1.85v1.45h3.27v1.63h-8.35ZM277.51,222.76c.34.21.81.31,1.41.31s1.07-.1,1.41-.31c.34-.21.51-.48.51-.83s-.17-.62-.51-.83c-.34-.21-.81-.32-1.41-.32s-1.07.11-1.41.32-.51.49-.51.83.17.62.51.83ZM286.22,228.47h-1.78v-12.8h1.78v12.8Z"/>
          <path class="cls-3" d="M291.67,221.7v-5.78h7.37v5.78h-7.37ZM294.96,227.96c-.93.27-1.91.41-2.96.41v-1.57c1.02,0,1.96-.17,2.8-.5.84-.33,1.41-.79,1.7-1.37h-4.38v-1.53h4.42v-1.12h1.83v1.12h4.43v1.53h-4.35c-.03.17-.09.36-.18.57l4.88,1.5-.5,1.53-5.4-1.78c-.6.53-1.36.94-2.29,1.21ZM293.47,217.47v2.67h3.78v-2.67h-3.78ZM300.9,222.6v-6.93h1.8v6.93h-1.8Z"/>
          <path class="cls-3" d="M310.2,222.41c-.71.51-1.49.8-2.35.89v-1.77c.71-.12,1.33-.45,1.87-.99.53-.54.95-1.23,1.25-2.07s.46-1.75.47-2.73l1.82.12c0,1.07-.17,2.08-.52,3.05l3.75,2.87-1.07,1.37-3.43-2.72c-.48.81-1.07,1.47-1.78,1.98ZM319.47,228.37h-10.82v-4.23h1.83v2.53h8.98v1.7ZM317.4,225.17v-9.5h1.8v9.5h-1.8Z"/>
          <path class="cls-3" d="M327.9,223.64c-.62.07-1.3.11-2.05.11h-4.53v-7.92h1.83v6.33h2.78c1.54,0,2.69-.13,3.43-.4v1.57c-.36.13-.84.24-1.47.31ZM332.7,228.37h-10.78v-3.72h1.83v2.03h8.95v1.68ZM326.6,220.95v-1.52h4.1v-1.13h-4.1v-1.5h4.1v-1.13h1.78v9.53h-1.78v-4.25h-4.1Z"/>
          <path class="cls-3" d="M342.94,225.55v1.7c-.38.17-.89.29-1.52.38-.64.09-1.35.13-2.14.13h-5.2v-1.68h3.33v-1.58c-.84-.12-1.51-.41-1.98-.85s-.72-1.02-.72-1.72c0-.83.33-1.49.98-1.96.66-.47,1.53-.71,2.63-.71s1.98.24,2.63.71c.66.47.98,1.12.98,1.96,0,.7-.24,1.27-.72,1.73s-1.15.73-2.01.84v1.58c1.74,0,2.99-.18,3.73-.53ZM334.14,218.63v-1.63h3.23v-1.45h1.85v1.45h3.27v1.63h-8.35ZM336.91,222.76c.34.21.81.31,1.41.31s1.07-.1,1.41-.31.51-.48.51-.83-.17-.62-.51-.83-.81-.32-1.41-.32-1.07.11-1.41.32-.51.49-.51.83.17.62.51.83ZM345.62,228.47h-1.78v-12.8h1.78v12.8Z"/>
        </g>
        <path class="cls-2" d="M379.29,210.29h-164c-1.57,0-2.83-1.27-2.83-2.83s1.27-2.83,2.83-2.83h164c1.57,0,2.83,1.27,2.83,2.83s-1.27,2.83-2.83,2.83Z"/>
      </g>
      <g>
        <g>
          <path class="cls-3" d="M427.56,221.82l2.83,4.95-1.4.87-1.93-3.45c-.64,2.22-1.73,3.42-3.27,3.58v-1.82c.7-.13,1.24-.81,1.62-2.02s.58-2.82.6-4.82h-2.05v-1.72h2.05v-1.75h1.72v1.75h2.05v1.72h-2.05c-.02,1.18-.08,2.08-.17,2.72ZM432.51,215.73v12.52h-1.7v-5.73h-1.55v-1.78h1.55v-5h1.7ZM435.62,228.47h-1.7v-12.8h1.7v12.8Z"/>
          <path class="cls-3" d="M446.26,224.62h2.13v3.92h-1.83v-2.38h-8.88v-1.53h2.22v-1.35h-2.93v-1.52h12.22v1.52h-2.92v1.35ZM439.12,220.28c-1.01-.46-1.52-1.13-1.52-2.03s.5-1.59,1.52-2.04c1.01-.45,2.33-.67,3.95-.67s2.94.23,3.95.67c1.01.45,1.52,1.13,1.52,2.04s-.5,1.58-1.52,2.03c-1.01.46-2.33.68-3.95.68s-2.94-.23-3.95-.68ZM440.51,217.34c-.67.22-1,.52-1,.91s.33.71.99.92c.66.21,1.52.32,2.58.32s1.91-.11,2.57-.32c.66-.21.98-.52.98-.92s-.33-.69-.99-.91c-.66-.22-1.51-.33-2.56-.33s-1.9.11-2.57.33ZM441.66,223.27v1.35h2.82v-1.35h-2.82Z"/>
          <path class="cls-3" d="M454.96,225.97c.5-.08.95-.2,1.32-.34v1.65c-.36.16-.81.27-1.36.36s-1.1.12-1.66.12h-2.78v-11.7h5.27v1.67h-3.55v8.37h1.25c.5,0,1-.04,1.51-.12ZM462.02,228.47h-1.7v-6.03h-1.6v5.82h-1.68v-12.52h1.68v4.92h1.6v-4.98h1.7v12.8Z"/>
          <path class="cls-3" d="M472.22,225.55v1.7c-.38.17-.89.29-1.53.38s-1.35.13-2.14.13h-5.2v-1.68h3.33v-1.58c-.84-.12-1.51-.41-1.98-.85s-.72-1.02-.72-1.72c0-.83.33-1.49.98-1.96.66-.47,1.53-.71,2.63-.71s1.98.24,2.63.71.98,1.12.98,1.96c0,.7-.24,1.27-.72,1.73-.48.45-1.15.73-2.01.84v1.58c1.74,0,2.99-.18,3.73-.53ZM463.42,218.63v-1.63h3.23v-1.45h1.85v1.45h3.27v1.63h-8.35ZM466.2,222.76c.34.21.81.31,1.41.31s1.07-.1,1.41-.31c.34-.21.51-.48.51-.83s-.17-.62-.51-.83c-.34-.21-.81-.32-1.41-.32s-1.07.11-1.41.32-.51.49-.51.83.17.62.51.83ZM474.91,228.47h-1.78v-12.8h1.78v12.8Z"/>
          <path class="cls-3" d="M478.97,225.84c.23.24.35.54.35.89,0,.18-.02.35-.07.52-.04.17-.13.44-.27.79l-.83,2.35h-1.25l.67-2.53c-.23-.09-.42-.23-.56-.43-.14-.2-.21-.43-.21-.7,0-.37.12-.67.36-.9.24-.23.54-.35.91-.35s.67.12.9.36Z"/>
          <path class="cls-3" d="M490.98,222.84c-.63.09-1.31.14-2.06.14h-4.73v-7.07h7.47v1.62h-5.65v3.83h3.02c.72,0,1.38-.04,1.98-.13.6-.09,1.08-.22,1.45-.38v1.6c-.36.17-.85.3-1.47.39ZM495.29,226.67v1.7h-10.68v-4.28h1.83v2.58h8.85ZM496.61,220.35h-1.6v4.82h-1.8v-9.5h1.8v2.85h1.6v1.83Z"/>
          <path class="cls-3" d="M496.97,218.02v-1.42h3.2v-1.17h1.85v1.17h3.23v1.42h-8.28ZM498.5,222.46c-.69-.41-1.03-.96-1.03-1.66s.34-1.25,1.03-1.66c.69-.41,1.56-.61,2.6-.61s1.91.2,2.59.61c.68.41,1.02.96,1.02,1.66s-.34,1.25-1.02,1.66c-.68.41-1.55.61-2.59.61s-1.91-.2-2.6-.61ZM508.21,223.43v4.93h-10.4v-4.93h1.77v1.03h6.88v-1.03h1.75ZM499.71,220.14c-.35.17-.53.39-.53.66s.17.5.53.68c.35.17.81.26,1.39.26s1.04-.09,1.39-.26c.35-.17.52-.4.52-.68s-.17-.49-.52-.66c-.35-.17-.81-.26-1.39-.26s-1.04.09-1.39.26ZM506.46,225.83h-6.88v1.08h6.88v-1.08ZM508.21,219.92v3.02h-1.8v-7.27h1.8v2.47h1.6v1.78h-1.6Z"/>
          <path class="cls-3" d="M519.09,225.55v1.7c-.38.17-.89.29-1.52.38-.64.09-1.35.13-2.14.13h-5.2v-1.68h3.33v-1.58c-.84-.12-1.51-.41-1.98-.85s-.72-1.02-.72-1.72c0-.83.33-1.49.98-1.96.66-.47,1.53-.71,2.63-.71s1.98.24,2.63.71c.66.47.98,1.12.98,1.96,0,.7-.24,1.27-.72,1.73s-1.15.73-2.01.84v1.58c1.74,0,2.99-.18,3.73-.53ZM510.29,218.63v-1.63h3.23v-1.45h1.85v1.45h3.27v1.63h-8.35ZM513.06,222.76c.34.21.81.31,1.41.31s1.07-.1,1.41-.31.51-.48.51-.83-.17-.62-.51-.83-.81-.32-1.41-.32-1.07.11-1.41.32-.51.49-.51.83.17.62.51.83ZM521.77,228.47h-1.78v-12.8h1.78v12.8Z"/>
          <path class="cls-3" d="M525.84,225.84c.23.24.35.54.35.89,0,.18-.02.35-.07.52-.04.17-.13.44-.27.79l-.83,2.35h-1.25l.67-2.53c-.23-.09-.42-.23-.56-.43-.14-.2-.21-.43-.21-.7,0-.37.12-.67.36-.9.24-.23.54-.35.91-.35s.67.12.9.36Z"/>
          <path class="cls-3" d="M536.97,225.6v1.63c-.38.17-.87.3-1.47.39s-1.25.14-1.92.14h-2.57v-6.72h3.27v-3.35h-3.27v-1.63h4.93v6.6h-3.25v3.47h1.03c1.34,0,2.43-.18,3.25-.53ZM539.55,215.73v12.52h-1.68v-5.7h-1.3v-1.8h1.3v-5.02h1.68ZM542.55,228.47h-1.7v-12.8h1.7v12.8Z"/>
          <path class="cls-3" d="M556.1,227.92h-12.22v-1.77h12.22v1.77ZM544.64,222.45v-1.77h8.85v-2.85h-8.85v-1.77h10.67v9.03h-1.82v-2.65h-8.85Z"/>
          <path class="cls-3" d="M563.37,225.6v1.63c-.38.17-.87.3-1.47.39-.61.09-1.25.14-1.93.14h-2.57v-6.72h3.27v-3.35h-3.27v-1.63h4.93v6.6h-3.25v3.47h1.03c1.34,0,2.43-.18,3.25-.53ZM565.95,215.73v12.52h-1.68v-5.7h-1.3v-1.8h1.3v-5.02h1.68ZM568.95,228.47h-1.7v-12.8h1.7v12.8Z"/>
          <path class="cls-3" d="M577.22,217.41c.67,1.01,1,2.51,1,4.51s-.33,3.5-1,4.51c-.67,1.01-1.57,1.51-2.72,1.51s-2.07-.5-2.74-1.51c-.67-1.01-1.01-2.51-1.01-4.51s.34-3.5,1.01-4.51c.67-1.01,1.59-1.51,2.74-1.51s2.05.5,2.72,1.51ZM573.07,218.68c-.36.69-.53,1.77-.53,3.23s.18,2.54.53,3.23.83,1.03,1.43,1.03,1.06-.34,1.41-1.03.53-1.77.53-3.23-.18-2.54-.53-3.23c-.35-.69-.82-1.03-1.41-1.03s-1.08.34-1.43,1.03ZM580.02,228.47v-12.8h1.82v12.8h-1.82Z"/>
          <path class="cls-3" d="M585.78,222.67c-.68.51-1.44.81-2.28.9v-1.77c.69-.11,1.29-.46,1.81-1.03s.92-1.31,1.2-2.19c.28-.88.43-1.82.44-2.82l1.82.12c0,1.12-.17,2.2-.52,3.23l3.62,3.08-1.13,1.3-3.22-2.82c-.48.82-1.06,1.49-1.74,2ZM595.32,228.37h-10.78v-4.17h1.83v2.47h8.95v1.7ZM590.97,221.12v-1.57h2.35v-1.22h-2.35v-1.57h2.35v-1.1h1.78v9.5h-1.78v-4.05h-2.35Z"/>
        </g>
        <path class="cls-2" d="M591.74,210.29h-164c-1.57,0-2.83-1.27-2.83-2.83s1.27-2.83,2.83-2.83h164c1.57,0,2.83,1.27,2.83,2.83s-1.27,2.83-2.83,2.83Z"/>
      </g>
      <g>
        <g>
          <path class="cls-3" d="M679.73,223.77c-.56,1.27-1.36,2.25-2.39,2.94s-2.24,1.03-3.62,1.03v-1.8c1.04,0,1.94-.27,2.69-.81s1.32-1.31,1.72-2.3c.39-.99.59-2.17.59-3.53v-1.52h-5v-1.73h6.85v3.23c0,1.71-.28,3.2-.84,4.48ZM682.91,228.47v-12.8h1.8v12.8h-1.8Z"/>
          <path class="cls-3" d="M697.99,222.32h-1.8v-2.5h-2.27c-.19.72-.61,1.3-1.25,1.73-.64.43-1.45.65-2.42.65-.77,0-1.44-.13-2.02-.4-.58-.27-1.02-.64-1.34-1.13-.32-.49-.47-1.05-.47-1.68s.16-1.19.47-1.68c.32-.49.76-.87,1.34-1.13.58-.27,1.25-.4,2.02-.4.94,0,1.74.21,2.39.62.65.41,1.07.97,1.26,1.67h2.28v-2.38h1.8v6.65ZM697.99,222.83v5.53h-10.42v-5.53h1.77v1.17h6.87v-1.17h1.78ZM691.72,220.19c.36-.29.54-.7.54-1.21s-.18-.92-.55-1.22c-.37-.3-.85-.45-1.45-.45s-1.1.15-1.47.45c-.37.3-.55.71-.55,1.22s.18.91.55,1.21c.37.29.86.44,1.47.44s1.1-.15,1.46-.44ZM696.21,225.5h-6.87v1.35h6.87v-1.35Z"/>
          <path class="cls-3" d="M706.86,227.62c-.67.1-1.39.15-2.17.15h-5.12v-1.77h5.22c.76,0,1.46-.05,2.1-.14s1.16-.24,1.55-.43v1.75c-.39.19-.92.33-1.58.43ZM705.74,216.38c.58.34,1.03.82,1.35,1.44s.48,1.32.48,2.11-.16,1.51-.48,2.12-.77,1.1-1.35,1.44-1.23.52-1.97.52-1.39-.17-1.97-.52c-.58-.34-1.04-.83-1.36-1.44s-.48-1.32-.48-2.12.16-1.51.48-2.12c.32-.61.77-1.09,1.36-1.43.58-.34,1.24-.52,1.97-.52s1.39.17,1.97.52ZM702.27,218.24c-.38.45-.57,1.01-.57,1.69s.19,1.27.57,1.72.88.67,1.5.67,1.12-.22,1.5-.67.57-1.02.57-1.71-.19-1.24-.57-1.69c-.38-.45-.88-.68-1.49-.68s-1.12.23-1.5.68ZM709.34,228.47v-12.8h1.8v12.8h-1.8Z"/>
          <path class="cls-3" d="M716.44,222.3v-6.43h1.77v1.62h3.72v-1.62h1.75v6.43h-7.23ZM727.26,223.42v4.95h-10.4v-4.95h10.4ZM721.92,218.98h-3.72v1.77h3.72v-1.77ZM725.46,226.8v-1.82h-6.8v1.82h6.8ZM727.26,219.9v2.92h-1.8v-7.15h1.8v2.4h1.6v1.83h-1.6Z"/>
          <path class="cls-3" d="M737.72,221.22l3.82,5.43-1.47,1.1-2.97-4.33c-.48,1.36-1.09,2.41-1.83,3.16-.74.75-1.58,1.15-2.53,1.19v-1.93c.73-.11,1.37-.61,1.91-1.49.54-.88.96-2.05,1.25-3.51.29-1.46.45-3.08.46-4.88l1.83.07c0,1.83-.16,3.57-.48,5.2ZM744.11,228.47h-1.8v-12.8h1.8v12.8Z"/>
          <path class="cls-3" d="M748.2,221.71c-.72.46-1.52.74-2.41.84v-1.72c.71-.11,1.33-.4,1.86-.87.53-.47.93-1.06,1.22-1.79.28-.73.43-1.54.44-2.42l1.8.12c0,.9-.13,1.75-.4,2.55l3.58,2.43-.92,1.38-3.38-2.35c-.48.76-1.08,1.36-1.79,1.82ZM755.66,223.71c.97.44,1.45,1.13,1.45,2.08s-.48,1.65-1.45,2.09c-.97.44-2.26.66-3.87.66s-2.9-.22-3.87-.66c-.97-.44-1.45-1.14-1.45-2.09s.49-1.64,1.46-2.08c.97-.44,2.26-.66,3.86-.66s2.9.22,3.87.66ZM754.24,226.68c.62-.2.93-.5.93-.9s-.31-.7-.93-.89-1.44-.29-2.45-.29-1.83.1-2.45.29c-.62.19-.93.49-.93.89s.31.7.93.9c.62.2,1.44.3,2.45.3s1.83-.1,2.45-.3ZM758.56,219.73h-1.6v3h-1.8v-7.07h1.8v2.25h1.6v1.82Z"/>
          <path class="cls-3" d="M761.49,222.14c-.71.48-1.49.77-2.33.86v-1.75c.71-.12,1.34-.44,1.88-.95.54-.51.96-1.16,1.26-1.96.3-.79.46-1.66.47-2.59l1.82.12c0,1.01-.17,1.99-.52,2.93l3.68,2.65-1,1.37-3.45-2.55c-.49.77-1.09,1.39-1.8,1.88ZM770.51,223.9v4.63h-1.83v-3h-8.8v-1.63h10.63ZM770.51,223.3h-1.8v-7.63h1.8v7.63Z"/>
        </g>
        <path class="cls-2" d="M804.19,210.29h-164c-1.57,0-2.83-1.27-2.83-2.83s1.27-2.83,2.83-2.83h164c1.57,0,2.83,1.27,2.83,2.83s-1.27,2.83-2.83,2.83Z"/>
      </g>
      <g>
        <g>
          <path class="cls-3" d="M899.36,216.07v3.23c0,1.71-.27,3.2-.81,4.48-.54,1.27-1.31,2.25-2.33,2.94s-2.21,1.03-3.58,1.03v-1.8c1.55-.01,2.76-.6,3.61-1.77.85-1.17,1.28-2.79,1.28-4.86v-1.52h-4.88v-1.73h6.72ZM903.41,222.48v5.98h-1.8v-12.8h1.8v4.98h1.6v1.83h-1.6Z"/>
          <path class="cls-3" d="M917.64,223.43h-12.22v-1.55h5.22v-1.48h1.8v1.48h5.2v1.55ZM908.88,220.49c-.91.28-1.86.44-2.83.46v-1.55c1.01-.02,1.96-.23,2.85-.61.89-.38,1.47-.89,1.75-1.51h-4.43v-1.52h10.67v1.52h-4.27c-.04.26-.13.51-.27.75l4.87,1.43-.5,1.5-5.52-1.67c-.63.51-1.41.91-2.32,1.19ZM916.86,224.45v4.08h-1.83v-2.53h-8.88v-1.55h10.72Z"/>
          <path class="cls-3" d="M934.14,227.92h-12.22v-1.75h5.2v-2.65h1.82v2.65h5.2v1.75ZM925.55,223.17c-.98.46-2.07.72-3.26.77v-1.75c1.18-.07,2.21-.41,3.08-1.03.88-.62,1.44-1.43,1.7-2.42h-4.5v-1.75h4.52v-1.5h1.85v1.5h4.55v1.75h-4.45c-.07.41-.17.78-.3,1.1l5.15,2.58-.77,1.57-5.2-2.7c-.6.79-1.39,1.41-2.38,1.88Z"/>
          <path class="cls-3" d="M937.6,222.35c-.67.41-1.41.66-2.22.73v-1.63c.82-.1,1.5-.44,2.04-1.01.54-.57.89-1.27,1.04-2.11h-2.97v-1.57h3.02v-1.33h1.83v1.33h2.98v1.57h-3.02c-.09.47-.17.81-.25,1.02l3.52,2.23-.82,1.38-3.47-2.22c-.46.66-1.02,1.19-1.69,1.6ZM945.41,224.18c.98.39,1.47,1.02,1.47,1.88s-.49,1.49-1.47,1.88c-.98.39-2.29.58-3.93.58s-2.95-.19-3.92-.58c-.97-.39-1.46-1.02-1.46-1.88s.49-1.49,1.46-1.88c.97-.39,2.28-.58,3.92-.58s2.96.19,3.93.58ZM944,226.82c.63-.16.94-.41.94-.75s-.32-.6-.95-.76c-.63-.16-1.47-.24-2.52-.24s-1.88.08-2.52.24c-.63.16-.95.41-.95.76s.31.59.94.75c.63.16,1.47.23,2.52.23s1.9-.08,2.53-.23ZM944.94,215.67h1.8v7.62h-1.8v-3.08h-2.05v-1.7h2.05v-2.83Z"/>
          <path class="cls-3" d="M951.39,218.05v-1.4h2.4v-1.18h1.8v1.18h2.3v1.4h-6.5ZM956.81,222.7c-.56.43-1.25.65-2.08.65s-1.54-.22-2.1-.65c-.56-.43-.83-1.01-.83-1.73s.28-1.3.83-1.73c.55-.43,1.25-.64,2.1-.64s1.53.21,2.08.64.83,1,.83,1.73-.28,1.3-.83,1.73ZM962.1,224.32c1.01.38,1.51.98,1.51,1.82s-.5,1.46-1.51,1.83c-1.01.38-2.35.57-4.04.57s-3.04-.19-4.04-.57c-1-.38-1.51-.99-1.51-1.83s.5-1.44,1.51-1.82c1.01-.38,2.35-.57,4.04-.57s3.04.19,4.04.57ZM953.76,221.71c.24.19.57.29.97.29s.71-.1.95-.29c.24-.19.37-.44.37-.74s-.12-.54-.37-.73c-.25-.19-.56-.28-.95-.28s-.72.09-.97.28-.37.43-.37.73.12.55.37.74ZM960.68,226.84c.68-.16,1.03-.4,1.03-.71s-.34-.55-1.03-.71c-.68-.16-1.56-.24-2.62-.24s-1.94.08-2.63.24c-.69.16-1.03.4-1.03.71s.34.55,1.03.71c.69.16,1.57.24,2.63.24s1.94-.08,2.62-.24ZM958.61,223.13v-7.4h1.67v2.77h1.55v-2.83h1.67v7.92h-1.67v-3.38h-1.55v2.93h-1.67Z"/>
          <path class="cls-3" d="M969.79,221.3l3.72,5.35-1.47,1.1-2.88-4.25c-.47,1.32-1.06,2.35-1.78,3.09-.72.74-1.55,1.13-2.48,1.17v-1.93c.72-.11,1.35-.61,1.88-1.49.53-.88.94-2.05,1.22-3.51.28-1.46.42-3.08.43-4.88l1.83.07c0,1.93-.16,3.69-.47,5.28ZM976.01,222.48v5.98h-1.8v-12.8h1.8v4.98h1.6v1.83h-1.6Z"/>
        </g>
        <path class="cls-2" d="M1016.64,210.29h-164c-1.57,0-2.83-1.27-2.83-2.83s1.27-2.83,2.83-2.83h164c1.57,0,2.83,1.27,2.83,2.83s-1.27,2.83-2.83,2.83Z"/>
      </g>
    </g>
  </g>
</svg>