<svg width="1020" height="231" viewBox="0 0 1020 231" fill="none" xmlns="http://www.w3.org/2000/svg">
<path d="M614.87 0H404.94C391.475 0 380.56 10.9131 380.56 24.375C380.56 37.8369 391.475 48.75 404.94 48.75H614.87C628.335 48.75 639.25 37.8369 639.25 24.375C639.25 10.9131 628.335 0 614.87 0Z" fill="#13AFA4"/>
<path d="M455.103 19.9398C453.925 21.1843 452.414 22.1732 450.57 22.9065C448.725 23.6398 446.681 24.0621 444.437 24.1732V20.7065C446.681 20.551 448.625 19.9954 450.27 19.0398C451.937 18.0621 453.07 16.8287 453.67 15.3398H445.003V11.8732H453.97V9.23984H457.67V11.8732H466.703V15.3398H457.77C457.659 15.8732 457.47 16.4621 457.203 17.1065L467.403 20.7732L466.27 24.0398L455.103 19.9398ZM457.67 29.7398V36.0732H454.037V29.7398H443.637V26.2398H468.07V29.7398H457.67ZM478.466 21.1398C477.578 22.5176 476.444 23.6287 475.066 24.4732C473.711 25.3176 472.2 25.8065 470.533 25.9398V22.6065C472.289 22.3621 473.711 21.6065 474.8 20.3398C475.911 19.0732 476.589 17.4732 476.833 15.5398H470.766V12.3398H476.8V9.40651H480.466V12.3398H486.433V15.5398H480.466C480.355 16.5621 480.2 17.4398 480 18.1732L486.966 22.9732L485.166 25.8065L478.466 21.1398ZM489.666 9.87318H493.266V28.9398H489.666V19.8398H485.566V16.3398H489.666V9.87318ZM493.7 35.2732H472.133V27.7732H475.8V31.9065H493.7V35.2732ZM495.963 14.6398V11.8398H500.763V9.47318H504.363V11.8398H508.963V14.6398H495.963ZM510.396 24.8065V10.0065H513.73V15.5398H516.83V9.87318H520.163V25.7065H516.83V18.9398H513.73V24.8065H510.396ZM508.463 20.4732C508.463 21.9176 507.907 23.0732 506.796 23.9398C505.685 24.8065 504.296 25.2398 502.63 25.2398C500.941 25.2398 499.541 24.8065 498.43 23.9398C497.318 23.0732 496.763 21.9176 496.763 20.4732C496.763 19.0287 497.318 17.8843 498.43 17.0398C499.541 16.1732 500.941 15.7398 502.63 15.7398C504.296 15.7398 505.685 16.1732 506.796 17.0398C507.907 17.8843 508.463 19.0287 508.463 20.4732ZM499.963 20.4732C499.963 21.0732 500.207 21.5732 500.696 21.9732C501.185 22.351 501.83 22.5398 502.63 22.5398C503.407 22.5398 504.041 22.351 504.53 21.9732C505.018 21.5732 505.263 21.0732 505.263 20.4732C505.263 19.8732 505.018 19.3843 504.53 19.0065C504.041 18.6287 503.407 18.4398 502.63 18.4398C501.83 18.4398 501.185 18.6287 500.696 19.0065C500.207 19.3843 499.963 19.8732 499.963 20.4732ZM509.296 26.0398C512.674 26.0398 515.363 26.4176 517.363 27.1732C519.385 27.9287 520.396 29.1398 520.396 30.8065C520.396 32.4954 519.385 33.7176 517.363 34.4732C515.363 35.2287 512.674 35.6065 509.296 35.6065C505.918 35.6065 503.218 35.2287 501.196 34.4732C499.196 33.7176 498.196 32.4954 498.196 30.8065C498.196 29.1398 499.196 27.9287 501.196 27.1732C503.218 26.4176 505.918 26.0398 509.296 26.0398ZM509.296 32.7065C511.43 32.7065 513.174 32.551 514.53 32.2398C515.907 31.9065 516.596 31.4287 516.596 30.8065C516.596 30.1843 515.907 29.7176 514.53 29.4065C513.174 29.0732 511.43 28.9065 509.296 28.9065C507.163 28.9065 505.407 29.0732 504.03 29.4065C502.652 29.7176 501.963 30.1843 501.963 30.8065C501.963 31.4287 502.652 31.9065 504.03 32.2398C505.407 32.551 507.163 32.7065 509.296 32.7065ZM545.193 23.5065V35.4732H541.593V9.87318H545.193V19.8398H548.393V23.5065H545.193ZM533.693 10.5732C533.693 14.4398 533.382 17.9621 532.759 21.1398L540.193 31.8398L537.259 34.0398L531.493 25.5398C530.559 28.1843 529.37 30.251 527.926 31.7398C526.482 33.2065 524.826 33.9843 522.959 34.0732V30.2065C524.404 29.9843 525.659 28.9954 526.726 27.2398C527.793 25.4621 528.604 23.1176 529.159 20.2065C529.715 17.2954 530.004 14.0398 530.026 10.4398L533.693 10.5732Z" fill="white"/>
<path d="M114.19 141.77H100.92C100.324 141.77 99.8403 142.254 99.8403 142.85V143.65C99.8403 144.246 100.324 144.73 100.92 144.73H114.19C114.787 144.73 115.27 144.246 115.27 143.65V142.85C115.27 142.254 114.787 141.77 114.19 141.77Z" fill="#0B8E85"/>
<path d="M128.43 126.67H90.4003C89.7903 126.67 89.3203 127.17 89.3203 127.78C89.3203 127.8 89.3203 127.81 89.3203 127.83V128.55C89.3203 129.15 89.8003 129.63 90.4003 129.63H128.43C129.03 129.63 129.51 129.15 129.51 128.55V127.75C129.51 127.15 129.03 126.67 128.43 126.67Z" fill="#0B8E85"/>
<path d="M65.07 120.6C72.55 120.6 78.6 114.45 78.6 106.9C78.6 99.3502 72.55 93.2402 65.07 93.2402C57.59 93.2402 51.5 99.3502 51.5 106.9C51.5 114.45 57.59 120.6 65.07 120.6Z" fill="#0B8E85"/>
<path d="M128.43 119.12H87.9602C87.0702 119.12 86.5802 120.12 87.0902 120.84C87.2502 121.06 87.4002 121.28 87.5402 121.51C87.7402 121.83 88.0902 122.04 88.4702 122.04H128.43C129.03 122.04 129.51 121.56 129.51 120.96V120.2C129.51 119.6 129.03 119.12 128.43 119.12Z" fill="#0B8E85"/>
<path d="M128.43 134.22H100.85C100.2 134.22 99.6702 134.8 99.7802 135.45C99.8202 135.66 99.8402 135.88 99.8402 136.1C99.8402 136.7 100.32 137.18 100.92 137.18H128.43C129.03 137.18 129.51 136.7 129.51 136.1V135.3C129.51 134.7 129.03 134.22 128.43 134.22Z" fill="#0B8E85"/>
<path d="M128.43 111.53H79.8302C79.3902 111.53 78.9902 111.8 78.8302 112.21C78.7302 112.47 78.6302 112.72 78.5202 112.97C78.2002 113.69 78.7202 114.49 79.5002 114.49H128.43C129.03 114.49 129.51 114.01 129.51 113.41V112.61C129.51 112.01 129.03 111.53 128.43 111.53Z" fill="#0B8E85"/>
<path d="M79.3404 103.21C79.4804 103.79 79.5904 104.39 79.6604 104.99C79.7304 105.53 80.1804 105.93 80.7304 105.93H133.49C134.09 105.93 134.57 106.41 134.57 107.01V148.6C134.57 149.2 134.09 149.68 133.49 149.68H96.3304C95.7804 149.68 95.3204 150.09 95.2604 150.63L95.0404 152.55C94.9704 153.19 95.4704 153.75 96.1104 153.75H137.49C138.09 153.75 138.57 153.27 138.57 152.67V102.97C138.57 102.37 138.09 101.89 137.49 101.89H80.4004C79.7104 101.89 79.1804 102.53 79.3504 103.2L79.3404 103.21Z" fill="#0B8E85"/>
<path d="M42.1403 194.31H87.9603C88.5103 194.31 88.9703 193.9 89.0303 193.36L94.1503 149.97C94.2303 149.33 93.7203 148.76 93.0803 148.76H37.0403C36.3903 148.76 35.8903 149.32 35.9703 149.96L41.0603 193.35C41.1203 193.89 41.5803 194.3 42.1303 194.3L42.1403 194.31Z" fill="#0B8E85"/>
<path d="M98.6502 145.25V136.1C98.6502 134.82 97.6202 133.74 96.3602 133.74H33.7802C32.5102 133.74 31.4502 134.82 31.4502 136.1V145.25C31.4502 146.53 32.5202 147.57 33.7802 147.57H96.3602C97.6302 147.57 98.6502 146.53 98.6502 145.25Z" fill="#0B8E85"/>
<path d="M88.1303 127.83C88.1303 121.88 83.3003 117 77.4103 117H76.3203C76.0303 117 75.7503 117.12 75.5503 117.33C72.8803 120.06 69.1703 121.79 65.0703 121.79C60.9703 121.79 57.2203 120.05 54.5503 117.33C54.3503 117.12 54.0703 117 53.7803 117H52.7303C46.8403 117 42.0103 121.87 42.0103 127.83V131.47C42.0103 132.07 42.4903 132.55 43.0903 132.55H87.0503C87.6502 132.55 88.1303 132.07 88.1303 131.47V127.83Z" fill="#0B8E85"/>
<path d="M300.87 159.44C300.87 167.1 307.04 173.33 314.67 173.33C322.3 173.33 328.42 167.1 328.42 159.44C328.42 151.78 322.25 145.5 314.67 145.5C307.09 145.5 300.87 151.73 300.87 159.44Z" fill="#0B8E85"/>
<path d="M277.21 143.97C285.65 143.97 292.48 150.91 292.48 159.44C292.48 162.55 291.57 165.47 290 167.92C292.73 168.07 295.31 169.2 297.38 171.03L297.43 171.08C298.79 169.85 300.41 168.94 302.18 168.37C300.41 165.87 299.35 162.75 299.35 159.43C299.35 150.9 306.23 143.96 314.67 143.96C316.44 143.96 318.11 144.27 319.73 144.83C331.31 134.77 332.92 115.93 332.92 115.88C333.22 112.66 330.85 109.8 327.66 109.5C324.47 109.19 321.64 111.59 321.34 114.81C321.34 114.86 319.52 136.26 305.62 139.01H304.76C302.64 140.34 300.11 141.1 297.43 141.1C294.75 141.1 292.27 140.33 290.15 139.01H289.24C275.34 136.25 273.52 114.86 273.52 114.81C273.27 111.59 270.44 109.19 267.25 109.5C264.01 109.81 261.69 112.67 261.94 115.88C261.99 115.93 263.51 134.01 274.48 144.22C275.39 144.07 276.3 143.96 277.21 143.96V143.97Z" fill="#0B8E85"/>
<path d="M297.43 139.52C305.06 139.52 311.23 133.24 311.23 125.58C311.23 117.92 305.06 111.64 297.43 111.64C289.8 111.64 283.68 117.87 283.68 125.58C283.68 133.29 289.85 139.52 297.43 139.52Z" fill="#0B8E85"/>
<path d="M277.21 145.5C269.58 145.5 263.41 151.73 263.41 159.44C263.41 167.15 269.58 173.33 277.21 173.33C284.84 173.33 290.96 167.1 290.96 159.44C290.96 151.78 284.79 145.5 277.21 145.5Z" fill="#0B8E85"/>
<path d="M352.08 173.33C359.71 173.33 365.88 167.1 365.88 159.44C365.88 151.78 359.71 145.5 352.08 145.5C344.45 145.5 338.33 151.73 338.33 159.44C338.33 167.15 344.5 173.33 352.08 173.33Z" fill="#0B8E85"/>
<path d="M239.75 173.33C247.38 173.33 253.55 167.1 253.55 159.44C253.55 151.78 247.38 145.5 239.75 145.5C232.12 145.5 226 151.73 226 159.44C226 167.15 232.17 173.33 239.75 173.33Z" fill="#0B8E85"/>
<path d="M326.65 169.4H326.3C323.52 172.77 319.32 174.86 314.67 174.86C310.02 174.86 306.02 172.87 303.24 169.7C298.44 170.82 294.8 175.21 294.8 180.37V194.97H330.75V180.37C330.75 177.26 331.91 174.34 333.83 172.15C331.91 170.47 329.38 169.39 326.65 169.39V169.4Z" fill="#0B8E85"/>
<path d="M251.73 169.4H251.43C248.65 172.77 244.45 174.86 239.75 174.86C235.05 174.86 231.16 172.87 228.32 169.7C223.52 170.82 219.93 175.21 219.93 180.37V194.97H255.82V180.37C255.82 177.26 256.98 174.34 258.9 172.15C256.98 170.47 254.45 169.39 251.72 169.39L251.73 169.4Z" fill="#0B8E85"/>
<path d="M364.06 169.4H363.76C360.98 172.77 356.78 174.86 352.08 174.86C347.38 174.86 343.49 172.87 340.65 169.7C335.85 170.82 332.26 175.21 332.26 180.37V194.97H374.98V180.37C374.98 174.34 370.08 169.39 364.06 169.39V169.4Z" fill="#0B8E85"/>
<path d="M289.19 169.4H288.89C286.06 172.77 281.86 174.86 277.21 174.86C272.56 174.86 268.56 172.87 265.78 169.7C260.98 170.82 257.34 175.21 257.34 180.37V194.97H293.28V180.37C293.28 177.26 294.44 174.34 296.36 172.15C294.44 170.47 291.91 169.39 289.18 169.39L289.19 169.4Z" fill="#0B8E85"/>
<path d="M563.49 143.91C572.73 143.91 580.27 136.35 580.27 127.02C580.27 117.69 572.73 110.13 563.49 110.13C554.25 110.13 546.77 117.69 546.77 127.02C546.77 136.35 554.25 143.91 563.49 143.91Z" fill="#0B8E85"/>
<path d="M456.26 143.91C465.5 143.91 472.98 136.35 472.98 127.02C472.98 117.69 465.5 110.13 456.26 110.13C447.02 110.13 439.54 117.69 439.54 127.02C439.54 136.35 447.02 143.91 456.26 143.91Z" fill="#0B8E85"/>
<path d="M526.15 191.42L553.24 188.61C556.19 188.38 558.91 186.43 560.04 183.4L569.84 157.35C566.67 167.48 564.74 175.04 561.11 185.06C559.18 190.5 553.69 190.44 549.32 190.96V194.11H584.91V157.36C584.91 150.43 581 144.37 575.22 141.39C572.05 144.02 567.97 145.63 563.49 145.63C560.66 145.63 557.94 145 555.5 143.8C551.7 147.12 549.32 151.99 549.32 157.37V166.19L546.83 172.89L524.1 178.56C513.56 179.48 515.54 192.36 526.14 191.44L526.15 191.42Z" fill="#0B8E85"/>
<path d="M470.43 190.96C466.12 190.44 460.57 190.5 458.64 185.06C455.07 175.04 453.09 167.49 449.91 157.35L459.71 183.4C460.84 186.43 463.56 188.38 466.51 188.61L493.66 191.42C504.2 192.34 506.24 179.46 495.64 178.54L472.91 172.87L470.42 166.17V157.35C470.42 151.97 468.04 147.1 464.24 143.78C461.86 144.98 459.14 145.61 456.25 145.61C451.77 145.61 447.69 144.01 444.52 141.37C438.8 144.35 434.83 150.41 434.83 157.34V194.09H470.42V190.94L470.43 190.96Z" fill="#0B8E85"/>
<path d="M694.14 102.72C690.79 102.72 688.02 105.48 688.02 108.9V140.57H700.23V108.9C700.23 105.48 697.49 102.72 694.14 102.72Z" fill="#0B8E85"/>
<path d="M725.08 173.99C723.58 173.6 722.12 175.31 720.42 174.32C719.51 173.79 719.31 172.91 719.15 172.05L713.74 192.41L720.25 190.37L724.87 195.4L728.45 181.95L726.66 175.27C726.2 174.71 725.75 174.18 725.06 173.99H725.08Z" fill="#0B8E85"/>
<path d="M715.05 167.51C715.7 168.69 717.72 168 719.09 169.38C720.46 170.76 719.77 172.8 720.91 173.46C722.08 174.15 723.48 172.54 725.34 173.03C727.2 173.56 727.62 175.63 728.95 175.63C730.28 175.63 730.71 173.56 732.56 173.03C734.45 172.54 735.85 174.15 736.99 173.46C738.16 172.8 737.48 170.76 738.85 169.38C740.22 168 742.2 168.69 742.89 167.51C743.54 166.36 741.98 164.94 742.47 163.07C742.96 161.16 745.04 160.77 745.04 159.42C745.04 158.07 742.96 157.64 742.47 155.74C741.98 153.87 743.54 152.45 742.89 151.3C742.21 150.12 740.22 150.81 738.85 149.43C737.48 148.05 738.17 146.01 736.99 145.35C735.85 144.66 734.45 146.27 732.56 145.78C730.7 145.25 730.28 143.18 728.95 143.18C727.62 143.18 727.19 145.25 725.34 145.78C723.48 146.27 722.08 144.66 720.91 145.35C719.77 146.01 720.45 148.05 719.09 149.43C717.72 150.81 715.7 150.12 715.05 151.3C714.37 152.45 715.96 153.87 715.44 155.74C714.95 157.65 712.87 158.08 712.87 159.42C712.87 160.76 714.95 161.16 715.44 163.07C715.96 164.94 714.37 166.36 715.05 167.51ZM728.95 148.2C735.07 148.2 740.05 153.2 740.05 159.42C740.05 165.64 735.07 170.6 728.95 170.6C722.83 170.6 717.88 165.6 717.88 159.42C717.88 153.24 722.83 148.2 728.95 148.2Z" fill="#0B8E85"/>
<path d="M737.49 174.32C735.83 175.31 734.36 173.6 732.83 173.99C731.3 174.42 730.91 176.62 728.95 176.62C728.59 176.62 728.27 176.55 728.01 176.42L733.06 195.4L737.68 190.37L744.16 192.41L738.79 172.05C738.59 172.91 738.4 173.79 737.49 174.32Z" fill="#0B8E85"/>
<path d="M750.58 102.12H695.12C698.47 102.12 701.21 104.92 701.21 108.3V172.6H717.98L718.6 170.33C718.53 170.23 718.47 170.17 718.37 170.07C717.26 168.95 715.15 169.71 714.2 168C713.22 166.32 714.92 164.84 714.49 163.3C714.1 161.79 711.88 161.36 711.88 159.42C711.88 157.48 714.09 157.02 714.49 155.51C714.91 153.96 713.22 152.48 714.2 150.81C715.14 149.1 717.26 149.86 718.37 148.74C719.51 147.59 718.76 145.48 720.42 144.5C722.11 143.51 723.58 145.22 725.08 144.83C726.61 144.4 727.03 142.2 728.96 142.2C730.89 142.2 731.3 144.4 732.84 144.83C734.37 145.22 735.84 143.51 737.5 144.5C739.19 145.49 738.44 147.59 739.55 148.74C740.66 149.86 742.77 149.1 743.75 150.81C744.73 152.49 743.03 153.97 743.42 155.51C743.84 157.02 746.03 157.45 746.03 159.42C746.03 161.39 743.85 161.79 743.42 163.3C743.03 164.85 744.72 166.33 743.75 168C742.77 169.71 740.66 168.95 739.55 170.07C739.48 170.17 739.42 170.23 739.35 170.33L739.94 172.6H756.71V108.3C756.71 104.91 753.97 102.12 750.59 102.12H750.58ZM737.97 136.36C737.97 136.85 737.55 137.31 737.03 137.31H706.78C706.26 137.31 705.84 136.85 705.84 136.36V136.33C705.84 135.84 706.26 135.38 706.78 135.38H737.03C737.55 135.38 737.97 135.84 737.97 136.33V136.36ZM751.13 131.33H706.78C706.26 131.33 705.84 130.9 705.84 130.38C705.84 129.86 706.26 129.43 706.78 129.43H751.13C751.65 129.43 752.07 129.86 752.07 130.38C752.07 130.9 751.65 131.33 751.13 131.33ZM751.13 125.38H706.78C706.26 125.38 705.84 124.95 705.84 124.43C705.84 123.91 706.26 123.48 706.78 123.48H751.13C751.65 123.48 752.07 123.91 752.07 124.43C752.07 124.95 751.65 125.38 751.13 125.38ZM751.13 119.39H706.78C706.26 119.39 705.84 118.96 705.84 118.44C705.84 117.92 706.26 117.49 706.78 117.49H751.13C751.65 117.49 752.07 117.92 752.07 118.44C752.07 118.96 751.65 119.39 751.13 119.39ZM751.13 113.44H706.78C706.26 113.44 705.84 113.01 705.84 112.49C705.84 111.97 706.26 111.54 706.78 111.54H751.13C751.65 111.54 752.07 111.97 752.07 112.49C752.07 113.01 751.65 113.44 751.13 113.44Z" fill="#0B8E85"/>
<path d="M972.09 189.78L958.83 191.15H972.09V189.78Z" fill="#0B8E85"/>
<path d="M910.78 191.15L897.48 189.78V191.15H910.78Z" fill="#0B8E85"/>
<path d="M913.99 116.63C920.13 116.63 925.06 111.59 925.06 105.45C925.06 99.3101 920.13 94.3301 913.99 94.3301C907.85 94.3301 902.98 99.3101 902.98 105.45C902.98 111.59 907.91 116.63 913.99 116.63Z" fill="#0B8E85"/>
<path d="M953.4 164.37C959.48 164.37 964.41 159.39 964.41 153.25C964.41 147.11 959.48 142.13 953.4 142.13C947.32 142.13 942.39 147.11 942.39 153.25C942.39 159.39 947.32 164.37 953.4 164.37Z" fill="#0B8E85"/>
<path d="M933.72 119.53C927.64 119.53 922.65 124.51 922.65 130.65C922.65 136.79 927.64 141.77 933.72 141.77C939.8 141.77 944.73 136.79 944.73 130.65C944.73 124.51 939.8 119.53 933.72 119.53Z" fill="#0B8E85"/>
<path d="M913.99 142.12C907.91 142.12 902.98 147.1 902.98 153.24C902.98 159.38 907.91 164.36 913.99 164.36C920.07 164.36 925.06 159.38 925.06 153.24C925.06 147.1 920.13 142.12 913.99 142.12Z" fill="#0B8E85"/>
<path d="M907.11 130.65C907.11 132.62 906.65 134.53 905.85 136.15C908.72 136.61 911.13 138.18 912.73 140.44C913.13 140.38 913.59 140.38 913.99 140.38C914.45 140.38 914.91 140.38 915.31 140.44C916.92 138.18 919.33 136.62 922.19 136.15C921.39 134.53 920.93 132.62 920.93 130.65C920.93 124.16 925.75 118.77 931.94 117.9C930.68 114.95 927.87 112.86 924.6 112.63C922.31 116.05 918.41 118.37 913.99 118.37C909.57 118.37 905.73 116.05 903.44 112.63C901.3 112.78 899.36 113.74 897.92 115.21C898.51 116.37 898.98 117.59 899.33 118.87C903.88 120.84 907.11 125.36 907.11 130.65Z" fill="#0B8E85"/>
<path d="M977.98 140.36C972.87 136.8 969.51 130.86 969.51 124.14C969.51 122.74 969.66 121.37 969.94 120.05C965.4 121.42 962.06 125.63 962.06 130.66C962.06 136.8 966.99 141.78 973.07 141.78C974.67 141.78 976.18 141.42 977.55 140.8C977.69 140.65 977.84 140.51 977.98 140.37V140.36Z" fill="#0B8E85"/>
<path d="M963.95 112.63C961.66 116.05 957.81 118.37 953.4 118.37C948.99 118.37 945.08 116.05 942.79 112.63C939.52 112.86 936.71 114.95 935.51 117.9C941.7 118.77 946.47 124.16 946.47 130.65C946.47 132.62 946.01 134.53 945.21 136.15C948.08 136.61 950.54 138.18 952.09 140.44C952.55 140.38 952.95 140.38 953.41 140.38C953.81 140.38 954.27 140.38 954.67 140.44C956.28 138.18 958.74 136.62 961.55 136.15C960.8 134.53 960.35 132.62 960.35 130.65C960.35 124.46 964.69 119.33 970.46 118.1C970.58 117.73 970.72 117.37 970.86 117C969.49 114.53 966.94 112.83 963.96 112.63H963.95Z" fill="#0B8E85"/>
<path d="M953.4 116.63C959.48 116.63 964.41 111.59 964.41 105.45C964.41 99.3101 959.48 94.3301 953.4 94.3301C947.32 94.3301 942.39 99.3101 942.39 105.45C942.39 111.59 947.32 116.63 953.4 116.63Z" fill="#0B8E85"/>
<path d="M972.09 154.84C972.09 150.66 973.38 146.63 975.67 143.22C974.83 143.4 973.96 143.51 973.07 143.51C968.65 143.51 964.75 141.25 962.46 137.83C960.17 137.95 958.04 139.1 956.61 140.78C962.06 142.23 966.13 147.27 966.13 153.24C966.13 155.21 965.67 157.06 964.93 158.74C967.88 159.2 970.45 160.97 972.03 163.44L972.09 163.28V154.83V154.84Z" fill="#0B8E85"/>
<path d="M933.72 143.51C929.3 143.51 925.4 141.25 923.11 137.83C920.76 137.95 918.69 139.1 917.2 140.78C922.71 142.23 926.78 147.27 926.78 153.24C926.78 155.21 926.32 157.06 925.52 158.74C929.31 159.32 932.46 161.98 933.72 165.52C934.98 161.99 938.08 159.32 941.87 158.74C941.07 157.06 940.67 155.21 940.67 153.24C940.67 147.27 944.69 142.23 950.19 140.78C948.76 139.1 946.63 137.94 944.28 137.83C941.99 141.25 938.14 143.51 933.73 143.51H933.72Z" fill="#0B8E85"/>
<path d="M891.58 140.36C891.97 140.76 892.33 141.18 892.69 141.61C893.23 141.69 893.76 141.78 894.32 141.78C900.4 141.78 905.39 136.8 905.39 130.66C905.39 126.54 903.12 122.98 899.8 121.06C899.96 122.07 900.06 123.09 900.06 124.15C900.06 130.87 896.7 136.82 891.59 140.37L891.58 140.36Z" fill="#0B8E85"/>
<path d="M920.83 173.69C926.23 174.23 929.07 177.39 929.84 180.71H932.58V169.01C932.58 164.43 929.02 160.73 924.61 160.44C922.32 163.86 918.42 166.12 914 166.12C909.58 166.12 905.74 163.86 903.45 160.44C901.09 160.59 899 161.74 897.55 163.45L899.37 168.34L920.84 173.69H920.83Z" fill="#0B8E85"/>
<path d="M948.74 173.69L970.21 168.34L971.22 165.62C969.99 162.72 967.24 160.65 963.95 160.44C961.66 163.86 957.81 166.12 953.4 166.12C948.99 166.12 945.08 163.86 942.79 160.44C938.37 160.73 934.82 164.44 934.82 169.01V180.71H939.76C940.53 177.39 943.36 174.23 948.74 173.69Z" fill="#0B8E85"/>
<path d="M897.48 161.03C898.9 159.85 900.63 159.04 902.52 158.75C901.72 157.07 901.26 155.22 901.26 153.25C901.26 147.28 905.33 142.24 910.84 140.79C909.35 139.11 907.28 137.95 904.93 137.84C902.64 141.26 898.74 143.52 894.32 143.52C894.24 143.52 894.16 143.51 894.08 143.5C896.26 146.85 897.48 150.77 897.48 154.84V161.03Z" fill="#0B8E85"/>
<path d="M951.24 189.31L978.66 186.47C981.64 186.24 984.4 184.27 985.54 181.2L995.46 154.84C992.25 165.09 990.3 172.74 986.63 182.88C984.68 188.38 979.12 188.33 974.7 188.85V191.16H1010.72V154.85C1010.72 147.84 1006.76 141.7 1000.91 138.69C997.7 141.35 993.57 142.98 989.04 142.98C986.17 142.98 983.42 142.34 980.95 141.13C977.11 144.49 974.7 149.41 974.7 154.86V163.78L972.18 170.56L949.18 176.3C938.51 177.23 940.52 190.26 951.25 189.34L951.24 189.31Z" fill="#0B8E85"/>
<path d="M894.86 188.85C890.5 188.33 884.88 188.39 882.93 182.88C879.32 172.74 877.31 165.09 874.1 154.84L884.02 181.2C885.17 184.27 887.92 186.24 890.9 186.47L918.37 189.31C929.04 190.24 931.1 177.2 920.38 176.27L897.38 170.53L894.86 163.75V154.83C894.86 149.38 892.45 144.46 888.61 141.1C886.2 142.32 883.45 142.95 880.52 142.95C875.99 142.95 871.86 141.33 868.65 138.66C862.86 141.67 858.84 147.81 858.84 154.82V191.13H894.86V188.82V188.85Z" fill="#0B8E85"/>
<path d="M880.52 141.22C889.864 141.22 897.44 133.569 897.44 124.13C897.44 114.691 889.864 107.04 880.52 107.04C871.175 107.04 863.6 114.691 863.6 124.13C863.6 133.569 871.175 141.22 880.52 141.22Z" fill="#0B8E85"/>
<path d="M989.04 141.22C998.39 141.22 1006.02 133.57 1006.02 124.13C1006.02 114.69 998.39 107.04 989.04 107.04C979.69 107.04 972.12 114.69 972.12 124.13C972.12 133.57 979.69 141.22 989.04 141.22Z" fill="#0B8E85"/>
<path d="M32.7768 228.467H30.9602V227.234H27.5102V225.6H30.9602V215.667H32.7768V228.467ZM25.4268 222.084C24.7157 222.084 24.0824 221.956 23.5268 221.7C22.9713 221.445 22.5379 221.084 22.2268 220.617C21.9157 220.139 21.7602 219.595 21.7602 218.984C21.7602 218.362 21.9157 217.817 22.2268 217.35C22.5379 216.873 22.9713 216.506 23.5268 216.25C24.0824 215.995 24.7157 215.867 25.4268 215.867C26.1379 215.867 26.7713 215.995 27.3268 216.25C27.8824 216.506 28.3157 216.873 28.6268 217.35C28.9379 217.817 29.0935 218.362 29.0935 218.984C29.0935 219.595 28.9379 220.139 28.6268 220.617C28.3157 221.084 27.8824 221.445 27.3268 221.7C26.7713 221.956 26.1379 222.084 25.4268 222.084ZM25.4268 217.384C24.849 217.384 24.3768 217.534 24.0102 217.834C23.6546 218.123 23.4768 218.506 23.4768 218.984C23.4768 219.45 23.6546 219.828 24.0102 220.117C24.3768 220.406 24.849 220.55 25.4268 220.55C26.0046 220.55 26.4713 220.406 26.8268 220.117C27.1824 219.828 27.3602 219.45 27.3602 218.984C27.3602 218.506 27.1824 218.123 26.8268 217.834C26.4713 217.534 26.0046 217.384 25.4268 217.384ZM30.0768 224.117C29.3102 224.439 28.0824 224.6 26.3935 224.6H26.1435V228.467H24.3435V224.6H21.1435V222.934H26.4102C28.1213 222.934 29.3435 222.773 30.0768 222.45V224.117ZM35.0917 222.45V220.684H43.9417V217.834H35.0917V216.067H45.7584V225.1H43.9417V222.45H35.0917ZM46.5584 227.917H34.3417V226.15H46.5584V227.917ZM53.59 218.167C52.89 218.834 52.0233 219.35 50.99 219.717C49.9678 220.084 48.9566 220.278 47.9566 220.3V218.75C48.7455 218.717 49.5178 218.562 50.2733 218.284C51.04 217.995 51.69 217.595 52.2233 217.084C52.7566 216.573 53.09 215.989 53.2233 215.334L55.04 215.667C54.9622 216.078 54.8011 216.506 54.5566 216.95L59.4733 218.884L58.8566 220.317L53.59 218.167ZM59.7566 222.734H47.54V221.267H50.6733V219.917H52.4566V221.267H54.84V219.917H56.6233V221.267H59.7566V222.734ZM58.9733 223.484V228.367H48.34V223.484H50.1233V224.484H57.2066V223.484H58.9733ZM57.2066 225.867H50.1233V226.967H57.2066V225.867ZM73.7674 222.6V215.667H75.5674V222.6H73.7674ZM64.5341 221.7V215.917H71.9008V221.7H64.5341ZM66.3341 217.467V220.134H70.1174V217.467H66.3341ZM70.1174 226.75C69.5174 227.284 68.7508 227.684 67.8174 227.95C66.8952 228.228 65.9119 228.367 64.8674 228.367V226.8C65.8897 226.8 66.823 226.634 67.6674 226.3C68.5119 225.967 69.0786 225.512 69.3674 224.934H64.9841V223.4H69.4008V222.284H71.2341V223.4H75.6674V224.934H71.3174C71.2841 225.1 71.223 225.289 71.1341 225.5L76.0174 227L75.5174 228.534L70.1174 226.75ZM92.3949 228.467H90.6949V215.667H92.3949V228.467ZM89.2783 215.734V228.25H87.5783V221.667H85.8949V219.867H87.5783V215.734H89.2783ZM84.7283 216.017C84.7283 218.028 84.6394 219.762 84.4616 221.217L87.3283 226.834L85.8449 227.617L83.9116 223.8C83.256 226.2 82.1505 227.523 80.5949 227.767V225.85C82.1949 225.395 83.006 222.095 83.0283 215.95L84.7283 216.017ZM103.46 228.467V215.667H105.26V228.467H103.46ZM94.3765 227.767V216.067H101.393V227.767H94.3765ZM99.5932 217.834H96.1765V226H99.5932V217.834ZM118.108 222.484V228.467H116.308V215.667H118.108V220.65H119.708V222.484H118.108ZM112.308 226.017C112.897 226.017 113.475 225.967 114.041 225.867C114.619 225.756 115.091 225.612 115.458 225.434V227.167C115.103 227.356 114.63 227.506 114.041 227.617C113.453 227.717 112.853 227.767 112.241 227.767H107.441V215.984H109.291V226.017H112.308ZM133.252 218.634H131.486L131.369 216.95H133.252V215.667H135.036V225.167H133.252V222.084H131.352L131.469 220.4H133.252V218.634ZM131.102 219.517C131.102 220.25 130.947 220.906 130.636 221.484C130.324 222.05 129.874 222.495 129.286 222.817C128.708 223.128 128.036 223.284 127.269 223.284C126.502 223.284 125.83 223.128 125.252 222.817C124.674 222.495 124.23 222.05 123.919 221.484C123.608 220.906 123.452 220.25 123.452 219.517C123.452 218.784 123.608 218.134 123.919 217.567C124.23 216.989 124.674 216.545 125.252 216.234C125.83 215.912 126.502 215.75 127.269 215.75C128.036 215.75 128.708 215.912 129.286 216.234C129.874 216.545 130.324 216.989 130.636 217.567C130.947 218.134 131.102 218.784 131.102 219.517ZM125.219 219.517C125.219 220.195 125.408 220.728 125.786 221.117C126.163 221.506 126.658 221.7 127.269 221.7C127.88 221.7 128.369 221.506 128.736 221.117C129.113 220.728 129.302 220.195 129.302 219.517C129.302 218.839 129.113 218.312 128.736 217.934C128.369 217.545 127.88 217.35 127.269 217.35C126.647 217.35 126.147 217.545 125.769 217.934C125.402 218.312 125.219 218.839 125.219 219.517ZM135.252 228.367H124.619V224.067H126.436V226.667H135.252V228.367ZM142.6 219.467C141.912 220.4 141.062 221.139 140.05 221.684C139.05 222.228 138 222.506 136.9 222.517V220.717C137.734 220.717 138.539 220.495 139.317 220.05C140.095 219.595 140.75 218.973 141.284 218.184C141.817 217.384 142.162 216.5 142.317 215.534L144.167 215.834C144.034 216.612 143.8 217.339 143.467 218.017L148.65 220.917L147.784 222.5L142.6 219.467ZM143.65 225.467V228.767H141.8V225.467H136.617V223.7H148.834V225.467H143.65Z" fill="#333333"/>
<path d="M3 207.45H167" stroke="#43AFA7" stroke-width="5.67" stroke-miterlimit="10" stroke-linecap="round"/>
<path d="M254.51 218.25C253.832 218.928 252.988 219.473 251.977 219.884C250.977 220.284 249.938 220.495 248.86 220.517V218.95C249.649 218.917 250.421 218.745 251.177 218.434C251.943 218.123 252.593 217.7 253.127 217.167C253.66 216.623 253.993 216.012 254.127 215.334L255.943 215.667C255.843 216.145 255.677 216.589 255.443 217L260.41 219.1L259.76 220.55L254.51 218.25ZM260.66 222.934H248.443V221.434H253.66V219.684H255.46V221.434H260.66V222.934ZM254.56 223.734C256.216 223.734 257.538 223.928 258.527 224.317C259.516 224.695 260.01 225.306 260.01 226.15C260.01 226.995 259.516 227.606 258.527 227.984C257.538 228.373 256.216 228.567 254.56 228.567C252.904 228.567 251.582 228.373 250.593 227.984C249.604 227.606 249.11 226.995 249.11 226.15C249.11 225.306 249.599 224.695 250.577 224.317C251.566 223.928 252.893 223.734 254.56 223.734ZM254.56 227.117C255.604 227.117 256.454 227.039 257.11 226.884C257.766 226.728 258.093 226.484 258.093 226.15C258.093 225.817 257.766 225.573 257.11 225.417C256.454 225.262 255.604 225.184 254.56 225.184C253.516 225.184 252.66 225.262 251.993 225.417C251.338 225.573 251.01 225.817 251.01 226.15C251.01 226.484 251.338 226.728 251.993 226.884C252.66 227.039 253.516 227.117 254.56 227.117ZM267.375 220.95V219.434H271.475V218.3H267.375V216.8H271.475V215.667H273.258V225.2H271.475V220.95H267.375ZM270.142 223.334C269.786 223.467 269.297 223.573 268.675 223.65C268.053 223.717 267.369 223.75 266.625 223.75H262.092V215.834H263.925V222.167H266.708C268.253 222.167 269.397 222.034 270.142 221.767V223.334ZM273.475 228.367H262.692V224.65H264.525V226.684H273.475V228.367ZM274.906 218.634V217H278.14V215.55H279.99V217H283.256V218.634H274.906ZM286.39 228.467H284.606V215.667H286.39V228.467ZM279.973 226.084C281.718 226.084 282.962 225.906 283.706 225.55V227.25C283.329 227.417 282.818 227.545 282.173 227.634C281.54 227.723 280.829 227.767 280.04 227.767H274.84V226.084H278.173V224.5C277.329 224.378 276.668 224.095 276.19 223.65C275.712 223.206 275.473 222.634 275.473 221.934C275.473 221.1 275.801 220.45 276.456 219.984C277.112 219.506 277.99 219.267 279.09 219.267C280.19 219.267 281.068 219.506 281.723 219.984C282.379 220.45 282.706 221.1 282.706 221.934C282.706 222.634 282.462 223.212 281.973 223.667C281.495 224.112 280.829 224.389 279.973 224.5V226.084ZM277.173 221.934C277.173 222.278 277.34 222.556 277.673 222.767C278.018 222.967 278.49 223.067 279.09 223.067C279.69 223.067 280.156 222.967 280.49 222.767C280.834 222.556 281.006 222.278 281.006 221.934C281.006 221.589 280.834 221.312 280.49 221.1C280.156 220.889 279.69 220.784 279.09 220.784C278.49 220.784 278.018 220.889 277.673 221.1C277.34 221.312 277.173 221.589 277.173 221.934ZM301.067 222.6V215.667H302.867V222.6H301.067ZM291.834 221.7V215.917H299.201V221.7H291.834ZM293.634 217.467V220.134H297.417V217.467H293.634ZM297.417 226.75C296.817 227.284 296.051 227.684 295.117 227.95C294.195 228.228 293.212 228.367 292.167 228.367V226.8C293.189 226.8 294.123 226.634 294.967 226.3C295.812 225.967 296.378 225.512 296.667 224.934H292.284V223.4H296.701V222.284H298.534V223.4H302.967V224.934H298.617C298.584 225.1 298.523 225.289 298.434 225.5L303.317 227L302.817 228.534L297.417 226.75ZM317.561 225.167V215.667H319.361V225.167H317.561ZM312.145 220.434C311.667 221.245 311.073 221.906 310.361 222.417C309.65 222.917 308.867 223.212 308.011 223.3V221.534C308.723 221.412 309.345 221.084 309.878 220.55C310.411 220.006 310.828 219.317 311.128 218.484C311.428 217.639 311.584 216.728 311.595 215.75L313.411 215.867C313.411 216.934 313.239 217.95 312.895 218.917L316.645 221.784L315.578 223.15L312.145 220.434ZM319.628 228.367H308.811V224.134H310.645V226.667H319.628V228.367ZM326.76 220.95V219.434H330.86V218.3H326.76V216.8H330.86V215.667H332.643V225.2H330.86V220.95H326.76ZM329.526 223.334C329.171 223.467 328.682 223.573 328.06 223.65C327.437 223.717 326.754 223.75 326.01 223.75H321.476V215.834H323.31V222.167H326.093C327.637 222.167 328.782 222.034 329.526 221.767V223.334ZM332.86 228.367H322.076V224.65H323.91V226.684H332.86V228.367ZM334.291 218.634V217H337.525V215.55H339.375V217H342.641V218.634H334.291ZM345.775 228.467H343.991V215.667H345.775V228.467ZM339.358 226.084C341.102 226.084 342.347 225.906 343.091 225.55V227.25C342.713 227.417 342.202 227.545 341.558 227.634C340.925 227.723 340.213 227.767 339.425 227.767H334.225V226.084H337.558V224.5C336.713 224.378 336.052 224.095 335.575 223.65C335.097 223.206 334.858 222.634 334.858 221.934C334.858 221.1 335.186 220.45 335.841 219.984C336.497 219.506 337.375 219.267 338.475 219.267C339.575 219.267 340.452 219.506 341.108 219.984C341.763 220.45 342.091 221.1 342.091 221.934C342.091 222.634 341.847 223.212 341.358 223.667C340.88 224.112 340.213 224.389 339.358 224.5V226.084ZM336.558 221.934C336.558 222.278 336.725 222.556 337.058 222.767C337.402 222.967 337.875 223.067 338.475 223.067C339.075 223.067 339.541 222.967 339.875 222.767C340.219 222.556 340.391 222.278 340.391 221.934C340.391 221.589 340.219 221.312 339.875 221.1C339.541 220.889 339.075 220.784 338.475 220.784C337.875 220.784 337.402 220.889 337.058 221.1C336.725 221.312 336.558 221.589 336.558 221.934Z" fill="#333333"/>
<path d="M215.46 207.45H379.46" stroke="#43AFA7" stroke-width="5.67" stroke-miterlimit="10" stroke-linecap="round"/>
<path d="M427.89 219.1C427.868 220.278 427.812 221.184 427.723 221.817L430.557 226.767L429.157 227.634L427.223 224.184C426.579 226.406 425.49 227.6 423.957 227.767V225.95C424.657 225.817 425.195 225.145 425.573 223.934C425.951 222.712 426.151 221.1 426.173 219.1H424.123V217.384H426.173V215.634H427.89V217.384H429.94V219.1H427.89ZM435.79 228.467H434.09V215.667H435.79V228.467ZM432.673 215.734V228.25H430.973V222.517H429.423V220.734H430.973V215.734H432.673ZM443.238 220.967C441.616 220.967 440.299 220.739 439.288 220.284C438.277 219.828 437.772 219.15 437.772 218.25C437.772 217.339 438.277 216.662 439.288 216.217C440.299 215.762 441.616 215.534 443.238 215.534C444.86 215.534 446.177 215.762 447.188 216.217C448.199 216.662 448.705 217.339 448.705 218.25C448.705 219.15 448.199 219.828 447.188 220.284C446.177 220.739 444.86 220.967 443.238 220.967ZM443.238 217.017C442.194 217.017 441.338 217.128 440.672 217.35C440.005 217.562 439.672 217.862 439.672 218.25C439.672 218.65 439.999 218.956 440.655 219.167C441.322 219.378 442.183 219.484 443.238 219.484C444.294 219.484 445.149 219.378 445.805 219.167C446.46 218.956 446.788 218.65 446.788 218.25C446.788 217.862 446.455 217.562 445.788 217.35C445.133 217.128 444.283 217.017 443.238 217.017ZM446.422 224.617H448.555V228.534H446.722V226.15H437.838V224.617H440.055V223.267H437.122V221.75H449.338V223.267H446.422V224.617ZM441.822 223.267V224.617H444.638V223.267H441.822ZM462.186 228.467H460.486V222.434H458.886V228.25H457.203V215.734H458.886V220.65H460.486V215.667H462.186V228.467ZM453.62 226.1C454.12 226.1 454.62 226.062 455.12 225.984C455.631 225.895 456.075 225.778 456.453 225.634V227.284C456.098 227.439 455.642 227.562 455.086 227.65C454.542 227.728 453.992 227.767 453.436 227.767H450.653V216.067H455.92V217.734H452.37V226.1H453.62ZM463.585 218.634V217H466.818V215.55H468.668V217H471.935V218.634H463.585ZM475.068 228.467H473.285V215.667H475.068V228.467ZM468.651 226.084C470.396 226.084 471.64 225.906 472.385 225.55V227.25C472.007 227.417 471.496 227.545 470.851 227.634C470.218 227.723 469.507 227.767 468.718 227.767H463.518V226.084H466.851V224.5C466.007 224.378 465.346 224.095 464.868 223.65C464.39 223.206 464.151 222.634 464.151 221.934C464.151 221.1 464.479 220.45 465.135 219.984C465.79 219.506 466.668 219.267 467.768 219.267C468.868 219.267 469.746 219.506 470.401 219.984C471.057 220.45 471.385 221.1 471.385 221.934C471.385 222.634 471.14 223.212 470.651 223.667C470.174 224.112 469.507 224.389 468.651 224.5V226.084ZM465.851 221.934C465.851 222.278 466.018 222.556 466.351 222.767C466.696 222.967 467.168 223.067 467.768 223.067C468.368 223.067 468.835 222.967 469.168 222.767C469.512 222.556 469.685 222.278 469.685 221.934C469.685 221.589 469.512 221.312 469.168 221.1C468.835 220.889 468.368 220.784 467.768 220.784C467.168 220.784 466.696 220.889 466.351 221.1C466.018 221.312 465.851 221.589 465.851 221.934ZM478.233 225.484C478.6 225.484 478.9 225.606 479.133 225.85C479.366 226.084 479.483 226.378 479.483 226.734C479.483 226.912 479.461 227.089 479.416 227.267C479.372 227.434 479.283 227.695 479.15 228.05L478.316 230.4H477.066L477.733 227.867C477.5 227.778 477.311 227.634 477.166 227.434C477.033 227.234 476.966 227 476.966 226.734C476.966 226.367 477.083 226.067 477.316 225.834C477.561 225.6 477.866 225.484 478.233 225.484ZM496.765 220.35H495.165V225.167H493.365V215.667H495.165V218.517H496.765V220.35ZM492.615 222.45C492.26 222.617 491.765 222.75 491.132 222.85C490.51 222.939 489.826 222.984 489.082 222.984H484.349V215.917H491.815V217.534H486.165V221.367H489.182C489.904 221.367 490.565 221.323 491.165 221.234C491.765 221.145 492.249 221.017 492.615 220.85V222.45ZM495.449 226.667V228.367H484.765V224.084H486.599V226.667H495.449ZM497.13 218.017V216.6H500.33V215.434H502.18V216.6H505.413V218.017H497.13ZM508.363 219.917V222.934H506.563V215.667H508.363V218.134H509.963V219.917H508.363ZM501.263 223.067C500.219 223.067 499.352 222.867 498.663 222.467C497.975 222.056 497.63 221.5 497.63 220.8C497.63 220.1 497.975 219.55 498.663 219.15C499.352 218.739 500.219 218.534 501.263 218.534C502.308 218.534 503.169 218.739 503.847 219.15C504.536 219.55 504.88 220.1 504.88 220.8C504.88 221.5 504.536 222.056 503.847 222.467C503.169 222.867 502.308 223.067 501.263 223.067ZM501.263 219.884C500.686 219.884 500.219 219.973 499.863 220.15C499.519 220.317 499.347 220.534 499.347 220.8C499.347 221.078 499.519 221.306 499.863 221.484C500.219 221.65 500.686 221.734 501.263 221.734C501.841 221.734 502.302 221.65 502.647 221.484C503.002 221.306 503.18 221.078 503.18 220.8C503.18 220.534 503.002 220.317 502.647 220.15C502.302 219.973 501.841 219.884 501.263 219.884ZM508.363 223.434V228.367H497.963V223.434H499.73V224.467H506.613V223.434H508.363ZM506.613 225.834H499.73V226.917H506.613V225.834ZM510.445 218.634V217H513.678V215.55H515.528V217H518.795V218.634H510.445ZM521.928 228.467H520.145V215.667H521.928V228.467ZM515.512 226.084C517.256 226.084 518.501 225.906 519.245 225.55V227.25C518.867 227.417 518.356 227.545 517.712 227.634C517.078 227.723 516.367 227.767 515.578 227.767H510.378V226.084H513.712V224.5C512.867 224.378 512.206 224.095 511.728 223.65C511.251 223.206 511.012 222.634 511.012 221.934C511.012 221.1 511.339 220.45 511.995 219.984C512.651 219.506 513.528 219.267 514.628 219.267C515.728 219.267 516.606 219.506 517.262 219.984C517.917 220.45 518.245 221.1 518.245 221.934C518.245 222.634 518.001 223.212 517.512 223.667C517.034 224.112 516.367 224.389 515.512 224.5V226.084ZM512.712 221.934C512.712 222.278 512.878 222.556 513.212 222.767C513.556 222.967 514.028 223.067 514.628 223.067C515.228 223.067 515.695 222.967 516.028 222.767C516.373 222.556 516.545 222.278 516.545 221.934C516.545 221.589 516.373 221.312 516.028 221.1C515.695 220.889 515.228 220.784 514.628 220.784C514.028 220.784 513.556 220.889 513.212 221.1C512.878 221.312 512.712 221.589 512.712 221.934ZM525.093 225.484C525.46 225.484 525.76 225.606 525.993 225.85C526.227 226.084 526.343 226.378 526.343 226.734C526.343 226.912 526.321 227.089 526.277 227.267C526.232 227.434 526.143 227.695 526.01 228.05L525.177 230.4H523.927L524.593 227.867C524.36 227.778 524.171 227.634 524.027 227.434C523.893 227.234 523.827 227 523.827 226.734C523.827 226.367 523.943 226.067 524.177 225.834C524.421 225.6 524.727 225.484 525.093 225.484ZM542.709 228.467H541.009V215.667H542.709V228.467ZM539.709 215.734V228.25H538.026V222.55H536.726V220.75H538.026V215.734H539.709ZM533.876 226.134C535.22 226.134 536.303 225.956 537.126 225.6V227.234C536.748 227.4 536.253 227.534 535.642 227.634C535.042 227.723 534.403 227.767 533.726 227.767H531.159V221.05H534.426V217.7H531.159V216.067H536.092V222.667H532.842V226.134H533.876ZM544.79 222.45V220.684H553.64V217.834H544.79V216.067H555.457V225.1H553.64V222.45H544.79ZM556.257 227.917H544.04V226.15H556.257V227.917ZM569.105 228.467H567.405V215.667H569.105V228.467ZM566.105 215.734V228.25H564.422V222.55H563.122V220.75H564.422V215.734H566.105ZM560.272 226.134C561.616 226.134 562.7 225.956 563.522 225.6V227.234C563.144 227.4 562.65 227.534 562.039 227.634C561.439 227.723 560.8 227.767 560.122 227.767H557.555V221.05H560.822V217.7H557.555V216.067H562.489V222.667H559.239V226.134H560.272ZM580.17 228.467V215.667H581.987V228.467H580.17ZM574.654 215.9C575.798 215.9 576.704 216.406 577.37 217.417C578.037 218.417 578.37 219.917 578.37 221.917C578.37 223.917 578.037 225.423 577.37 226.434C576.704 227.434 575.798 227.934 574.654 227.934C573.498 227.934 572.581 227.434 571.904 226.434C571.237 225.423 570.904 223.917 570.904 221.917C570.904 219.917 571.237 218.417 571.904 217.417C572.581 216.406 573.498 215.9 574.654 215.9ZM574.654 217.65C574.054 217.65 573.576 217.995 573.22 218.684C572.865 219.373 572.687 220.45 572.687 221.917C572.687 223.384 572.865 224.462 573.22 225.15C573.576 225.839 574.054 226.184 574.654 226.184C575.243 226.184 575.709 225.839 576.054 225.15C576.409 224.462 576.587 223.384 576.587 221.917C576.587 220.45 576.409 219.373 576.054 218.684C575.709 217.995 575.243 217.65 574.654 217.65ZM591.119 221.117V219.55H593.469V218.334H591.119V216.767H593.469V215.667H595.252V225.167H593.469V221.117H591.119ZM587.669 220.667C587.191 221.489 586.607 222.156 585.919 222.667C585.241 223.178 584.485 223.478 583.652 223.567V221.8C584.341 221.689 584.941 221.345 585.452 220.767C585.974 220.189 586.374 219.462 586.652 218.584C586.941 217.695 587.091 216.75 587.102 215.75L588.919 215.867C588.919 216.989 588.746 218.067 588.402 219.1L592.019 222.184L590.885 223.484L587.669 220.667ZM595.469 228.367H584.685V224.2H586.519V226.667H595.469V228.367Z" fill="#333333"/>
<path d="M427.91 207.45H591.91" stroke="#43AFA7" stroke-width="5.67" stroke-miterlimit="10" stroke-linecap="round"/>
<path d="M683.077 228.467V215.667H684.877V228.467H683.077ZM680.743 219.3C680.743 221.012 680.46 222.506 679.893 223.784C679.338 225.05 678.543 226.028 677.51 226.717C676.477 227.406 675.271 227.75 673.893 227.75V225.95C674.938 225.95 675.832 225.684 676.577 225.15C677.332 224.606 677.904 223.839 678.293 222.85C678.693 221.85 678.893 220.673 678.893 219.317V217.8H673.893V216.067H680.743V219.3ZM698.158 222.317H696.358V219.817H694.091C693.903 220.539 693.486 221.117 692.841 221.55C692.197 221.984 691.391 222.2 690.425 222.2C689.658 222.2 688.986 222.067 688.408 221.8C687.83 221.534 687.38 221.156 687.058 220.667C686.747 220.178 686.591 219.617 686.591 218.984C686.591 218.35 686.747 217.789 687.058 217.3C687.38 216.812 687.83 216.434 688.408 216.167C688.986 215.9 689.658 215.767 690.425 215.767C691.369 215.767 692.164 215.973 692.808 216.384C693.464 216.795 693.886 217.35 694.075 218.05H696.358V215.667H698.158V222.317ZM690.425 220.634C691.036 220.634 691.519 220.489 691.875 220.2C692.241 219.9 692.425 219.495 692.425 218.984C692.425 218.473 692.241 218.067 691.875 217.767C691.508 217.467 691.025 217.317 690.425 217.317C689.814 217.317 689.325 217.467 688.958 217.767C688.591 218.067 688.408 218.473 688.408 218.984C688.408 219.495 688.591 219.9 688.958 220.2C689.325 220.489 689.814 220.634 690.425 220.634ZM698.158 222.834V228.367H687.741V222.834H689.508V224H696.375V222.834H698.158ZM696.375 225.5H689.508V226.85H696.375V225.5ZM709.506 228.467V215.667H711.306V228.467H709.506ZM703.94 215.867C704.673 215.867 705.329 216.039 705.906 216.384C706.484 216.728 706.934 217.212 707.256 217.834C707.579 218.445 707.74 219.145 707.74 219.934C707.74 220.734 707.579 221.445 707.256 222.067C706.934 222.678 706.484 223.156 705.906 223.5C705.329 223.845 704.673 224.017 703.94 224.017C703.206 224.017 702.545 223.845 701.956 223.5C701.379 223.156 700.929 222.678 700.606 222.067C700.284 221.445 700.123 220.734 700.123 219.934C700.123 219.134 700.284 218.428 700.606 217.817C700.929 217.206 701.379 216.728 701.956 216.384C702.545 216.039 703.206 215.867 703.94 215.867ZM703.94 217.567C703.317 217.567 702.817 217.795 702.44 218.25C702.062 218.695 701.873 219.256 701.873 219.934C701.873 220.634 702.062 221.206 702.44 221.65C702.817 222.095 703.317 222.317 703.94 222.317C704.562 222.317 705.062 222.095 705.44 221.65C705.817 221.195 706.006 220.623 706.006 219.934C706.006 219.256 705.812 218.695 705.423 218.25C705.045 217.795 704.551 217.567 703.94 217.567ZM708.606 227.184C708.217 227.373 707.69 227.517 707.023 227.617C706.356 227.717 705.634 227.767 704.856 227.767H699.74V226H704.956C705.712 226 706.412 225.956 707.056 225.867C707.701 225.767 708.217 225.623 708.606 225.434V227.184ZM727.417 219.9V222.817H725.617V215.667H727.417V218.067H729.017V219.9H727.417ZM716.6 222.3V215.867H718.367V217.484H722.084V215.867H723.834V222.3H716.6ZM722.084 218.984H718.367V220.75H722.084V218.984ZM727.417 223.417V228.367H717.017V223.417H727.417ZM725.617 226.8V224.984H718.817V226.8H725.617ZM744.261 228.467H742.461V215.667H744.261V228.467ZM738.361 216.017C738.361 217.85 738.2 219.584 737.878 221.217L741.695 226.65L740.228 227.75L737.261 223.417C736.784 224.773 736.172 225.828 735.428 226.584C734.695 227.328 733.856 227.723 732.911 227.767V225.834C733.645 225.723 734.278 225.228 734.811 224.35C735.356 223.462 735.772 222.289 736.061 220.834C736.361 219.378 736.517 217.75 736.528 215.95L738.361 216.017ZM758.71 219.734H757.11V222.734H755.31V215.667H757.11V217.917H758.71V219.734ZM750.143 219.884C749.665 220.639 749.065 221.25 748.343 221.717C747.632 222.173 746.832 222.45 745.943 222.55V220.834C746.654 220.723 747.271 220.434 747.793 219.967C748.326 219.5 748.732 218.906 749.01 218.184C749.298 217.45 749.448 216.639 749.46 215.75L751.26 215.867C751.26 216.767 751.126 217.617 750.86 218.417L754.443 220.85L753.526 222.234L750.143 219.884ZM751.943 223.05C753.554 223.05 754.843 223.273 755.81 223.717C756.776 224.15 757.26 224.839 757.26 225.784C757.26 226.739 756.776 227.439 755.81 227.884C754.843 228.317 753.554 228.534 751.943 228.534C750.332 228.534 749.043 228.317 748.076 227.884C747.11 227.439 746.626 226.739 746.626 225.784C746.626 224.839 747.11 224.15 748.076 223.717C749.054 223.273 750.343 223.05 751.943 223.05ZM751.943 226.984C752.954 226.984 753.771 226.884 754.393 226.684C755.015 226.484 755.326 226.184 755.326 225.784C755.326 225.384 755.015 225.089 754.393 224.9C753.771 224.7 752.954 224.6 751.943 224.6C750.932 224.6 750.115 224.7 749.493 224.9C748.871 225.089 748.56 225.384 748.56 225.784C748.56 226.184 748.871 226.484 749.493 226.684C750.115 226.884 750.932 226.984 751.943 226.984ZM770.658 223.3H768.858V215.667H770.658V223.3ZM763.441 220.267C762.952 221.034 762.352 221.662 761.641 222.15C760.93 222.628 760.152 222.912 759.308 223V221.25C760.019 221.128 760.641 220.812 761.174 220.3C761.719 219.789 762.141 219.139 762.441 218.35C762.741 217.55 762.897 216.684 762.908 215.75L764.724 215.867C764.724 216.878 764.552 217.856 764.208 218.8L767.891 221.45L766.891 222.817L763.441 220.267ZM770.658 223.9V228.534H768.824V225.534H760.024V223.9H770.658Z" fill="#333333"/>
<path d="M640.36 207.45H804.36" stroke="#43AFA7" stroke-width="5.67" stroke-miterlimit="10" stroke-linecap="round"/>
<path d="M903.577 222.484V228.467H901.777V215.667H903.577V220.65H905.177V222.484H903.577ZM899.527 216.067V219.3C899.527 221.012 899.255 222.506 898.71 223.784C898.177 225.05 897.405 226.028 896.393 226.717C895.382 227.406 894.188 227.75 892.81 227.75V225.95C894.366 225.939 895.566 225.35 896.41 224.184C897.266 223.006 897.693 221.384 897.693 219.317V217.8H892.81V216.067H899.527ZM911.358 219.3C910.725 219.812 909.953 220.212 909.042 220.5C908.131 220.778 907.186 220.928 906.208 220.95V219.4C907.22 219.378 908.17 219.178 909.058 218.8C909.947 218.412 910.531 217.906 910.808 217.284H906.375V215.767H917.042V217.284H912.775C912.731 217.539 912.642 217.789 912.508 218.034L917.375 219.467L916.875 220.967L911.358 219.3ZM917.808 223.434H905.592V221.884H910.808V220.4H912.608V221.884H917.808V223.434ZM917.025 224.45V228.534H915.192V226H906.308V224.45H917.025ZM928.086 221.3C927.486 222.089 926.691 222.717 925.703 223.184C924.725 223.639 923.641 223.895 922.453 223.95V222.2C923.63 222.134 924.658 221.789 925.536 221.167C926.414 220.545 926.98 219.739 927.236 218.75H922.736V217H927.253V215.5H929.103V217H933.653V218.75H929.203C929.136 219.162 929.036 219.528 928.903 219.85L934.053 222.434L933.286 224L928.086 221.3ZM934.303 227.917H922.086V226.167H927.286V223.517H929.103V226.167H934.303V227.917ZM939.451 220.75C938.995 221.406 938.429 221.939 937.751 222.35C937.084 222.762 936.345 223.006 935.534 223.084V221.45C936.356 221.35 937.034 221.017 937.567 220.45C938.112 219.873 938.462 219.167 938.617 218.334H935.651V216.767H938.667V215.434H940.501V216.767H943.484V218.334H940.467C940.379 218.8 940.295 219.139 940.217 219.35L943.734 221.584L942.917 222.967L939.451 220.75ZM945.101 215.667H946.901V223.284H945.101V220.2H943.051V218.5H945.101V215.667ZM941.634 223.6C943.279 223.6 944.59 223.795 945.567 224.184C946.545 224.573 947.034 225.2 947.034 226.067C947.034 226.934 946.545 227.562 945.567 227.95C944.59 228.339 943.279 228.534 941.634 228.534C939.99 228.534 938.679 228.339 937.701 227.95C936.734 227.562 936.251 226.934 936.251 226.067C936.251 225.2 936.734 224.573 937.701 224.184C938.679 223.795 939.99 223.6 941.634 223.6ZM941.634 227.05C942.69 227.05 943.529 226.973 944.151 226.817C944.784 226.662 945.101 226.412 945.101 226.067C945.101 225.723 944.784 225.473 944.151 225.317C943.517 225.15 942.679 225.067 941.634 225.067C940.59 225.067 939.751 225.15 939.117 225.317C938.484 225.473 938.167 225.723 938.167 226.067C938.167 226.412 938.479 226.662 939.101 226.817C939.734 226.973 940.579 227.05 941.634 227.05ZM951.545 218.05V216.65H953.945V215.467H955.745V216.65H958.045V218.05H951.545ZM958.762 223.134V215.734H960.428V218.5H961.978V215.667H963.645V223.584H961.978V220.2H960.428V223.134H958.762ZM957.795 220.967C957.795 221.689 957.517 222.267 956.962 222.7C956.406 223.134 955.712 223.35 954.878 223.35C954.034 223.35 953.334 223.134 952.778 222.7C952.223 222.267 951.945 221.689 951.945 220.967C951.945 220.245 952.223 219.673 952.778 219.25C953.334 218.817 954.034 218.6 954.878 218.6C955.712 218.6 956.406 218.817 956.962 219.25C957.517 219.673 957.795 220.245 957.795 220.967ZM953.545 220.967C953.545 221.267 953.667 221.517 953.912 221.717C954.156 221.906 954.478 222 954.878 222C955.267 222 955.584 221.906 955.828 221.717C956.073 221.517 956.195 221.267 956.195 220.967C956.195 220.667 956.073 220.423 955.828 220.234C955.584 220.045 955.267 219.95 954.878 219.95C954.478 219.95 954.156 220.045 953.912 220.234C953.667 220.423 953.545 220.667 953.545 220.967ZM958.212 223.75C959.9 223.75 961.245 223.939 962.245 224.317C963.256 224.695 963.762 225.3 963.762 226.134C963.762 226.978 963.256 227.589 962.245 227.967C961.245 228.345 959.9 228.534 958.212 228.534C956.523 228.534 955.173 228.345 954.162 227.967C953.162 227.589 952.662 226.978 952.662 226.134C952.662 225.3 953.162 224.695 954.162 224.317C955.173 223.939 956.523 223.75 958.212 223.75ZM958.212 227.084C959.278 227.084 960.15 227.006 960.828 226.85C961.517 226.684 961.862 226.445 961.862 226.134C961.862 225.823 961.517 225.589 960.828 225.434C960.15 225.267 959.278 225.184 958.212 225.184C957.145 225.184 956.267 225.267 955.578 225.434C954.889 225.589 954.545 225.823 954.545 226.134C954.545 226.445 954.889 226.684 955.578 226.85C956.267 227.006 957.145 227.084 958.212 227.084ZM976.16 222.484V228.467H974.36V215.667H976.16V220.65H977.76V222.484H976.16ZM970.41 216.017C970.41 217.95 970.254 219.712 969.943 221.3L973.66 226.65L972.193 227.75L969.31 223.5C968.843 224.823 968.249 225.856 967.526 226.6C966.804 227.334 965.976 227.723 965.043 227.767V225.834C965.765 225.723 966.393 225.228 966.926 224.35C967.46 223.462 967.865 222.289 968.143 220.834C968.421 219.378 968.565 217.75 968.576 215.95L970.41 216.017Z" fill="#333333"/>
<path d="M852.81 207.45H1016.81" stroke="#43AFA7" stroke-width="5.67" stroke-miterlimit="10" stroke-linecap="round"/>
</svg>
